<?xml version="1.0" encoding="utf-8"?>
<!-- Generator: Adobe Illustrator 21.0.0, SVG Export Plug-In . SVG Version: 6.00 Build 0)  -->
<svg version="1.0" id="Layer_1" xmlns="http://www.w3.org/2000/svg" xmlns:xlink="http://www.w3.org/1999/xlink" x="0px" y="0px" viewBox="0 0 408 414" style="enable-background:new 0 0 408 414;" xml:space="preserve">
  <g>
    <path d="M11.7,290.5c1.9-6.8,4-13.6,9.7-18.2c3.7-3,7.9-5.6,12.3-7.5c2.8-1.2,3.6-2.4,3.6-5.3c-0.1-17.1-0.1-34.2-0.1-51.4
		c0-14.4,7.6-22,21.9-22c58,0,115.9,0.2,173.9-0.1c12.4-0.1,22.2,8.3,21.8,21.9c-0.5,17.1-0.1,34.2-0.2,51.3c0,3,0.5,4.6,3.8,5.5
		c12.2,3.6,21.2,15,21.6,27.7c0.4,15.2,0.3,30.5,0.3,45.7c0,18.9,0,37.7,0,56.6c0,4-0.9,7.1-4.8,8.8c-9.7,0-19.5,0-29.2,0
		c-3.5-2.1-4.6-5.2-4.5-9.2c0.2-5.3,0-10.7,0-16.1c-64.2,0-127.9,0-192,0c0,5.7-0.2,11.2,0.1,16.7c0.2,3.9-1.2,6.8-4.6,8.6
		c-11.2,0-22.5,0-33.7,0C11.7,366,11.7,328.2,11.7,290.5z M267.4,326.8c0-11.9,0.1-23.5-0.1-35.1c0-1.8-0.9-3.6-1.8-5.3
		c-4.2-8-11.2-10.7-19.9-10.7c-64.5,0.1-128.9,0-193.4,0c-2.5,0-5-0.1-7.5,0c-12.4,0.3-20.2,8.3-20.3,20.7c0,6.4,0,12.7,0,19.1
		c0,3.7,0,7.4,0,11.3C105.7,326.8,186.3,326.8,267.4,326.8z M267.5,340.1c-81.2,0-162,0-242.6,0c0,17.1,0,33.9,0,50.6
		c4.3,0,8.2,0,12.1,0c0.2-0.4,0.3-0.7,0.3-0.9c0-5.2,0-10.5,0.1-15.7c0-6.6,2.1-8.7,8.8-8.7c66.7,0,133.5,0,200.2,0
		c6.5,0,8.5,2,8.6,8.5c0,5.6,0,11.2,0,16.8c4.5,0,8.6,0,12.6,0C267.5,373.7,267.5,357,267.5,340.1z M242.1,262.7c0-1.5,0-2.6,0-3.7
		c0-17.1,0-34.2,0-51.4c0-6.6-2.1-8.6-8.8-8.6c-58.1,0-116.2,0-174.3,0c-6.8,0-8.9,2.1-8.9,9c0,17,0,34,0,51c0,1.2,0,2.4,0,3.6
		c4.6,0,8.6,0,12.6,0c0.1-0.6,0.2-0.8,0.2-1c0-7.6,0-15.2,0.1-22.9c0.2-11,7-19.7,16.7-20.1c14.5-0.5,29-0.4,43.4,0
		c8,0.2,15.1,7.3,16.2,15.3c0.5,3.6,0.5,7.2,0.5,10.8c0.1,6,0,11.9,0,17.9c4.5,0,8.5,0,12.4,0c0.2-0.6,0.3-0.8,0.3-1
		c0-7.7,0-15.5,0.1-23.2c0.2-12,7.6-19.8,19.6-20.1c12.5-0.3,25-0.1,37.5,0c6.4,0,11.7,2.4,15.6,7.5c2.9,3.7,4.1,7.9,4,12.6
		c-0.1,8.1,0,16.2,0,24.4C233.7,262.7,237.6,262.7,242.1,262.7z M126.7,262.6c0-8.9,0.2-17.6-0.1-26.3c-0.1-3.5-2.7-5.3-6.1-5.3
		c-12.7-0.1-25.5-0.1-38.2,0c-3.6,0-6.2,2.1-6.3,5.6c-0.3,8.6-0.1,17.2-0.1,25.9C92.9,262.6,109.7,262.6,126.7,262.6z M216.5,262.7
		c0-8.7,0.1-16.9,0-25.1c-0.1-4-2.3-6.4-6.3-6.5c-12.7-0.2-25.5-0.2-38.2,0c-4.3,0-6.5,2.6-6.5,7c-0.1,6.7,0,13.5,0,20.2
		c0,1.4,0,2.9,0,4.4C182.7,262.7,199.4,262.7,216.5,262.7z" />
    <path d="M205.2,19.7c61.3,27.5,122.6,55,183.9,82.6c2.5,1.1,4.4,3.4,6.6,5.1c0,26.2,0,52.5,0,78.7c-4.1,0-8.2,0-12.8,0
		c0-1.7,0-3,0-4.3c0-21.6,0-43.2,0.1-64.8c0-2.6-0.7-3.9-3.1-5c-57.8-25.8-115.5-51.6-173.1-77.6c-2.1-1-3.8-1-5.9,0
		C143.1,60.4,85.4,86.2,27.6,112c-2.5,1.1-3.2,2.5-3.1,5c0.1,21.5,0.1,43,0.1,64.5c0,1.4,0,2.7,0,4.7c-4.4,0-8.6,0-12.8,0
		c0-26.2,0-52.5,0-78.7c1.8-1.6,3.4-3.7,5.6-4.7c60.8-27.4,121.7-54.7,182.6-82c0.8-0.4,1.6-0.7,2.3-1.1
		C203.2,19.7,204.2,19.7,205.2,19.7z" />
    <path d="M395.7,365.5c-4.1,0-8.2,0-12.7,0c0-12.9,0-25.5,0-38.3c-25.7,0-51,0-76.8,0c0,12.6,0,25.2,0,37.9c-4.4,0-8.4,0-12.7,0
		c-0.1-1.3-0.2-2.6-0.2-4c0-29.6,0-59.2,0-88.8c0-7.6,2-9.5,9.6-9.5c27.7,0,55.5,0,83.2-0.1c4,0,7.4,0.8,9.6,4.4
		C395.7,300,395.7,332.7,395.7,365.5z M306.4,313.8c25.6,0,51,0,76.4,0c0-12.8,0-25.2,0-37.8c-25.6,0-50.9,0-76.4,0
		C306.4,288.8,306.4,301.2,306.4,313.8z" />
    <path d="M325.5,249.8c0-4.1,0-8.1,0-12.5c4.1,0,8.1,0,12.4,0c0-6.5,0-12.6,0-19.2c-4.7,0-9.4,0-14.1,0c-1.9,0-3.8,0-5.6-0.3
		c-4.1-0.7-6.5-3.9-5.2-7.9c4.1-12.9,8.5-25.8,12.8-38.7c1.1-3.1,3.6-4.3,6.8-4.4c8-0.1,16,0,24,0c3.7,0,6,1.8,7.2,5.4
		c4,12.1,8.1,24.1,12,36.2c1.9,5.9-0.8,9.5-7.1,9.7c-5.7,0.1-11.5,0-17.5,0c0,6.5,0,12.6,0,19.1c4,0,8,0,12.2,0c0,4.4,0,8.4,0,12.6
		C350.7,249.8,338.2,249.8,325.5,249.8z M361.2,205.1c-2.8-8.3-5.4-16.2-8.2-24.1c-0.2-0.7-1.7-1.3-2.6-1.3c-3.7-0.1-7.5,0-11.2-0.1
		c-2.1-0.1-3.1,0.6-3.7,2.7c-1.4,4.7-3,9.2-4.6,13.9c-1,2.9-1.9,5.8-2.9,9C339.2,205.1,349.8,205.1,361.2,205.1z" />
    <path d="M218.5,73.7c-1.4,3.9-2.7,7.6-4.1,11.7c-12.4-3.3-23.7-1.4-33,7.6c-6.3,6-9.4,13.7-9.6,22.5c-0.5,17.1,13.9,32,31.7,32.3
		c15.5,0.3,34.2-12.2,32.1-37.2c4-0.7,8-1.4,12-2.1c4.3,17.3-5.4,37.5-22.4,46.7c-17.8,9.7-40.2,6.1-53.9-8.7
		c-14.2-15.3-16.2-37.4-5-55C177.1,74.3,197.9,67,218.5,73.7z" />
    <path d="M243.3,72.3c3.7,3.7,6.5,6.5,9.6,9.5c-0.9,1-1.7,1.9-2.5,2.7c-13.4,13.4-26.9,26.9-40.3,40.3c-4.9,4.9-7.7,4.9-12.6,0
		c-3.6-3.6-7.3-7.2-11-10.8c3.1-3.1,6-5.8,9.3-9.1c2.2,2.8,4.5,5.8,6.6,8.5C216.5,99.1,229.8,85.8,243.3,72.3z" />
    <path d="M357.2,288.7c0,4.2,0,8.1,0,12.3c-8.4,0-16.6,0-25.1,0c0-4,0-8,0-12.3C340.4,288.7,348.7,288.7,357.2,288.7z" />
  </g>
</svg>