<?xml version="1.0" encoding="utf-8"?>
<!-- Generator: Adobe Illustrator 21.0.0, SVG Export Plug-In . SVG Version: 6.00 Build 0)  -->
<svg version="1.1" id="Layer_1" xmlns="http://www.w3.org/2000/svg" xmlns:xlink="http://www.w3.org/1999/xlink" x="0px" y="0px" viewBox="0 0 566.9 566.9" style="enable-background:new 0 0 566.9 566.9;" xml:space="preserve">
  <g>
    <path d="M506.9,259c0,1.7,0,3.3,0,5c-2.4,7.9-8.5,11.2-15.8,13.4c-7.8,2.3-15.4,5.1-23.4,7.8c0,2,0,3.8,0,5.7c0,26.5,0,53,0,79.5
		c0,10.3-2.7,14.4-12.2,18.3c-53.2,22-106.4,44-159.6,66c-4.7,2-9.3,2-14,0c-53.2-22-106.4-44-159.6-66c-9.5-3.9-12.1-8-12.2-18.3
		c0-26.5,0-53,0-79.5c0-1.8,0-3.6,0-5.7c-8-2.7-15.6-5.5-23.4-7.8c-7.3-2.2-13.4-5.5-15.8-13.4c0-1.7,0-3.3,0-5
		c1.4-2.8,2.5-5.7,4.4-8.2c11.8-16.1,23.9-32,35.7-48.1c3.5-4.8,7.9-7.9,13.7-9.4c6.4-1.6,12.8-3.4,19.2-5.2
		c46.4-13.2,92.7-26.4,139.2-39.4c3.8-1.1,8.4-0.8,12.2,0.2c15.1,3.9,30.1,8.3,45.1,12.6c37.9,10.7,75.8,21.5,113.7,32.2
		c5.2,1.5,9.2,4.3,12.4,8.6c7.6,10.3,15.5,20.4,22.9,30.8C495.6,241.6,501.2,250.3,506.9,259z M273.7,419.2c0-41.1,0-81.5,0-122.6
		c-1.5,1.7-2.6,2.9-3.7,4.2c-5.8,7.1-11.6,14.2-17.3,21.3c-5,6.2-11.4,7.6-18.8,5.2c-5.4-1.7-10.7-3.6-16.1-5.4
		c-24.7-8.5-49.4-16.9-74.1-25.4c-1.1-0.4-2.2-0.5-3.7-0.7c0,22.2-0.1,44,0.1,65.8c0,1.2,1.7,3.1,3.1,3.6
		c35.5,14.8,71,29.5,106.5,44.2C257.6,412.6,265.4,415.8,273.7,419.2z M304.3,296.3c0,41.6,0,81.9,0,122.6c1-0.3,1.6-0.4,2.2-0.6
		c42.9-17.7,85.8-35.4,128.6-53.3c1.4-0.6,2.6-3.2,2.6-4.9c0.2-12.7,0.1-25.3,0.1-38c0-8.6,0-17.3,0-26.2c-1.3,0.2-2.4,0.2-3.3,0.5
		c-28.7,9.8-57.3,19.4-85.9,29.4c-13.3,4.7-18.1,3.5-26.7-7.5C316.4,311.1,310.6,304.1,304.3,296.3z M180.4,208.5
		c2.7,0.9,4.1,1.4,5.6,1.8c33.3,9.2,66.6,18.5,100,27.5c2.2,0.6,4.9,0.3,7.2-0.4c25-6.8,50-13.7,75-20.6c9.4-2.6,18.8-5.2,28.2-7.8
		c-6.1-2.6-12.2-4.2-18.3-5.9c-25.3-7.2-50.6-14.4-75.8-21.7c-8.2-2.4-16-3.8-24.6-0.6c-10.6,3.9-21.7,6.3-32.6,9.4
		C224,196.1,202.9,202.1,180.4,208.5z M468.1,253.9c-5.5-7.4-10.7-14.3-15.8-21.2c-5.3-7.2-5.2-7.1-14-4.7
		c-25.9,7.2-51.9,14.4-77.9,21.6c-15,4.2-30.1,8.3-45.8,12.6c9.5,11.7,18.5,22.9,27.8,34.4C384.3,282.3,426,268.2,468.1,253.9z
		 M263.2,262.3c-2.1-0.6-3.5-1.1-5-1.5c-29.2-8.1-58.3-16.2-87.5-24.2c-12.3-3.4-24.7-6.7-37.1-9.9c-1.2-0.3-3.3-0.2-3.9,0.6
		c-6.7,8.6-13.1,17.4-20,26.6c42.3,14.4,84,28.5,125.6,42.7C244.7,285.1,253.7,274,263.2,262.3z" />
  </g>
</svg>
