<svg xmlns="http://www.w3.org/2000/svg" width="42.792" height="46.847" viewBox="0 0 42.792 46.847">
  <g id="Group_2037" data-name="Group 2037" transform="translate(-162 -130.153)">
    <g id="technician" transform="translate(112.703 123.258)" opacity="0.63">
      <path id="Path_2172" data-name="Path 2172" d="M60.411,48.735c-.216-.072-.432-.144-.648-.223a3.321,3.321,0,0,1-2.224-3.037,18.923,18.923,0,0,1,.4-5.836,11.963,11.963,0,0,1,9.7-8.787c.533-.108,1.072-.2,1.6-.317a1.537,1.537,0,0,0,1.195-2.015c-.029-.1-.151-.18-.252-.245a7.836,7.836,0,0,1-3.591-5.721.432.432,0,0,0-.288-.281,2.022,2.022,0,0,1-1.662-2.037c-.007-.518-.029-1.036.014-1.554a5.471,5.471,0,0,1,.266-1.007,3.235,3.235,0,0,0,.194-.72c.022-1.115,0-2.231.014-3.346A5.713,5.713,0,0,1,69.4,8.04c1.281-.36,2.576-.662,3.879-.972a6.891,6.891,0,0,1,3.159.022c1.281.3,2.576.59,3.836.972a5.636,5.636,0,0,1,4.03,4.267.636.636,0,0,1-.41.849.618.618,0,0,1-.777-.525A4.619,4.619,0,0,0,79.381,9.1c-1.007-.23-2.008-.5-3.008-.748a5.937,5.937,0,0,0-2.907-.05c-1.281.309-2.569.612-3.836.972A4.45,4.45,0,0,0,66.391,13.5c-.014,1.087,0,2.173,0,3.318a30.394,30.394,0,0,1,16.825,0c0-.439-.007-.828,0-1.216.007-.446.237-.712.6-.727.389-.007.626.266.633.734.007.3.007.6,0,.9a2.125,2.125,0,0,0,.288,1.36,1.628,1.628,0,0,1,.194.82c.029.533.022,1.065.007,1.59a1.987,1.987,0,0,1-1.626,1.972c-.223.043-.309.108-.345.345A7.674,7.674,0,0,1,79.7,28.067a1.111,1.111,0,0,0-.525,1.432,1.327,1.327,0,0,0,1.094,1.029,26.964,26.964,0,0,1,3.879.936,11.673,11.673,0,0,1,7.808,9.859,27.537,27.537,0,0,1,.086,4.361A3.3,3.3,0,0,1,89.614,48.6c-.137.043-.273.094-.417.144Q74.775,48.731,60.411,48.735Zm24.971-1.259c0-.763-.022-1.5.007-2.231a2.159,2.159,0,0,0-.5-1.547,2.584,2.584,0,0,1-.619-1.562,1.356,1.356,0,0,0-1.569-1.49H67.025a3.123,3.123,0,0,0-.367.007,1.278,1.278,0,0,0-1.18,1.2,3.117,3.117,0,0,1-.835,2.029,1.247,1.247,0,0,0-.374.655c-.043.972-.014,1.943-.014,2.936ZM66.032,18.654c-.05.036-.1.065-.151.1,0,.489-.007.972,0,1.461a.772.772,0,0,0,.763.835,1.2,1.2,0,0,1,1.18,1.18c.014.137.022.273.043.4a7.024,7.024,0,0,0,8.3,5.664,6.875,6.875,0,0,0,5.57-6.052,1.189,1.189,0,0,1,1.195-1.2.745.745,0,0,0,.734-.691c.029-.54.007-1.072.007-1.619a.286.286,0,0,0-.115.022c-.187.18-.374.36-.554.54a4.013,4.013,0,0,1-3.749,1.195,24.948,24.948,0,0,0-8.772-.014A4.175,4.175,0,0,1,66.4,19.136C66.269,18.985,66.154,18.813,66.032,18.654ZM81.216,32a.928.928,0,0,0-1.123.13A13.566,13.566,0,0,1,78.5,33.4a6.012,6.012,0,0,1-5.786.691,9.01,9.01,0,0,1-2.771-1.914,1.165,1.165,0,0,0-1.4-.2V39.38H81.216ZM64.1,33.493a10.505,10.505,0,0,0-5.261,8.448H64.1V38.89a7.63,7.63,0,0,1,.014-.813.587.587,0,0,1,.64-.554.568.568,0,0,1,.583.569c.014.187.014.381.014.569V39.7c.669-.13,1.288-.252,1.9-.374v-7.16c-.547.173-1.051.338-1.554.5a.429.429,0,0,0-.353.5c.029.518.007,1.036.007,1.554,0,.842-.151,1.115-.612,1.123s-.633-.3-.633-1.108C64.1,34.321,64.1,33.918,64.1,33.493Zm26.67,8.463a10.526,10.526,0,0,0-5.109-8.326v8.326ZM67.032,17.985A2.935,2.935,0,0,0,69.874,19.3a28.5,28.5,0,0,1,9.823,0,2.788,2.788,0,0,0,2.814-1.353C78.848,16.546,69.838,16.56,67.032,17.985Zm3.721,13.241c2.835,2.85,5.8,2.612,8.29.13a2.676,2.676,0,0,1-1.173-2.281,8.107,8.107,0,0,1-6.117.014C71.479,30.413,71.414,30.543,70.752,31.226ZM58.771,43.244c0,.741-.014,1.454.007,2.173A2.033,2.033,0,0,0,60.411,47.4a19.866,19.866,0,0,0,2.54.022V45.007a2.812,2.812,0,0,1,.432-1.547,1.6,1.6,0,0,0,.094-.216Zm27.9,4.246c.72,0,1.432.043,2.13-.014a2.022,2.022,0,0,0,1.864-1.418,10.433,10.433,0,0,0,.151-2.8H86.124C86.98,44.6,86.462,46.065,86.671,47.49ZM82.5,32.19v7.132c.64.13,1.245.252,1.871.374-.007.029.014-.007.014-.043,0-2.188.007-4.375-.007-6.563a.44.44,0,0,0-.237-.317C83.612,32.565,83.072,32.392,82.5,32.19Z" transform="translate(0)"/>
      <path id="Path_2173" data-name="Path 2173" d="M249.079,58.087c-.72,0-1.439.007-2.166,0a1.447,1.447,0,0,1-1.554-1.554c0-.309-.007-.626,0-.936a1.428,1.428,0,0,1,1.454-1.49c1.058-.029,2.123-.007,3.181-.007.461,0,.928-.014,1.389.007a1.455,1.455,0,0,1,1.5,1.54c.007.324.007.655,0,.979a1.426,1.426,0,0,1-1.432,1.468c-.784.007-1.576-.014-2.368-.007Zm.043-2.742c-.5,0-1.008-.007-1.5,0-1.187.014-.993-.18-1.029,1.043-.007.367.129.468.475.461,1.166-.014,2.339.007,3.5-.007,1.252-.014,1.058.223,1.087-1.108.007-.309-.122-.4-.417-.4C250.533,55.352,249.828,55.345,249.122,55.345Z" transform="translate(-174.333 -43.801)"/>
    </g>
    <g id="Ellipse_193" data-name="Ellipse 193" transform="translate(162 158)" fill="#fff" stroke="#707070" stroke-width="1.5">
      <circle cx="9.5" cy="9.5" r="9.5" stroke="none"/>
      <circle cx="9.5" cy="9.5" r="8.75" fill="none"/>
    </g>
    <line id="Line_232" data-name="Line 232" x2="9.341" transform="translate(166.83 167.5)" fill="none" stroke="#707070" stroke-linecap="round" stroke-width="2"/>
    <line id="Line_233" data-name="Line 233" y2="8.674" transform="translate(171.5 163.163)" fill="none" stroke="#707070" stroke-linecap="round" stroke-width="2"/>
  </g>
</svg>
