<?xml version="1.0" encoding="utf-8"?>
<!-- Generator: Adobe Illustrator 24.3.0, SVG Export Plug-In . SVG Version: 6.00 Build 0)  -->
<svg version="1.1" id="Layer_1" xmlns="http://www.w3.org/2000/svg" xmlns:xlink="http://www.w3.org/1999/xlink" x="0px" y="0px"
	 viewBox="0 0 283.5 283.5" style="enable-background:new 0 0 283.5 283.5;" xml:space="preserve">
<path fill="#747474" d="M102.3,201.1c5.9-5.8,12-11.8,18.5-18.2c19,8,38,6.8,54-9.2c15.9-16,17.5-34.9,8.4-55.9c7.9-7.7,15.9-15.7,24.2-23.4
	c1.2-1.1,4.2-1.7,5.6-0.9c22.9,12.2,43,28,61,46.6C232.3,186.9,163.1,223.2,102.3,201.1z"/>
<path fill="#747474" d="M9.6,140.4C63,84.2,128.6,61.9,179.1,80c-6.1,5.6-11.5,10.8-17.2,15.6c-1.1,0.9-3.6,1.1-5.2,0.6c-18.2-5.6-34.3-2-47.8,11.2
	c-13.6,13.3-16.7,29.6-12,47.8c0.5,2.1-0.1,5.3-1.5,6.8c-7.3,7.8-14.8,15.3-22.6,22.6c-1.3,1.2-4.5,1.9-6,1.2
	C51.3,178.8,19.8,153.6,9.6,140.4z"/>
<path fill="#747474" d="M62.9,227.8c-3.4-2.5-7-3.9-8.2-6.4c-1.2-2.6-0.4-6.3,0.2-9.4c0.3-1.5,2.1-2.8,3.4-4c49.2-49.2,98.4-98.3,147.6-147.5
	c0.5-0.5,0.9-1,1.4-1.4c4.6-4.1,9.9-4.5,13.7-0.9c4.2,3.9,4.3,9.5-0.3,14.1c-10.2,10.5-20.7,20.8-31.1,31.1
	c-39,38.9-77.9,77.9-117,116.8C70,222.9,66.6,224.9,62.9,227.8z"/>
<path fill="#747474" d="M173.4,132c3,10.1,1.4,21-7,30.3c-9.4,10.5-21.3,13.6-33.6,10.1C146.1,159.1,159.8,145.5,173.4,132z"/>
<path fill="#747474" d="M110,148.9c-2.8-12.4,0-21.2,6.4-29.1c8.2-10,18.8-13.4,31.6-10c-1.8,0.4-3.6,1.1-5.4,1.2c-8.2,0.4-12.5,4.7-12.9,12.8
	c-0.1,1.8-0.4,4.1-1.5,5.4C122.8,135.6,116.9,141.6,110,148.9z"/>
</svg>
