<?xml version="1.0" encoding="utf-8"?>
<!-- Generator: Adobe Illustrator 24.3.0, SVG Export Plug-In . SVG Version: 6.00 Build 0)  -->
<svg version="1.1" id="Layer_1" xmlns="http://www.w3.org/2000/svg" xmlns:xlink="http://www.w3.org/1999/xlink" x="0px" y="0px"
	 viewBox="0 0 283.5 283.5" style="enable-background:new 0 0 283.5 283.5;" xml:space="preserve">
<path fill="#747474" d="M0,144.3c35.1-34.9,73.7-62.2,123.2-70c26.4-4.2,51.9,0.8,76.4,11.1c32.2,13.5,59.5,33.8,83.9,59.3
	c-21,22-44.3,40-71.1,53.4c-17.3,8.6-35.3,14.7-54.5,17.2c-30.3,3.9-58.4-3.3-85.3-16.4c-26.1-12.7-48.8-30.1-69.2-50.6
	C2.4,147.3,1.6,146.2,0,144.3z M91.7,144.9c0.1,27.7,22.7,50.2,50.3,50.1c27.5-0.1,49.8-22.7,49.8-50.6c0-27.6-23.1-50.5-50.3-50.1
	C113.6,94.7,91.6,117.1,91.7,144.9z"/>
<path fill="#747474" d="M141.5,179.7c-19.4-0.1-35.4-16.1-35.2-35.3c0.3-19.4,16.2-34.8,35.7-34.8c19.4,0.1,35.3,16.1,35,35.4
	C176.8,164.6,161.2,179.7,141.5,179.7z M141.6,138.8c6.9,0.1,12.8-5.6,13-12.4c0.3-7.2-5.6-13.4-12.8-13.5
	c-6.8-0.1-12.7,5.6-12.9,12.5C128.8,132.9,134.3,138.7,141.6,138.8z"/>
</svg>
