<?xml version="1.0" encoding="utf-8"?>
<!-- Generator: Adobe Illustrator 21.0.0, SVG Export Plug-In . SVG Version: 6.00 Build 0)  -->
<svg version="1.1" id="Layer_1" xmlns="http://www.w3.org/2000/svg" xmlns:xlink="http://www.w3.org/1999/xlink" x="0px" y="0px" viewBox="0 0 566.9 566.9" style="enable-background:new 0 0 566.9 566.9;" xml:space="preserve">
    <style type="text/css">
	.st0{fill:#FE6700;}
</style>
    <path class="st0" d="M499.3,17c57.5-0.3,68.2,10.7,62.5,63.3c-7.2,66.2-31.5,127.6-56.1,188.7c-31,77.1-66.4,152.2-111.3,222.5
	c-10.3,16.1-21.2,31.7-35.1,44.8c-15.1,14.2-25,12.4-34-6.8c-10.5-22.5-11.7-47.1-13.8-71.3c-4.2-48.6-1.3-97.7-9.9-145.9
	c-8.5-48.2-23.6-62.4-72.9-67c-46.2-4.3-92.5-7.1-138.7-11c-20.7-1.7-41.2-5.1-60.4-13.9c-28.3-13-30.7-30-6.2-48.7
	c30.5-23.2,65.1-39.2,100.1-53.8c106.6-44.3,216.3-78.4,330.6-96.3C470.6,18.7,487.4,18.1,499.3,17z" />
</svg>