<?xml version="1.0" encoding="utf-8"?>
<!-- Generator: Adobe Illustrator 21.0.0, SVG Export Plug-In . SVG Version: 6.00 Build 0)  -->
<svg version="1.0" id="Layer_1" xmlns="http://www.w3.org/2000/svg" xmlns:xlink="http://www.w3.org/1999/xlink" x="0px" y="0px" viewBox="0 0 408 414" style="enable-background:new 0 0 408 414;" xml:space="preserve">
  <g>
    <path d="M31.7,366c1.5-3.1,4-4,7.4-3.9c14.4,0.1,28.7,0.1,43.1,0.1c1.4,0,2.7,0,4.8,0c0-1.9,0-3.6,0-5.3c0-100.6,0-201.2,0-301.8
		c0-1.2,0-2.5,0-3.7c0.1-4.6,1.8-6.2,6.5-6.2c20.4,0,40.7,0,61.1,0c2.9,0,5.7,0,9.2,0c0-3.2,0-6.2,0-9.3c0-5.9,1.9-7.7,7.7-7.1
		c15.8,1.5,31.6,3.2,47.3,4.8c23.6,2.4,47.2,4.8,70.8,7.1c14.9,1.5,29.8,3,44.7,4.5c3.9,0.4,5.5,2.3,5.5,6.6c0,27.4,0,54.7,0,82.1
		c0,4-2.1,6.4-5.2,6.4c-3.2,0-5.2-2.4-5.2-6.5c0-24.6,0-49.2,0-73.9c0-1.5,0-3,0-4.9c-51.7-5.2-103.2-10.4-155-15.7
		c0,113.7,0,227.1,0,341.1c51.6-7,103.1-14,155-21c0-1.6,0-3.1,0-4.5c0-25.7,0-51.5,0-77.2c0-1.1-0.1-2.3,0.1-3.4
		c0.4-3,2.2-4.9,5.2-4.9s4.8,1.9,5.1,4.9c0.1,1.1,0.1,2.2,0.1,3.4c0,26.5,0,53,0,79.5c0,1.5,0,3,0,4.9c1.7,0,3,0,4.3,0
		c14.4,0,28.7,0.1,43.1-0.1c3.4,0,5.8,0.9,7.3,3.9c0,1,0,2,0,3c-1.9,3-4.7,3.6-8,3.5c-16.5-0.1-33,0.5-49.4-0.2
		c-29.3-1.2-57.9,4.7-86.7,8.3c-26.5,3.3-52.9,7.2-79.4,10.7c-5.2,0.7-7.3-1.3-7.4-6.7c0-4,0-7.9,0-12.2c-2.1,0-3.7,0-5.3,0
		c-39.6,0-79.2,0-118.7,0c-3.3,0-6.1-0.6-8-3.5C31.7,368,31.7,367,31.7,366z M126.9,85.8c0,92.1,0,183.9,0,276c12.4,0,24.5,0,36.7,0
		c0-92.2,0-184,0-276C151.2,85.8,139.2,85.8,126.9,85.8z M97.5,55.5c0,102.3,0,204.2,0,306.3c6.3,0,12.3,0,18.8,0c0-1.8,0-3.4,0-5
		c0-91.2,0-182.4,0-273.6c0-6.5,1.3-7.9,7.4-8c7.1,0,14.2,0,21.4,0c6.1,0,12.2,0,18.4,0c0-6.8,0-13.2,0-19.7
		C141.4,55.5,119.6,55.5,97.5,55.5z" />
    <path d="M205.1,228.7c-10.4,0-18.9-8.5-18.8-18.8c0-10.2,8.4-18.6,18.6-18.6c10.4,0,18.8,8.4,18.8,18.8
		C223.7,220.3,215.3,228.7,205.1,228.7z M204.9,201.7c-4.6,0-8.3,3.7-8.2,8.4c0,4.6,3.7,8.2,8.4,8.2s8.3-3.7,8.2-8.4
		C213.3,205.2,209.6,201.7,204.9,201.7z" />
    <path d="M329.5,230.3c0-2.4-0.1-4.7,0-7.1c0.1-3.4,2.3-5.8,5.2-5.6c3.2,0.2,5,2.2,5.1,5.3c0.1,5,0.1,10,0,14.9
		c-0.1,3.2-1.8,5.2-5.1,5.4c-3,0.2-5.2-2-5.3-5.5C329.4,235.3,329.5,232.8,329.5,230.3z" />
    <path d="M339.9,179.1c0,2.4,0.1,4.7,0,7.1c-0.2,3.2-1.8,5.2-5.1,5.4c-3,0.2-5.2-2.1-5.3-5.5c-0.1-4.7-0.1-9.5,0-14.2
		c0.1-3.5,2.1-5.6,5.2-5.5c3.1,0,5,2.1,5.1,5.7C340,174.4,339.9,176.7,339.9,179.1z" />
  </g>
</svg>