<?xml version="1.0" encoding="utf-8"?>
<!-- Generator: Adobe Illustrator 21.0.0, SVG Export Plug-In . SVG Version: 6.00 Build 0)  -->
<svg version="1.1" id="Layer_1" xmlns="http://www.w3.org/2000/svg" xmlns:xlink="http://www.w3.org/1999/xlink" x="0px" y="0px"
	 viewBox="0 0 419.1 566.9" style="enable-background:new 0 0 419.1 566.9;" xml:space="preserve">
<g>
	<path d="M108.5,258c-0.6-6.3-1-12.6-1.8-18.8c-5.6-39.9-11.2-79.7-16.9-119.6c-1.6-11-2.8-22.1-4.7-33.1
		c-3.3-19.1,9.9-39.1,31.4-41.9c20.4-2.7,37.9,11.6,41.1,32.8c6.7,43.7,13.7,87.4,20.6,131c0.2,1.3,0.9,2.5,1.3,3.8
		c0.5-0.1,1-0.2,1.5-0.2c0-2.2,0-4.3,0-6.5c0-51.7,0-103.4,0-155.2c0-18.2,11.6-33.2,28.1-36.6C232.6,9,253,25.7,253,50.2
		c0.1,51.7,0,103.4,0,155.2c0,2.1,0,4.3,0,6.4c0.6,0,1.2,0.1,1.8,0.1c1.1-7,2.2-13.9,3.4-20.9c6.3-36.9,12.3-73.8,19.1-110.6
		c3.3-18,19.7-29.5,36.4-26.6c18.6,3.2,29.7,19,27.4,38c-3.4,28-6.3,56-9.4,84c-0.1,1.1,0,2.2,1.2,3.8c3.5-7,7.1-13.9,10.5-20.9
		c4.8-9.7,12.3-16.2,22.7-19.1c25.6-7.2,50.4,16.5,42.9,42c-10.5,35.7-22.2,71-33.7,106.4c-8.4,25.9-16.5,51.8-25.8,77.4
		c-6.3,17.4-17,32.4-29.1,46.5c-2.1,2.4-3.6,6.3-3.6,9.5c-0.3,28-0.2,56.1-0.1,84.1c0,2.6,0.9,5.6,2.4,7.7c6.7,9,8.6,18.5,3.9,28.8
		c-4.9,10.5-13.7,15.4-25,15.7c-8.5,0.3-17,0.1-25.6,0.1c-51.2,0-102.3,0-153.5,0c-15.1,0-25.5-8.3-28.4-22.6
		c-2.2-10.6,3.1-22.2,13.4-27.7c3.5-1.9,4.3-3.9,4.2-7.5c-0.1-20.3,0.1-40.5-0.2-60.8c0-2.8-1.4-6.4-3.4-8.3
		c-21.9-21.3-38.3-46.2-50.3-74.2C39.5,322.1,24,288.1,8.8,253.9c-10.3-23.2,1-47.6,24.9-53c14.7-3.3,27.4,1,37.1,12.8
		c10.9,13.3,21.6,26.9,32.4,40.3c1.2,1.5,2.6,3,3.9,4.5C107.6,258.3,108,258.2,108.5,258z M299.2,503.6c0-2.5,0-4.6,0-6.6
		c0-26.5,0.1-53-0.1-79.6c0-5.7,1.6-10.1,5.6-14.2c15.1-15.6,26.2-33.8,33-54.4c11.6-35.4,22.8-70.8,34.2-106.3
		c6.6-20.7,13.3-41.4,19.8-62.1c3.7-11.7-1.4-21.6-12.4-24.5c-8.2-2.2-16.1,1.9-20.7,11c-11,21.8-21.8,43.6-32.8,65.4
		c-3,5.9-6.5,7.9-11,6.4c-5-1.6-6.8-5.5-5.9-11.8c1.1-8.4,1.9-16.9,2.8-25.4c2.5-22.4,5-44.7,7.5-67.1c1.7-15.6,3.6-31.2,4.9-46.8
		c0.7-9-4.9-15.7-12.8-16.6c-9-1-15.6,3.8-17.3,13.3c-5.4,30.5-10.6,61-15.8,91.6c-2.1,12.5-3.8,25-5.9,37.5
		c-2.3,13.4-14.7,20.3-26.2,14.7c-7.9-3.9-10.6-10.8-10.5-19.2c0-52.8,0.1-105.7-0.1-158.5c0-4.3-1.4-9-3.7-12.7
		c-4.1-6.7-12.6-9.2-20-6.9c-8.2,2.5-13.2,9.4-13.2,18.4c0,52.5,0,104.9,0,157.4c0,1.9,0.1,3.8-0.1,5.7c-0.8,10-8.5,17.6-18,17.9
		c-9.1,0.3-17.1-6.4-18.7-15.8c-2.4-14.7-4.6-29.5-7-44.2c-4.8-30.2-9.5-60.5-14.5-90.7C138.1,66.6,128.8,60,117,62.1
		c-10.4,1.9-16.6,12.4-14.6,24.5c1.6,9.5,2.8,19.1,4.1,28.6c4,28.3,8.1,56.5,12,84.8c3.6,26.4,8.9,52.6,7.3,79.5
		c-0.3,5.5,0.5,11.4-6.2,13.7c-6.7,2.3-9.5-2.9-12.7-7c-16.1-20.1-32.2-40.2-48.3-60.3c-4.9-6.2-11.1-9.9-19.2-8.7
		c-14.2,2.2-21,15.5-14.9,29.3c14.6,33,29.7,65.8,43.8,99.1c12.4,29.2,29.2,55.1,52.6,76.6c3.6,3.3,5,7.2,5,12.1
		c-0.2,21-0.1,42.1-0.1,63.1c0,2,0.2,4,0.3,6.2C183.8,503.6,241,503.6,299.2,503.6z M207.7,540.1c21.4,0,42.8,0,64.2,0
		c9.1,0,18.2,0.1,27.3-0.1c5.5-0.1,9.2-4.2,9.1-9.5c-0.1-5-3.7-8.8-8.9-9.2c-1.7-0.1-3.4-0.1-5.1-0.1c-47,0-93.9,0-140.9,0
		c-11.9,0-23.9-0.1-35.8,0c-7.1,0.1-11.7,5.8-9.6,12.1c1.7,5.3,5.8,6.8,11.1,6.8C148.6,540.1,178.1,540.1,207.7,540.1z"/>
	<path d="M334.9,285.2c-0.1,0.5-0.1,1.1-0.3,1.6c-6.2,18.4-12.3,36.9-19,55.1c-1,2.8-5.2,5.8-8.3,6.3c-5.9,1-9.8-5.8-7.7-11.9
		c6-17.7,12.1-35.3,18.2-53c1.5-4.4,4.6-7.2,9.3-6.6C331.7,277.2,334.3,280.5,334.9,285.2z"/>
	<path d="M299.2,365.5c-1.3,2.8-1.9,4.9-3.2,6.4c-2.9,3.5-5.9,6.9-9.2,10.1c-4,3.8-8.6,3.7-12.2,0.2c-3.4-3.3-3.7-7.7-0.4-11.7
		c3-3.6,6-7.6,9.7-10.3c2.4-1.7,6.6-2.3,9.3-1.4C295.8,359.6,297.4,363.2,299.2,365.5z"/>
</g>
</svg>
