<svg xmlns="http://www.w3.org/2000/svg" width="30.393" height="30.397" viewBox="0 0 30.393 30.397">
    <path fill="rgba(0,0,0,0.75)" d="M30.077 13.22L17.675.819a2.8 2.8 0 0 0-3.957 0L1.325 13.212l-.013.013a2.8 2.8 0 0 0 1.862 4.768h.581v9.125A3.279 3.279 0 0 0 7.03 30.4h4.851a.891.891 0 0 0 .891-.891v-7.158a1.5 1.5 0 0 1 1.494-1.494h2.861a1.5 1.5 0 0 1 1.494 1.494v7.154a.891.891 0 0 0 .891.891h4.851a3.279 3.279 0 0 0 3.275-3.275V18h.462a2.8 2.8 0 0 0 1.98-4.776zm-1.261 2.7a1.011 1.011 0 0 1-.719.3h-1.349a.89.89 0 0 0-.891.891v10.01a1.5 1.5 0 0 1-1.494 1.494H20.4v-6.264a3.279 3.279 0 0 0-3.275-3.275h-2.859a3.279 3.279 0 0 0-3.275 3.275v6.263H7.03a1.5 1.5 0 0 1-1.494-1.494V17.106a.89.89 0 0 0-.891-.891H3.278a1.016 1.016 0 0 1-.7-1.735l12.4-12.4a1.017 1.017 0 0 1 1.438 0l12.4 12.4.006.006a1.019 1.019 0 0 1 0 1.437zm0 0" transform="translate(-0.5 0.001)"/>
</svg>
