<?xml version="1.0" encoding="utf-8"?>
<!-- Generator: Adobe Illustrator 21.0.0, SVG Export Plug-In . SVG Version: 6.00 Build 0)  -->
<svg version="1.1" id="Layer_1" xmlns="http://www.w3.org/2000/svg" xmlns:xlink="http://www.w3.org/1999/xlink" x="0px" y="0px"
	 viewBox="0 0 277 274.9" style="enable-background:new 0 0 277 274.9;" xml:space="preserve">
<style type="text/css">
	.st0{fill:#1F427F;}
	.st1{opacity:0.65;fill:url(#SVGID_1_);}
	.st2{fill:#FF6700;stroke:#FFFFFF;stroke-width:10;stroke-miterlimit:10;}
</style>
<path class="st0" d="M68,267.6h145.3c30.7,0,55.7-24.9,55.7-55.7V66.6c0-30.7-24.9-55.7-55.7-55.7H68c-30.7,0-55.7,24.9-55.7,55.7
	v145.3C12.3,242.7,37.3,267.6,68,267.6z"/>
<radialGradient id="SVGID_1_" cx="135.3333" cy="142.3715" r="43.2082" gradientTransform="matrix(2.3774 0 0 3.0085 -184.5793 -285.1254)" gradientUnits="userSpaceOnUse">
	<stop  offset="0" style="stop-color:#000000"/>
	<stop  offset="0.2024" style="stop-color:#383838;stop-opacity:0.7893"/>
	<stop  offset="0.73" style="stop-color:#C6C6C6;stop-opacity:0.2401"/>
	<stop  offset="0.9607" style="stop-color:#FFFFFF;stop-opacity:0"/>
</radialGradient>
<path class="st1" d="M241,143.2c0,16.4-46.5,131.4-103.8,131.4S33.3,152.6,33.3,143.2c0-72.6,46.5-131.4,103.8-131.4
	S241,70.6,241,143.2z"/>
<path class="st2" d="M139.3,65.9c31.3,0,56.8,25.4,56.8,56.8c0,23.8-32.7,70.3-48.5,91.3c-4.1,5.5-12.4,5.5-16.6,0
	c-15.8-21-48.5-67.5-48.5-91.3C82.5,91.3,107.9,65.9,139.3,65.9z"/>
</svg>
