<?xml version="1.0" encoding="utf-8"?>
<!-- Generator: Adobe Illustrator 21.0.2, SVG Export Plug-In . SVG Version: 6.00 Build 0)  -->
<svg version="1.1" id="Layer_1" xmlns="http://www.w3.org/2000/svg" xmlns:xlink="http://www.w3.org/1999/xlink" x="0px" y="0px"
	 viewBox="4 13 45 45" style="enable-background:new 0 0 76 76;" xml:space="preserve">
<style type="text/css">
	.st0{fill:#FFFFFF;}
	.st1{font-family:'Gilroy-Regular';}
	.st2{font-size:60.9317px;}
	.st3{letter-spacing:-2;}
	.st4{letter-spacing:-3;}
	.st5{letter-spacing:-9;}
	.st6{letter-spacing:1;}
	.st7{fill:#396cb3;}
</style>
<g>
	<path class="st0" d="M26.6,14c-2.5,0-8.3,0.6-12.6,5.6c-5.6,6.6-4.5,14.2-1.8,19c2.2,3.9,8.6,13.7,10.3,16.4
		c1.3,1.9,2.8,2.3,3.7,2.3c1.3,0,2.6-0.5,3.6-2c2.5-3.8,7.6-11.8,10.2-16.1c3.5-5.7,3.7-13.2-0.3-18.6C35.2,14.4,29.1,14,26.6,14z"
		/>
	<path class="st7" d="M26.9,16.8c0,0-6.1-0.8-10.9,5.1c-4.3,5.2-3,11.7-1,15.1c1.8,3.2,8.1,13.8,9.4,16.1c0.7,1.2,1.4,1.4,2,1.4
		c0.8,0,1.6-0.4,2.1-1.3c1-2,7.2-11.9,9.4-15.7c2.8-4.6,2.9-10.8-0.4-15.1C33.7,17.4,28.7,16.8,26.9,16.8z"/>
</g>
</svg>
