<?xml version="1.0" encoding="utf-8"?>
<!-- Generator: Adobe Illustrator 21.0.0, SVG Export Plug-In . SVG Version: 6.00 Build 0)  -->
<svg version="1.0" id="Layer_1" xmlns="http://www.w3.org/2000/svg" xmlns:xlink="http://www.w3.org/1999/xlink" x="0px" y="0px"
	 viewBox="0 0 365.1 392.9" style="enable-background:new 0 0 365.1 392.9;" xml:space="preserve">
<g>
	<path d="M175.8,389.9c-4.7-1.3-9.5-2.1-13.9-3.9c-22.5-9.5-35-26.5-37.1-50.9c-0.1-0.6-0.1-1.2-0.2-2.3c-1.6,0-3.1,0-4.5,0
		c-25.5,0-51,0-76.5,0c-8.6,0-14.2-5.9-12.5-13.4c0.5-2.3,1.8-5,3.6-6.2c10.4-7.1,16.2-17.4,21.2-28.4c8.3-18.3,12.7-37.6,14.7-57.4
		c1.8-17.9,2.5-35.9,3.2-53.8c1.8-44.2,22.1-76.6,61.2-97.2c2.4-1.2,3.1-2.5,3.1-5.1c0.1-10.2-0.5-20.6,1-30.7
		c2.9-19.4,20.5-33.9,40.2-34.5c20.7-0.6,36.3,8.1,43.7,25.2c2.3,5.3,3.3,11.3,3.8,17c0.6,7.7,0.2,15.5,0.1,23.2
		c0,2.3,0.6,3.5,2.8,4.6c32.6,16.6,52.9,42.8,59.6,78.8c1.8,9.6,1.7,19.6,2,29.5c0.7,25.2,2.8,50.1,9.1,74.6
		c3.9,15.1,8.9,29.7,18.3,42.3c3.1,4.1,7.1,7.7,11,11c3.6,3.1,5.3,6.5,4.5,11.2c-0.7,4.5-3.5,7.4-7.8,8.7c-1.9,0.6-3.9,0.6-5.9,0.7
		c-25,0-50,0-75,0c-1.5,0-3,0-4.7,0c-0.6,3.8-0.8,7.6-1.6,11.2c-5.3,24-23.8,41.4-48.2,45.3c-0.6,0.1-1.1,0.4-1.7,0.7
		C184.8,389.9,180.3,389.9,175.8,389.9z M297,310.1c-0.4-1-0.6-1.4-0.8-1.9c-8.8-14.6-14.4-30.4-18.4-46.9c-6.8-28-8.8-56.5-9-85.1
		c0-5.6-0.5-11.3-1.3-16.8C258.6,104.7,198.8,72,148.2,95C114,110.7,97,138.3,96.4,175.9c-0.3,21.3-1.3,42.5-4.6,63.5
		c-3.9,24.3-10.1,47.9-23,69.2c-0.2,0.4-0.2,0.9-0.4,1.6C144.6,310.1,220.5,310.1,297,310.1z M147.1,332.9
		c1.1,13.9,7.3,24.3,19.3,30.4c13.1,6.6,25.9,5.4,37.7-3.5c8.8-6.7,13.3-15.7,13.7-27C194.1,332.9,170.9,332.9,147.1,332.9z
		 M204.5,67.4c0-6.5,0.1-12.7,0-18.9c-0.2-10.6-7.8-18.9-18.2-20c-12.7-1.3-22.9,4.4-24.8,15.3c-1.3,7.6-0.2,15.5-0.2,23.5
		C175.5,64.4,189.7,64.5,204.5,67.4z"/>
</g>
</svg>
