<svg xmlns="http://www.w3.org/2000/svg" xmlns:xlink="http://www.w3.org/1999/xlink" width="116.829" height="116.743" viewBox="0 0 116.829 116.743">
    <defs>
        <linearGradient id="linear-gradient" x1="-1.34" x2="-.197" y1=".438" y2=".438" gradientUnits="objectBoundingBox">
            <stop offset=".004" stop-color="#e38ddd"/>
            <stop offset="1" stop-color="#9571f6"/>
        </linearGradient>
        <linearGradient id="linear-gradient-2" x1="-1.03" x2="-.007" y1="-.085" y2="-.085" gradientUnits="objectBoundingBox">
            <stop offset="0" stop-color="#ff9085"/>
            <stop offset="1" stop-color="#fb6fbb"/>
        </linearGradient>
        <linearGradient id="linear-gradient-3" x1="0" x2="1" y1=".5" y2=".5" xlink:href="#linear-gradient-2"/>
        <linearGradient id="linear-gradient-4" x1=".395" x2=".888" y1="-.032" y2="1.349" gradientUnits="objectBoundingBox">
            <stop offset="0" stop-color="#fcb148"/>
            <stop offset=".052" stop-color="#fdba46"/>
            <stop offset=".142" stop-color="#ffc244"/>
            <stop offset=".318" stop-color="#ffc444"/>
            <stop offset=".485" stop-color="#fdb946"/>
            <stop offset=".775" stop-color="#f99c4d"/>
            <stop offset=".866" stop-color="#f8924f"/>
            <stop offset="1" stop-color="#f8924f"/>
        </linearGradient>
        <linearGradient id="linear-gradient-5" x1=".273" x2="1.266" y1=".241" y2="1.373" xlink:href="#linear-gradient-2"/>
        <linearGradient id="linear-gradient-6" x1="-.41" x2="1.447" y1=".499" y2=".502" xlink:href="#linear-gradient-2"/>
        <linearGradient id="linear-gradient-7" x1=".003" x2="1.001" y1=".5" y2=".5" gradientUnits="objectBoundingBox">
            <stop offset="0" stop-color="#311944"/>
            <stop offset="1" stop-color="#a03976"/>
        </linearGradient>
        <linearGradient id="linear-gradient-8" x1="-.002" x2=".995" y1=".5" y2=".5" xlink:href="#linear-gradient-7"/>
        <linearGradient id="linear-gradient-9" x1="0" x2="1" y1=".5" y2=".5" xlink:href="#linear-gradient-7"/>
        <linearGradient id="linear-gradient-10" x2="32.095" y1=".5" y2=".5" gradientUnits="objectBoundingBox">
            <stop offset="0" stop-color="#aa80f9"/>
            <stop offset=".996" stop-color="#6165d7"/>
        </linearGradient>
        <linearGradient id="linear-gradient-11" x1="-.034" x2="1.011" y1=".5" y2=".5" xlink:href="#linear-gradient-10"/>
        <linearGradient id="linear-gradient-12" x1="-38.558" x2=".997" y1=".5" y2=".5" xlink:href="#linear-gradient-10"/>
        <linearGradient id="linear-gradient-13" x1=".436" x2=".939" y1=".245" y2="1.243" xlink:href="#linear-gradient-10"/>
        <linearGradient id="linear-gradient-14" x1=".395" x2="1.174" y1=".296" y2="1.298" xlink:href="#linear-gradient-10"/>
        <linearGradient id="linear-gradient-15" x1="1.141" x2="-.459" y1="-.473" y2="1.956" xlink:href="#linear-gradient-10"/>
        <linearGradient id="linear-gradient-16" x1=".436" x2=".939" y1=".245" y2="1.243" xlink:href="#linear-gradient-2"/>
        <linearGradient id="linear-gradient-17" x1=".394" x2="1.173" y1=".296" y2="1.298" xlink:href="#linear-gradient-2"/>
        <linearGradient id="linear-gradient-18" x1="1.141" x2="-.46" y1="-.474" y2="1.955" xlink:href="#linear-gradient-2"/>
        <linearGradient id="linear-gradient-19" x1="7.52" x2="8.52" y1=".5" y2=".5" gradientUnits="objectBoundingBox">
            <stop offset="0" stop-color="#444b8c"/>
            <stop offset=".996" stop-color="#26264f"/>
        </linearGradient>
        <linearGradient id="linear-gradient-20" x1="9.263" x2="10.263" y1=".5" y2=".5" gradientUnits="objectBoundingBox">
            <stop offset="0" stop-color="#311944"/>
            <stop offset="1" stop-color="#6b3976"/>
        </linearGradient>
        <linearGradient id="linear-gradient-21" x1="8.843" x2="9.843" y1=".5" y2=".5" xlink:href="#linear-gradient-20"/>
        <linearGradient id="linear-gradient-22" x1="15.54" x2="16.54" y1=".5" y2=".5" xlink:href="#linear-gradient-20"/>
        <linearGradient id="linear-gradient-23" x1="15.119" x2="16.119" y1=".5" y2=".5" xlink:href="#linear-gradient-20"/>
        <linearGradient id="linear-gradient-24" x1="11.918" x2="12.917" y1=".5" y2=".5" xlink:href="#linear-gradient-20"/>
        <linearGradient id="linear-gradient-25" x1="11.496" x2="12.496" y1=".5" y2=".5" xlink:href="#linear-gradient-20"/>
        <linearGradient id="linear-gradient-26" x1="25.201" x2="24.241" y1=".451" y2=".517" gradientUnits="objectBoundingBox">
            <stop offset=".005" stop-color="#d8dee8"/>
            <stop offset="1" stop-color="#f4f7fa"/>
        </linearGradient>
        <linearGradient id="linear-gradient-27" x1="1.894" x2="2.894" y1=".5" y2=".5" xlink:href="#linear-gradient-19"/>
        <linearGradient id="linear-gradient-28" x1="2.382" x2="3.382" y1=".5" y2=".5" xlink:href="#linear-gradient-19"/>
        <linearGradient id="linear-gradient-29" x1="4.594" x2="5.594" y1=".5" y2=".5" xlink:href="#linear-gradient-20"/>
        <linearGradient id="linear-gradient-30" x1="4.175" x2="5.175" y1=".5" y2=".5" xlink:href="#linear-gradient-20"/>
        <linearGradient id="linear-gradient-31" x1="10.18" x2="8.553" y1=".586" y2=".453" xlink:href="#linear-gradient-26"/>
        <linearGradient id="linear-gradient-32" x1="1.128" x2="2.128" y1=".5" y2=".5" gradientUnits="objectBoundingBox">
            <stop offset="0" stop-color="#ffc444"/>
            <stop offset=".996" stop-color="#f36f56"/>
        </linearGradient>
        <linearGradient id="linear-gradient-33" x1="3.789" x2="4.789" y1=".5" y2=".5" xlink:href="#linear-gradient-32"/>
        <linearGradient id="linear-gradient-34" x1="1.141" x2="2.141" y1=".5" y2=".5" xlink:href="#linear-gradient-32"/>
        <linearGradient id="linear-gradient-35" x1="2.713" x2="3.713" y1=".5" y2=".5" xlink:href="#linear-gradient-26"/>
        <linearGradient id="linear-gradient-36" x1="3.206" x2="2.745" y1=".509" y2="1.501" xlink:href="#linear-gradient-26"/>
        <linearGradient id="linear-gradient-37" x1="5.162" x2="6.162" y1=".5" y2=".5" xlink:href="#linear-gradient-19"/>
        <linearGradient id="linear-gradient-38" x1="13.038" x2="13.018" y1="-.242" y2="2.169" xlink:href="#linear-gradient-19"/>
        <linearGradient id="linear-gradient-39" x1="17.873" x2="18.827" y1="-.362" y2="2.045" xlink:href="#linear-gradient-4"/>
        <linearGradient id="linear-gradient-40" x1="5.607" x2="6.607" y1=".501" y2=".501" xlink:href="#linear-gradient-19"/>
        <linearGradient id="linear-gradient-41" x1="7.958" x2="8.958" y1=".5" y2=".5" xlink:href="#linear-gradient-19"/>
        <linearGradient id="linear-gradient-42" x1="8.251" x2="9.251" y1=".5" y2=".5" xlink:href="#linear-gradient-19"/>
        <clipPath id="clip-path">
            <path id="Path_539" d="M739.1 926.6v-78.21l28.1-1.889v82.043z" transform="translate(-739.1 -846.5)"/>
        </clipPath>
        <clipPath id="clip-path-2">
            <path id="Rectangle_270" d="M0 0H73.032V32.642H0z" transform="translate(32.642) rotate(90)"/>
        </clipPath>
        <clipPath id="clip-path-3">
            <path id="Path_550" d="M1411.5 928.543V846.5l20.776 4.539v73.036z" transform="translate(-1411.5 -846.5)"/>
        </clipPath>
        <style>
            .cls-3,.cls-8{fill:#fff}.cls-3{opacity:.16}.cls-6{fill:#d8dee8}.cls-22{opacity:.3}
        </style>
    </defs>
    <g id="Illustration" transform="translate(-457.36 -461.743)">
        <g id="Group_309" transform="translate(457.36 461.743)">
            <path id="Path_529" fill="#f4f7fa" d="M572.473 511.368c-3.168-20.726-16.149-46.191-41.8-48.858 0 0-19.476-2.37-38.673 1.22a43.264 43.264 0 0 0-27.7 17.592 38.141 38.141 0 0 0-5.872 30.828 76.322 76.322 0 0 1 2.483 21.081c-.539 12.309-.23 23.8 11.719 31.141 10.666 6.553 24.09 12.338 36.9 13.349a82.261 82.261 0 0 0 26.853-2.692c42.739-11.547 39.254-42.935 36.09-63.661z" transform="translate(-457.36 -461.743)"/>
            <g id="Group_280" transform="translate(71.192 10.856)">
                <path id="Path_530" fill="url(#linear-gradient)" d="M2171.573 780.984a12.193 12.193 0 0 1-7.034-2.746c-4.418-3.958-4.464-11.368-2.729-16.388 1.492-4.313 5.074-7.569 12.233-14.085 6.746-6.135 9.237-7.138 9.375-10.194.192-4.351-4.681-6.708-3.695-11.753a5.612 5.612 0 0 1 2.177-3.728c2.825-1.785 7.318.711 9.571 2.738 2.173 1.956 4.811 5.772 3.958 9.375-.619 2.612-2.541 2.9-2.558 5.2-.017 2.32 1.927 2.733 3.415 6.286.594 1.421 1.789 4.267.928 7.051-1.116 3.6-4.656 3.824-4.806 6.679-.109 2.065 1.7 2.621 2.065 4.923.48 3.03-2.077 5.763-4.234 8.008-2.539 2.65-9.392 9.779-18.666 8.634z" transform="translate(-2160.746 -721.48)"/>
                <path id="Path_531" d="M2265.259 753.055c-1.413 1.484 4.393 5.6 4.43 12.609.042 7.536-6.616 13.813-9.7 16.714-5.25 4.948-7.97 4.685-10.984 9.667-1.191 1.973-3.674 6.077-2.336 10.791.125.439 1.584 5.3 5.885 6.863 4.877 1.768 9.7-2.056 13.859-5.354 2.512-1.994 7.531-5.968 6.487-8.994-.639-1.852-3.394-2.917-5.488-2.959-2.988-.058-5.041 1.96-5.4 1.517-.326-.4 1.028-2.424 3.1-4.142 4.146-3.44 6.934-2.144 9.914-5.162.364-.368 3.185-3.306 2.541-6.775-.372-2-1.906-4.23-3.6-4.3-1.914-.088-3.206 2.616-3.711 2.315-.481-.293.405-2.938 1.667-5.429 1.852-3.657 2.963-3.925 3.481-6.106a9.5 9.5 0 0 0-1.212-6.7c-2.392-3.953-7.729-5.825-8.933-4.555z" class="cls-3" transform="translate(-2242.713 -751.358)"/>
            </g>
            <g id="Group_281" transform="translate(75.397 31.392)">
                <path id="Path_532" fill="url(#linear-gradient-2)" d="M2270 1269.159a12.163 12.163 0 0 1-6.416-3.979c-3.628-4.7-2.328-11.991.293-16.613 2.249-3.97 6.361-6.524 14.586-11.627 7.749-4.811 10.382-5.346 11.067-8.321.978-4.242-3.385-7.448-1.5-12.225a5.627 5.627 0 0 1 2.817-3.268c3.105-1.245 7.067 2.027 8.915 4.43 1.78 2.32 3.682 6.549 2.19 9.939-1.083 2.457-3.026 2.386-3.46 4.647-.435 2.278 1.4 3.038 2.219 6.8.326 1.5.982 4.522-.368 7.1-1.747 3.335-5.27 2.917-5.939 5.7-.485 2.01 1.2 2.884 1.137 5.216-.08 3.068-3.089 5.291-5.617 7.105-2.978 2.137-11.011 7.905-19.924 5.096z" transform="translate(-2261.348 -1212.851)"/>
                <path id="Path_533" d="M2367.979 1245.92c-1.655 1.2 3.3 6.307 2.069 13.2-1.329 7.419-9.015 12.38-12.567 14.674-6.06 3.912-8.689 3.164-12.555 7.51-1.53 1.722-4.714 5.308-4.255 10.19.042.451.6 5.5 4.543 7.816 4.476 2.625 9.914-.259 14.6-2.746 2.834-1.5 8.489-4.505 8.012-7.669-.292-1.935-2.809-3.486-4.861-3.908-2.93-.6-5.316 1.011-5.588.51-.247-.451 1.45-2.194 3.8-3.511 4.7-2.629 7.205-.848 10.687-3.277.422-.293 3.732-2.675 3.728-6.2 0-2.035-1.108-4.505-2.759-4.886-1.868-.431-3.628 1.994-4.067 1.6-.422-.372.932-2.817 2.625-5.036 2.487-3.26 3.628-3.323 4.531-5.375a9.444 9.444 0 0 0 .021-6.808c-1.643-4.304-6.543-7.112-7.964-6.084z" class="cls-3" transform="translate(-2337.312 -1244.334)"/>
            </g>
            <g id="Group_303" transform="translate(1.113 3.012)">
                <g id="Group_292" transform="translate(8.309 8.948)">
                    <g id="Group_284">
                        <path id="Path_534" fill="url(#linear-gradient-3)" d="M713.256 838.181l-30.456-2.316v-85.708l30.456-2.257z" transform="translate(-682.8 -747.9)"/>
                        <path id="Path_535" d="M739.7 1549.7v36.424h-.6v9.32h28.1V1549.7z" class="cls-6" transform="translate(-736.747 -1516.189)"/>
                        <g id="Group_283" transform="translate(2.353 4.121)">
                            <g id="Group_282" clip-path="url(#clip-path)">
                                <path id="Path_536" d="M591.749 598.5s.029 19.719 4.451 28.767 6.085 17.863 2.758 23.02-16.325-2.712-16.325-2.712a26.82 26.82 0 0 0-8.906 13.587c-2.771 9.258-20.793 16.973-24.675 14.365s-2.215-72.489-2.215-72.489z" class="cls-8" transform="translate(-554.531 -608.865)"/>
                                <path id="Path_537" d="M588.1 1378.607s10.921 5.091 19.184.389 15.23-13.161 15.23-13.161 8.4 5.149 12.919 4.861 7.853-14.774 7.853-14.774 7.473-3.715 10.8-11.251 13.541-15.744 19.129-17.462 8.873 1.492 8.873 1.492l-1.388 65.684-86.289 4.518z" class="cls-8" transform="translate(-594.411 -1306.632)"/>
                                <path id="Path_538" fill="url(#linear-gradient-4)" d="M1734.819 657.1s-2.942 13.508 0 17.09 5.187 13.83 6.006 16.609 7.2 8.856 10.524 3.323a42.417 42.417 0 0 1 10.812-11.435c2.5-1.864 18.3-3.778 19.129-5.178s1.388-17.286 1.388-17.286z" transform="translate(-1691.95 -665.016)"/>
                            </g>
                        </g>
                    </g>
                    <g id="Group_287" transform="translate(41.435 5.045)">
                        <path id="Path_540" fill="url(#linear-gradient-5)" d="M1908.6 948.912h35.521V868.6H1908.6z" transform="translate(-1898.803 -868.6)"/>
                        <path id="Path_541" d="M1716.638 1028.128V955.1H1684l-9.8 27.576 9.8 45.452z" class="cls-6" transform="translate(-1674.2 -951.485)"/>
                        <g id="Group_286" transform="translate(9.797 3.614)">
                            <g id="Group_285" clip-path="url(#clip-path-2)">
                                <path id="Path_542" d="M591.749 598.5s.029 19.719 4.451 28.767 6.085 17.863 2.758 23.02-16.325-2.712-16.325-2.712a26.82 26.82 0 0 0-8.906 13.587c-2.771 9.258-20.793 16.973-24.675 14.365s-2.215-72.489-2.215-72.489z" class="cls-8" transform="translate(-603.411 -613.402)"/>
                                <path id="Path_543" d="M588.1 1378.607s10.921 5.091 19.184.389 15.23-13.161 15.23-13.161 8.4 5.149 12.919 4.861 7.853-14.774 7.853-14.774 7.473-3.715 10.8-11.251 13.541-15.744 19.129-17.462 8.873 1.492 8.873 1.492l-1.388 65.684-86.289 4.518z" class="cls-8" transform="translate(-643.291 -1311.17)"/>
                                <path id="Path_544" d="M1734.819 657.1s-2.942 13.508 0 17.09 5.187 13.83 6.006 16.609 7.2 8.856 10.524 3.323a42.417 42.417 0 0 1 10.812-11.435c2.5-1.864 18.3-3.778 19.129-5.178s1.388-17.286 1.388-17.286z" class="cls-8" transform="translate(-1740.83 -669.553)"/>
                            </g>
                        </g>
                    </g>
                    <g id="Group_290" transform="translate(30.456)">
                        <path id="Path_545" fill="url(#linear-gradient-6)" d="M1432.276 833.257l-20.776 4.923V747.9l20.776 5.045v3.615l-3.891 7.715-1.187 63.787 5.078 1.526z" transform="translate(-1411.5 -747.9)"/>
                        <path id="Path_546" fill="#97a6b7" d="M1432.276 959.935v-59.858l-7.318-2.5-3.628-.8-.623-.071v36.516h-9.207v26.719z" transform="translate(-1411.5 -890.481)"/>
                        <g id="Group_289" transform="translate(0 4.121)">
                            <g id="Group_288" clip-path="url(#clip-path-3)">
                                <path id="Path_547" d="M591.749 598.5s.029 19.719 4.451 28.767 6.085 17.863 2.758 23.02-16.325-2.712-16.325-2.712a26.82 26.82 0 0 0-8.906 13.587c-2.771 9.258-20.793 16.973-24.675 14.365s-2.215-72.489-2.215-72.489z" class="cls-6" transform="translate(-582.634 -608.865)"/>
                                <path id="Path_548" d="M588.1 1378.607s10.921 5.091 19.184.389 15.23-13.161 15.23-13.161 8.4 5.149 12.919 4.861 7.853-14.774 7.853-14.774 7.473-3.715 10.8-11.251 13.541-15.744 19.129-17.462 8.873 1.492 8.873 1.492l-1.388 65.684-86.289 4.518z" class="cls-6" transform="translate(-622.514 -1306.632)"/>
                                <path id="Path_549" d="M1734.819 657.1s-2.942 13.508 0 17.09 5.187 13.83 6.006 16.609 7.2 8.856 10.524 3.323a42.417 42.417 0 0 1 10.812-11.435c2.5-1.864 18.3-3.778 19.129-5.178s1.388-17.286 1.388-17.286z" class="cls-6" transform="translate(-1720.053 -665.016)"/>
                            </g>
                        </g>
                    </g>
                    <g id="Group_291" transform="translate(2.328 5.066)">
                        <path id="Rectangle_271" fill="url(#linear-gradient-7)" d="M0 0H0.556V76.697H0z" opacity="0.53" transform="translate(64.945 3.594)"/>
                        <path id="Rectangle_272" fill="url(#linear-gradient-8)" d="M0 0H0.556V80.296H0z" opacity="0.53" transform="translate(13.801)"/>
                        <path id="Path_551" fill="url(#linear-gradient-9)" d="M820.045 1443.2H787.37l-.033-.008-20.73-4.927-28.057 2.37-.05-.552 28.149-2.378.042.013 20.743 4.928h32.612z" opacity="0.53" transform="translate(-738.5 -1413.936)"/>
                    </g>
                </g>
                <g id="Group_296" transform="translate(16.177 40.662)">
                    <g id="Group_293" transform="translate(0 14.879)">
                        <path id="Path_552" fill="url(#linear-gradient-10)" d="M871.71 1864.494a.644.644 0 0 1-.384-1.162s.251-.184.681-.51a.645.645 0 0 1 .777 1.028c-.439.334-.69.518-.69.518a.631.631 0 0 1-.384.126z" transform="translate(-871.065 -1862.693)"/>
                    </g>
                    <g id="Group_294" transform="translate(2.045)">
                        <path id="Path_553" fill="url(#linear-gradient-11)" d="M973.8 1525.892a6.429 6.429 0 0 1-1.342-.167.644.644 0 0 1 .272-1.258 3.821 3.821 0 0 0 1.413.109.645.645 0 0 1 .3 1.254h-.021a3.155 3.155 0 0 1-.622.062zm2.106-.6a.643.643 0 0 1-.276-1.224 7.23 7.23 0 0 0 1.329-.823.643.643 0 0 1 .79 1.016 8.645 8.645 0 0 1-1.567.974.656.656 0 0 1-.282.055zm-4.957-.021a.7.7 0 0 1-.2-.033c-.5-.167-1.053-.376-1.638-.61a.646.646 0 0 1 .481-1.2c.564.226 1.1.422 1.572.585a.644.644 0 0 1 .405.815.651.651 0 0 1-.624.441zm-3.185-1.262a.628.628 0 0 1-.259-.054c-.5-.222-1.028-.464-1.571-.719a.644.644 0 0 1 .547-1.166c.535.251 1.053.489 1.542.706a.644.644 0 0 1-.259 1.233zm10.825-.79a.666.666 0 0 1-.426-.159.643.643 0 0 1-.059-.911 9.72 9.72 0 0 0 .953-1.292.646.646 0 0 1 1.1.686 11.183 11.183 0 0 1-1.087 1.457.638.638 0 0 1-.485.217zm-13.926-.669a.629.629 0 0 1-.284-.067c-.5-.247-1.016-.506-1.538-.773a.646.646 0 0 1 .589-1.149c.518.267 1.032.522 1.521.765a.646.646 0 0 1-.288 1.225zm-44.01-.723a.644.644 0 0 1-.393-1.154c.405-.313.861-.665 1.35-1.045a.643.643 0 1 1 .794 1.011c-.493.385-.949.74-1.358 1.053a.629.629 0 0 1-.397.133zm40.963-.836a.655.655 0 0 1-.3-.075c-.506-.268-1.011-.535-1.517-.811a.644.644 0 0 1 .614-1.133q.752.407 1.5.8a.646.646 0 0 1-.3 1.216zm-38.263-1.271a.653.653 0 0 1-.506-.242.645.645 0 0 1 .1-.907q.646-.514 1.329-1.066a.645.645 0 1 1 .811 1c-.46.372-.907.731-1.337 1.074a.666.666 0 0 1-.401.14zm35.25-.355a.632.632 0 0 1-.309-.079c-.506-.28-1.007-.56-1.5-.836a.645.645 0 1 1 .631-1.124c.493.276.99.556 1.492.832a.641.641 0 0 1 .251.878.65.65 0 0 1-.568.328zm-2.984-1.684a.7.7 0 0 1-.322-.084c-.506-.293-1-.577-1.488-.861a.645.645 0 0 1 .648-1.116c.481.28.974.564 1.479.857a.643.643 0 0 1 .238.878.629.629 0 0 1-.559.324zm-29.607-.117a.644.644 0 0 1-.41-1.141c.447-.372.886-.74 1.3-1.095a.643.643 0 1 1 .832.982c-.422.359-.865.731-1.317 1.1a.645.645 0 0 1-.41.152zm26.648-1.609a.636.636 0 0 1-.33-.092c-.514-.305-1.007-.6-1.475-.882a.645.645 0 0 1 .669-1.1l1.467.878a.646.646 0 0 1 .226.882.653.653 0 0 1-.562.312zm-24.04-.606a.638.638 0 0 1-.485-.221.647.647 0 0 1 .063-.911c.443-.389.873-.769 1.271-1.128a.645.645 0 1 1 .865.957c-.405.368-.836.752-1.287 1.145a.644.644 0 0 1-.432.156zm21.106-1.162a.632.632 0 0 1-.339-.1c-.535-.33-1.028-.635-1.463-.911a.645.645 0 0 1 .69-1.091c.43.272.915.577 1.446.9a.645.645 0 0 1-.334 1.2zm-18.574-1.137a.646.646 0 0 1-.447-1.112c.435-.414.84-.815 1.2-1.183a.644.644 0 1 1 .924.9c-.372.38-.79.79-1.237 1.216a.634.634 0 0 1-.444.177zm15.686-.711a.63.63 0 0 1-.359-.113c-.276-.184-.556-.376-.84-.573-.188-.13-.38-.263-.577-.393a.643.643 0 0 1 .727-1.062c.2.134.389.263.577.4.284.192.56.385.832.568a.642.642 0 0 1-.359 1.174zm-13.307-1.747a.626.626 0 0 1-.422-.159.651.651 0 0 1-.067-.911c.184-.213.355-.422.506-.614a6.8 6.8 0 0 1 .648-.723.644.644 0 0 1 .894.928 5.61 5.61 0 0 0-.527.589c-.163.209-.347.435-.547.665a.616.616 0 0 1-.49.224zm10.47-.167a.624.624 0 0 1-.347-.1c-.522-.334-.991-.619-1.429-.869a.644.644 0 0 1 .635-1.12c.464.263.953.56 1.492.907a.645.645 0 0 1-.351 1.187zm-2.984-1.659a.628.628 0 0 1-.259-.054 9.989 9.989 0 0 0-1.509-.535.645.645 0 0 1 .322-1.25 11.065 11.065 0 0 1 1.709.6.644.644 0 0 1 .33.849.655.655 0 0 1-.599.388zm-4.961-.422a.645.645 0 0 1-.259-1.237 5.078 5.078 0 0 1 1.9-.41.644.644 0 0 1 .034 1.287 3.731 3.731 0 0 0-1.421.305.622.622 0 0 1-.26.053z" transform="translate(-920.006 -1506.695)"/>
                    </g>
                    <g id="Group_295" transform="translate(61.771 11.616)">
                        <path id="Path_554" fill="url(#linear-gradient-12)" d="M2349.684 1786.7a.625.625 0 0 1-.259-.054.641.641 0 0 1-.326-.848 6.934 6.934 0 0 0 .284-.727.645.645 0 1 1 1.233.38 8.365 8.365 0 0 1-.339.869.658.658 0 0 1-.593.38z" transform="translate(-2349.042 -1784.619)"/>
                    </g>
                </g>
                <g id="Group_299">
                    <g id="Group_298">
                        <path id="Path_555" fill="url(#linear-gradient-13)" d="M520.859 552.231c0 7.874-11.034 22.247-16.024 28.345a3.107 3.107 0 0 1-4.806 0c-4.994-6.1-16.028-20.471-16.028-28.345a18.429 18.429 0 1 1 36.859 0z" transform="translate(-484 -533.8)"/>
                        <circle id="Ellipse_124" cx="10.277" cy="10.277" r="10.277" class="cls-8" transform="translate(8.154 8.154)"/>
                        <g id="Group_297" class="cls-22" transform="translate(0 0.222)">
                            <path id="Path_556" fill="url(#linear-gradient-14)" d="M502.348 578.086c1.17-7.7 6.252-10.164 5.383-17.437-1.007-8.384-8.43-10.62-8.61-18.08a11.8 11.8 0 0 1 .443-3.469A18.433 18.433 0 0 0 484 557.306c0 7.874 11.034 22.247 16.024 28.345a3.094 3.094 0 0 0 2.875 1.1 21.175 21.175 0 0 1-.551-8.665z" transform="translate(-484 -539.1)"/>
                        </g>
                    </g>
                    <circle id="Ellipse_125" cx="3.766" cy="3.766" r="3.766" fill="url(#linear-gradient-15)" transform="translate(14.666 51.976)"/>
                </g>
                <g id="Group_302" transform="translate(70.516 27.049)">
                    <g id="Group_301">
                        <path id="Path_557" fill="url(#linear-gradient-16)" d="M2187.972 1189.388c0 3.582-5.02 10.123-7.293 12.9a1.413 1.413 0 0 1-2.186 0c-2.274-2.775-7.293-9.316-7.293-12.9a8.386 8.386 0 1 1 16.772 0z" transform="translate(-2171.2 -1181)"/>
                        <circle id="Ellipse_126" cx="4.677" cy="4.677" r="4.677" class="cls-8" transform="translate(3.711 3.711)"/>
                        <g id="Group_300" class="cls-22" transform="translate(0.004 0.1)">
                            <path id="Path_558" fill="url(#linear-gradient-17)" d="M2179.646 1201.142c.531-3.5 2.846-4.627 2.449-7.932-.459-3.816-3.837-4.831-3.916-8.229a5.485 5.485 0 0 1 .2-1.58 8.385 8.385 0 0 0-7.08 8.284c0 3.582 5.02 10.123 7.293 12.9a1.416 1.416 0 0 0 1.308.5 9.525 9.525 0 0 1-.254-3.943z" transform="translate(-2171.3 -1183.4)"/>
                        </g>
                    </g>
                    <circle id="Ellipse_127" cx="1.714" cy="1.714" r="1.714" fill="url(#linear-gradient-18)" transform="translate(6.675 23.656)"/>
                </g>
            </g>
            <g id="Group_308" transform="translate(32.652 65.687)">
                <path id="Path_559" fill="url(#linear-gradient-19)" d="M1734.436 2877.29l-13.036-.531 3.611-8.459 8.4.5 2.249 3.674z" transform="translate(-1701.221 -2833.406)"/>
                <g id="Group_304" transform="translate(41.619 30.443)">
                    <path id="Path_560" fill="url(#linear-gradient-20)" d="M2238.228 2761.8c.088 0 .171 0 .259.012l1.354-.012-.008.531a6.4 6.4 0 0 1 2.223 5.233c0 2.412-.982 4.476-2.382 5.337l-.008.427h-1.438c-2.115 0-3.828-2.579-3.828-5.764s1.714-5.764 3.828-5.764z" transform="translate(-2234.4 -2761.8)"/>
                    <ellipse id="Ellipse_128" cx="3.828" cy="5.763" fill="url(#linear-gradient-21)" rx="3.828" ry="5.763" transform="translate(1.609)"/>
                </g>
                <g id="Group_305" transform="translate(3.352 34.819)">
                    <path id="Path_561" fill="url(#linear-gradient-22)" d="M1323.485 2866.5c.1 0 .213.008.318.017l1.659-.017-.008.593a6.918 6.918 0 0 1 2.725 5.864c0 2.7-1.2 5.016-2.917 5.977l-.008.481h-1.764c-2.591 0-4.689-2.892-4.689-6.458s2.093-6.457 4.684-6.457z" transform="translate(-1318.8 -2866.5)"/>
                    <ellipse id="Ellipse_129" cx="4.689" cy="6.457" fill="url(#linear-gradient-23)" rx="4.689" ry="6.457" transform="translate(1.973)"/>
                </g>
                <g id="Group_306" transform="translate(21.253 37.816)">
                    <path id="Path_562" fill="url(#linear-gradient-24)" d="M1751.719 2938.2c.1 0 .209.009.309.017l1.634-.017-.008.61a7.2 7.2 0 0 1 2.683 6.01c0 2.771-1.187 5.141-2.871 6.127l-.008.493h-1.739c-2.55 0-4.618-2.963-4.618-6.62s2.068-6.62 4.618-6.62z" transform="translate(-1747.1 -2938.2)"/>
                    <ellipse id="Ellipse_130" cx="4.618" cy="6.62" fill="url(#linear-gradient-25)" rx="4.618" ry="6.62" transform="translate(1.948)"/>
                    <ellipse id="Ellipse_131" cx="2.595" cy="3.72" class="cls-6" rx="2.595" ry="3.72" transform="translate(4.618 2.901)"/>
                    <ellipse id="Ellipse_132" cx="2.203" cy="3.452" fill="url(#linear-gradient-26)" rx="2.203" ry="3.452" transform="translate(4.618 3.168)"/>
                </g>
                <path id="Path_563" fill="url(#linear-gradient-27)" d="M2498.211 2761.8v6.892a2.994 2.994 0 0 1-3.36 2.972l-16.751-2.056v-7.8z" transform="translate(-2426.296 -2731.357)"/>
                <path id="Path_564" fill="url(#linear-gradient-28)" d="M2230.423 2738.9l-4.6 7.147a4.084 4.084 0 0 1-2.942 1.843l-15.213 1.826-1.166-7.694z" transform="translate(-2166.047 -2709.414)"/>
                <g id="Group_307" transform="translate(59.482 32.968)">
                    <path id="Path_565" fill="url(#linear-gradient-29)" d="M2665.632 2822.2c.088 0 .171 0 .259.012l1.354-.012-.008.531a6.4 6.4 0 0 1 2.223 5.233c0 2.412-.982 4.476-2.382 5.337l-.008.427h-1.442c-2.115 0-3.828-2.579-3.828-5.764s1.718-5.764 3.832-5.764z" transform="translate(-2661.8 -2822.2)"/>
                    <ellipse id="Ellipse_133" cx="3.828" cy="5.763" fill="url(#linear-gradient-30)" rx="3.828" ry="5.763" transform="translate(1.617)"/>
                    <ellipse id="Ellipse_134" cx="2.152" cy="3.239" class="cls-6" rx="2.152" ry="3.239" transform="translate(3.833 2.524)"/>
                    <ellipse id="Ellipse_135" cx="1.826" cy="3.005" fill="url(#linear-gradient-31)" rx="1.826" ry="3.005" transform="translate(3.833 2.758)"/>
                </g>
                <path id="Path_566" fill="url(#linear-gradient-32)" d="M2356 2068.294l31.254-4.33a1.04 1.04 0 0 0 .9-1.028V2035.4a1.042 1.042 0 0 0-1.007-1.041L2356 2033.4v34.894z" transform="translate(-2309.299 -2033.4)"/>
                <path id="Path_567" fill="url(#linear-gradient-33)" d="M1769 2066.368l24.533 1.927V2033.4l-23.313 1.229a1.291 1.291 0 0 0-1.22 1.283z" transform="translate(-1746.832 -2033.4)"/>
                <path id="Path_568" fill="url(#linear-gradient-34)" d="M2435.309 2072.346c4.543-5.726 13.575-1.5 18.13-7.924a17.677 17.677 0 0 0 2.24-4.322 1.036 1.036 0 0 1 .5.886v27.534a1.04 1.04 0 0 1-.9 1.028l-28.279 3.917a26.058 26.058 0 0 0 4.877-7.561c2.851-6.838.465-9.818 3.432-13.558z" opacity="0.3" transform="translate(-2377.332 -2058.984)"/>
                <path id="Path_569" fill="url(#linear-gradient-35)" d="M1280.558 2328.373a69.616 69.616 0 0 1 .619 26.535 2.11 2.11 0 0 1-1.747 1.693l-7.611 1.216s-.075-7.205-3.732-7.678-7.084 2.955-7.314 8.9c0 0-7.924 1.066-19.886-1.676a3.429 3.429 0 0 1-2.286-2.152l.539-8.288a2.556 2.556 0 0 1 .874-1.76l7.042-6.085s6.4-9.065 8.534-10.816c0 0 1.141-1.826 10.361-2.056a84.355 84.355 0 0 1 12.827.539 2.1 2.1 0 0 1 1.78 1.628z" transform="translate(-1238.6 -2313.933)"/>
                <path id="Path_570" fill="url(#linear-gradient-36)" d="M1239.641 2367.486l.351.385c-.151 4.267-1.078 5.776 6.741 6.578s7.582-5.763 7.582-5.763l10.256-4.472 8.564-13.483c1.7-1.371 4.668-1.743 6.683-1.831a2.1 2.1 0 0 1 .84 1.258 69.615 69.615 0 0 1 .619 26.535 2.111 2.111 0 0 1-1.747 1.693l-7.611 1.216s-.075-7.205-3.732-7.678-7.084 2.955-7.314 8.9c0 0-7.924 1.066-19.886-1.676a3.428 3.428 0 0 1-2.286-2.152l.539-8.288a2.492 2.492 0 0 1 .401-1.222z" opacity="0.6" transform="translate(-1238.696 -2335.714)"/>
                <path id="Path_571" fill="url(#linear-gradient-37)" d="M1457.462 2402.969a1.361 1.361 0 0 1-1.325.644l-16.237-1.989.042-.038s5.312-7.523 7.87-10.186l14.975.9a.684.684 0 0 1 .543 1.041z" transform="translate(-1431.487 -2376.438)"/>
                <path id="Path_572" fill="#fff" d="M1511.132 2416.213c4.422-1.739 8.1.322 11.134-2.111a7.081 7.081 0 0 0 2.278-3.6l1.576.1a.684.684 0 0 1 .543 1.041l-5.864 9.63a1.361 1.361 0 0 1-1.325.644l-13.474-1.658a12.011 12.011 0 0 1 5.132-4.046z" opacity="0.3" transform="translate(-1494.824 -2394.739)"/>
                <path id="Path_573" fill="url(#linear-gradient-38)" d="M1282.907 2813.959a.293.293 0 0 1 .288-.259 73.77 73.77 0 0 1 10.821 1.187.563.563 0 0 1 .451.681 8 8 0 0 1-1.279 2.909 1.58 1.58 0 0 1-1.158.647 23.475 23.475 0 0 1-5.467-.054 12.823 12.823 0 0 1-3.009-1.212 1.345 1.345 0 0 1-.686-.966 13.016 13.016 0 0 1 .039-2.933z" transform="translate(-1280.951 -2781.087)"/>
                <path id="Path_574" fill="url(#linear-gradient-39)" d="M1597.219 2809.64a.433.433 0 0 0-.238-.6 3.064 3.064 0 0 0-1.133-.251c-.372.046-3.527.865-4.969 1.241a.964.964 0 0 0-.723.99c.063.982.435 2.537 2.123 2.712 2.34.242 3.821-1.823 4.94-4.092z" transform="translate(-1575.461 -2776.38)"/>
                <path id="Path_575" fill="url(#linear-gradient-40)" d="M1245.383 2894.7c6.14.857 7.385-1.25 7.385-1.25a16.851 16.851 0 0 0 4.689-.272 1.123 1.123 0 0 1 1.128.51 1.611 1.611 0 0 0 1.145.673 10.53 10.53 0 0 0 3.561-.427 11.92 11.92 0 0 0-2.19 6.788s-8.058 1.074-20.016-1.668a3.429 3.429 0 0 1-2.286-2.152l.351-5.4c.62.964 2.258 2.648 6.233 3.198z" transform="translate(-1238.792 -2855.636)"/>
                <path id="Path_576" fill="url(#linear-gradient-41)" d="M1255.172 2947.606a1.137 1.137 0 0 1 1.245 1.162 28.457 28.457 0 0 0 .247 4.016 70.4 70.4 0 0 1-15.777-1.881 3.429 3.429 0 0 1-2.286-2.153l.2-3.151c4.906 2.785 13.165 2.321 16.371 2.007z" opacity="0.6" transform="translate(-1238.6 -2907.476)"/>
                <path id="Path_577" fill="url(#linear-gradient-42)" d="M1960.556 2431.131l-2.207.535a3.032 3.032 0 0 0-1.772 1.22l-5.458 7.962a.731.731 0 0 0 .752 1.128l9.458-2a.85.85 0 0 0 .677-.8 34.734 34.734 0 0 0-.414-7.372.848.848 0 0 0-1.036-.673z" transform="translate(-1921.215 -2414.485)"/>
            </g>
        </g>
    </g>
</svg>
