<?xml version="1.0" encoding="utf-8"?>
<!-- Generator: Adobe Illustrator 21.0.0, SVG Export Plug-In . SVG Version: 6.00 Build 0)  -->
<svg version="1.1" id="Layer_1" xmlns="http://www.w3.org/2000/svg" xmlns:xlink="http://www.w3.org/1999/xlink" x="0px" y="0px"
	 viewBox="0 0 750 500" style="enable-background:new 0 0 750 500;" xml:space="preserve">
<style type="text/css">
	.st0{fill:#A5DFD3;}
	.st1{fill:#F4EEF1;}
	.st2{fill:#CCC6D2;}
	.st3{fill:#FAFDFF;}
	.st4{fill:#313471;}
	.st5{fill:#FFFFFF;}
	.st6{fill:#C8B8C3;}
	.st7{fill:#3F4493;}
	.st8{fill:#5058A6;}
	.st9{font-family:'ArialMT';}
	.st10{font-size:15.5602px;}
	.st11{fill:#F6921E;stroke:#FFFFFF;stroke-width:4;stroke-miterlimit:10;}
	.st12{fill:#CE7602;}
	.st13{fill:#FFC536;}
	.st14{fill:#F29603;}
	.st15{clip-path:url(#SVGID_2_);fill:#F7B103;}
	.st16{fill:#3D9981;}
	.st17{fill:#FCFCFD;}
	.st18{fill:#FFF8F8;}
	.st19{clip-path:url(#SVGID_4_);fill:#F7B103;}
	.st20{clip-path:url(#SVGID_6_);fill:#F7B103;}
	.st21{clip-path:url(#SVGID_8_);fill:#F7B103;}
	.st22{clip-path:url(#SVGID_10_);fill:#F7B103;}
	.st23{clip-path:url(#SVGID_12_);fill:#F7B103;}
	.st24{clip-path:url(#SVGID_14_);fill:#F7B103;}
	.st25{fill:#54AF99;}
	.st26{fill:#E8740C;}
	.st27{fill:#F7B103;}
	.st28{fill:#222560;}
	.st29{opacity:0.38;fill:#07123D;enable-background:new    ;}
	.st30{fill:#424A77;}
	.st31{fill:#1D2056;}
	.st32{fill:#323371;}
	.st33{fill:#8D9FB5;}
	.st34{fill:#FFE4E3;}
	.st35{fill:none;}
	.st36{font-family:'MyriadPro-Regular';}
	.st37{font-size:52px;}
</style>
<g id="BACKGROUND">
</g>
<g id="OBJECTS">
	<path class="st0" d="M474,120c-31.1,5.2-61.9,14.9-93.5,13.3c-14.8-0.7-30.3-4.4-40.4-14.7c-5.1-5.1-8.4-11.6-13.5-16.7
		c-15.1-15.5-40.7-15.9-62.8-12.7C246.3,91.8,228,96.6,216,109s-14.1,34.4-0.2,44.8c6.6,5,15.3,6.4,23.5,8.5
		c8.4,2.1,16.6,4.9,24.4,8.4c7.6,3.4,15.6,8.3,17.4,16c1.8,7.5-3.1,15.3-9.7,19.8s-14.7,6.6-22.4,9c-18.7,5.8-36.7,14.5-50.9,27.3
		c-14.2,12.9-24.3,30.3-25.4,48.9c-0.8,13.2,3.9,27.7,15.6,35c14.4,9,34.1,4.2,48.8-4.5c15.8-9.4,28.5-22.6,42-34.9
		c13.4-12.3,28.3-24,46.2-29c17.9-5.1,39.4-2.1,51.5,11.4s11.7,32.9,13.6,50.5c1.8,16.8,6.3,33.5,15.6,47.9
		c15.6,24.3,45,40,75.1,40.3s59.8-14.9,75.9-38.9c11.4-16.9,16.1-37.1,19.5-56.9c4-23.5,6.6-47.2,7.7-70.9
		c1.3-28.9,0.4-58.2-7.1-86.2c-2.4-8.7-4.7-18.8-13.3-23.5c-8.5-4.6-17.3-8.9-26.8-11.3C516.4,115.4,494.6,116.6,474,120z"/>
	<g>
		<g>
			<path class="st1" d="M533.3,165.7h0.5c0.8,0,1.5-0.7,1.5-1.5l-0.2-31.4c0-0.8-0.7-1.5-1.5-1.5h-0.5c-0.8,0-1.5,0.7-1.5,1.5
				l0.2,31.4C531.8,165,532.5,165.7,533.3,165.7z"/>
			<path class="st1" d="M532.9,206.5h0.5c0.8,0,1.5-0.7,1.5-1.5l-0.2-31.4c0-0.8-0.7-1.5-1.5-1.5h-0.5c-0.8,0-1.5,0.7-1.5,1.5
				l0.2,31.4C531.4,205.8,532.1,206.5,532.9,206.5z"/>
			<g>
				<path class="st1" d="M413.5,347.2l100.6-0.5c10.1-0.1,18.2-8.3,18.2-18.3L531,93.1c-0.1-10.1-8.3-18.2-18.3-18.2l-100.6,0.5
					c-10.1,0.1-18.2,8.3-18.2,18.3l1.2,235.2C395.2,339.1,403.4,347.2,413.5,347.2z"/>
				<g>
					<path class="st2" d="M514,347.3l-100.6,0.5c-10.4,0.1-18.9-8.4-19-18.8l-1.2-235.2c-0.1-10.4,8.4-18.9,18.8-19l100.6-0.5
						c5,0,9.8,1.9,13.4,5.5c3.6,3.5,5.6,8.3,5.6,13.3l1.2,235.2c0,9.5-7,17.4-16.2,18.8C515.8,347.2,514.9,347.3,514,347.3z
						 M394.5,93.7l1.2,235.2c0,9.7,8,17.6,17.7,17.6v0.6v-0.6L514,346c9.7-0.1,17.6-8,17.6-17.7l-1.2-235.2c0-4.7-1.9-9.1-5.2-12.4
						s-7.8-5.1-12.5-5.1L412.1,76c-0.8,0-1.6,0.1-2.4,0.2C401.1,77.4,394.5,84.8,394.5,93.7z"/>
				</g>
			</g>
			<path class="st3" d="M414.9,345.5l97.7-0.5c9.9,0,17.8-8.1,17.8-18l-1.2-231.9c0-9.9-8.1-17.8-18-17.8l-97.7,0.5
				c-9.9,0-17.8,8.1-17.8,18l1.2,231.9C397,337.6,405,345.6,414.9,345.5z"/>
			<path class="st4" d="M417.8,342.3l91.8-0.5c9.5,0,17.2-7.8,17.1-17.3l-1.1-227.6c0-9.5-7.8-17.2-17.3-17.1l-91.8,0.5
				c-9.5,0-17.2,7.8-17.1,17.3l1.1,227.6C400.6,334.7,408.4,342.3,417.8,342.3z"/>
			<path class="st1" d="M435.8,334.1l53.5-0.3c0.6,0,1-0.5,1-1l0,0c0-0.6-0.5-1-1-1l-53.5,0.3c-0.6,0-1,0.5-1,1l0,0
				C434.7,333.6,435.2,334.1,435.8,334.1z"/>
			<g>
				<path class="st5" d="M432.1,90.3L493,90c2.8,0,5.2-1.9,5.9-4.5l1.8-6.9L423.9,79l2.3,7.1C427.1,88.6,429.4,90.3,432.1,90.3z"/>
				<g>
					<g>
						
							<ellipse transform="matrix(1 -4.968672e-03 4.968672e-03 1 -0.4107 2.2981)" class="st1" cx="462.3" cy="83.8" rx="3.7" ry="3.7"/>
					</g>
					
						<ellipse transform="matrix(1 -4.985631e-03 4.985631e-03 1 -0.4116 2.3059)" class="st6" cx="462.3" cy="83.7" rx="2.7" ry="2.7"/>
				</g>
			</g>
		</g>
		
			<rect x="410.9" y="101.4" transform="matrix(1 -4.975509e-03 4.975509e-03 1 -1.0521 2.3105)" class="st7" width="105.8" height="222.3"/>
		<path class="st8" d="M498.8,283.4h-70.4c-4.9,0-9-4-9-9v-3.1c0-4.9,4-9,9-9h70.4c4.9,0,9,4,9,9v3.1
			C507.7,279.4,503.7,283.4,498.8,283.4z"/>
		<g>
			<text transform="matrix(1 0 0 1 436.0041 279.7207)" class="st5 st9 st10">ITSHERE</text>
		</g>
		<path class="st8" d="M433.7,155.2h60.5c5.1,0,9.2,4.1,9.2,9.2v75c0,5.1-4.1,9.2-9.2,9.2h-60.5c-5.1,0-9.2-4.1-9.2-9.2v-75
			C424.4,159.4,428.6,155.2,433.7,155.2z"/>
		<path class="st11" d="M483.6,198.1c0,10.9-16.8,29.4-19.7,29.4c-3.3,0-19.7-18.6-19.7-29.4c0-10.9,8.8-19.7,19.7-19.7
			C474.8,178.4,483.6,187.2,483.6,198.1z"/>
	</g>
	<g>
		
			<ellipse transform="matrix(0.9002 -0.4355 0.4355 0.9002 -89.0284 139.5431)" class="st12" cx="259.9" cy="264" rx="21" ry="9.9"/>
		<polygon class="st12" points="241.6,273.9 239.7,270.4 277.2,251.5 278.8,254.8 260.5,273 		"/>
		
			<ellipse transform="matrix(0.9002 -0.4355 0.4355 0.9002 -87.9814 138.7067)" class="st13" cx="258.6" cy="261.3" rx="21" ry="9.9"/>
		
			<ellipse transform="matrix(0.9002 -0.4355 0.4355 0.9002 -87.845 138.7177)" class="st14" cx="258.7" cy="261" rx="18.8" ry="7.9"/>
		<g>
			<g>
				<defs>
					
						<ellipse id="SVGID_1_" transform="matrix(0.6207 -0.7841 0.7841 0.6207 -107.0516 301.683)" cx="258.3" cy="261.5" rx="18.8" ry="7.9"/>
				</defs>
				<clipPath id="SVGID_2_">
					<use xlink:href="#SVGID_1_"  style="overflow:visible;"/>
				</clipPath>
				
					<ellipse transform="matrix(0.9002 -0.4355 0.4355 0.9002 -88.292 139.1836)" class="st15" cx="259.5" cy="262.2" rx="18.8" ry="7.9"/>
			</g>
		</g>
	</g>
	<g>
		<path class="st16" d="M390,300.3c-2.2-2.8-4.6-5.8-7.9-7.2c-3.2-1.4-6.9-1.2-10.5-0.8c-5.2,0.5-10.5,1.4-15.6,2.5
			s-11,2.3-14.9-1.1c-0.6-0.6-1.2-1.3-1.4-2.1c-0.4-1.7,0.8-3.3,2-4.5c3.6-3.4,8.5-5.4,13.4-5.4c1.5,0,3.6-0.4,3.4-1.9
			c-0.1-0.6-0.5-1.1-1-1.5c-2.8-2.2-6.6-2.7-10.2-2.9c-5.8-0.4-11.6-0.3-17.3,0.4c-5,0.5-10.3,1.5-15-0.3c-2.1-0.8-4.2-2.5-4-4.7
			c0.1-1.7,1.6-2.9,2.9-3.8c3.8-2.6,8.2-4.3,12.7-4.9c1.8-0.3,4-0.6,4.7-2.2c0.6-1.3-0.1-2.9-1.2-3.8s-2.6-1.2-4-1.5
			c-11.4-2-23.6,0-34.1-4.9c-2.9-1.4-5.8-3.6-6.7-6.7c-0.8-2.9,0.3-6.1,2.3-8.3c2-2.3,4.7-3.7,7.5-4.8c12-4.6,26-2.6,37.3,3.7
			c11.2,6.3,19.9,16.5,26,27.8c-2-3.4-2.7-7.6-1.8-11.5c0.2-1.1,0.6-2.2,1.4-2.9c1.4-1.3,3.6-1,5.4-0.4c4.6,1.7,8,5.8,10.7,9.9
			c2.9,4.4,5.2,9.1,7.6,13.7c4,7.9,7.9,15.8,11.9,23.7c1.4,2.8,2.8,5.9,2.1,8.9L390,300.3z"/>
		<path class="st17" d="M384,289.9c-0.3,0-0.6-0.1-1-0.5c-1.7-1.7-3.2-3.7-4.7-5.5c-1-1.3-2.1-2.7-3.2-4c-3.1-3.6-6.8-6.7-10.2-9.5
			c-8.7-7.2-20.4-16.2-33.6-22.7c-13.4-6.5-26.6-9.5-39.1-8.9c-0.2,0-0.5-0.2-0.5-0.4c0-0.3,0.2-0.5,0.4-0.5c12.7-0.6,26,2.4,39.6,9
			c13.3,6.5,25.1,15.6,33.8,22.8c3.5,2.9,7.1,6,10.3,9.6c1.1,1.3,2.2,2.7,3.3,4c1.4,1.8,2.9,3.7,4.5,5.4c0.1-0.1,0.2-0.2,0.4-0.2
			c0.3,0,0.7,0.2,0.8,0.5c0.1,0.3,0,0.6-0.2,0.8C384.4,289.9,384.2,289.9,384,289.9z"/>
		<path class="st17" d="M304.1,249.1c-0.1,0-0.3-0.1-0.4-0.2c-0.2-0.2-0.1-0.5,0.1-0.6c4.2-3.4,9.5-5.6,14.8-6.3
			c0.3,0,0.5,0.1,0.5,0.4c0,0.3-0.1,0.5-0.4,0.5c-5.2,0.6-10.3,2.8-14.4,6.1C304.3,249.1,304.2,249.1,304.1,249.1z"/>
		<path class="st17" d="M325.5,244.9c-0.2,0-0.3-0.1-0.4-0.2c-0.4-0.6-0.6-1.3-0.9-1.9c-0.2-0.5-0.3-0.9-0.6-1.4
			c-0.7-1.4-1.8-2.4-2.9-3.5c-2-1.9-4.2-4-6.8-5.1c-0.2-0.1-0.3-0.4-0.2-0.6c0.1-0.2,0.4-0.3,0.6-0.2c2.8,1.2,5.1,3.4,7.1,5.3
			c1.1,1.1,2.3,2.3,3.1,3.8c0.2,0.5,0.4,1,0.6,1.5c0.2,0.6,0.4,1.2,0.8,1.8c0.1,0.2,0.1,0.5-0.2,0.6
			C325.6,244.9,325.6,244.9,325.5,244.9z"/>
		<path class="st17" d="M343.2,254.6c-0.6-1.9-1.3-3.9-2.1-5.7c-0.9-2-2.1-4.3-4-5.7c-0.2-0.2-0.2-0.4-0.1-0.6
			c0.2-0.2,0.4-0.2,0.6-0.1c2.1,1.5,3.3,3.9,4.3,6.1c0.7,1.7,1.4,3.4,2,5.2c0.1,0.1,0.2,0.2,0.2,0.3l0.1,0.4L343.2,254.6z"/>
		<path class="st17" d="M335.1,260.5c-0.2,0-0.4-0.1-0.4-0.3c-0.1-0.2,0.1-0.5,0.3-0.6c6.2-1.6,11.7-1.7,16.3-0.3
			c0.2,0.1,0.4,0.3,0.3,0.6c-0.1,0.2-0.3,0.4-0.6,0.3C346.5,258.9,341.2,259,335.1,260.5C335.2,260.5,335.2,260.5,335.1,260.5z"/>
		<path class="st17" d="M371,275c-0.2,0-0.4-0.2-0.5-0.4c-1.2-8.4-4.1-16.7-8.3-24c-0.1-0.2-0.1-0.5,0.2-0.6
			c0.2-0.1,0.5-0.1,0.6,0.2c4.3,7.4,7.2,15.8,8.4,24.3C371.5,274.7,371.3,275,371,275C371.1,275,371,275,371,275z"/>
		<path class="st17" d="M346.4,290.4c-0.2,0-0.3-0.1-0.4-0.3c-0.1-0.2,0-0.5,0.2-0.6c4.8-2.2,10.3-3.9,17.2-5.2
			c5.1-1,10.5-1.7,15.7-0.4c0.2,0.1,0.4,0.3,0.3,0.6c-0.1,0.2-0.3,0.4-0.6,0.3c-5.1-1.3-10.4-0.6-15.3,0.4c-6.8,1.3-12.2,3-17,5.2
			C346.5,290.4,346.4,290.4,346.4,290.4z"/>
	</g>
	<g>
		<path class="st16" d="M378.2,284.6c-0.1-3.6-0.2-7.4-1.9-10.6c-1.7-3.1-4.8-5.2-7.8-7c-4.5-2.8-9.1-5.3-13.9-7.5
			c-4.7-2.2-10.1-4.8-11.2-9.9c-0.2-0.8-0.2-1.7,0.1-2.5c0.7-1.6,2.6-2.2,4.3-2.3c4.9-0.5,10,0.9,14,3.9c1.2,0.9,3.1,1.8,3.9,0.6
			c0.3-0.5,0.2-1.2,0.1-1.8c-0.9-3.5-3.6-6.2-6.3-8.5c-4.4-3.8-9-7.2-14-10.2c-4.3-2.6-9.1-5.1-11.8-9.4c-1.2-1.9-1.8-4.5-0.3-6.2
			c1.1-1.2,3-1.4,4.7-1.3c4.6,0.2,9.1,1.6,13.1,3.8c1.6,0.9,3.5,2,5.1,1.1c1.3-0.7,1.7-2.4,1.4-3.8c-0.3-1.4-1.3-2.6-2.3-3.6
			c-7.8-8.5-18.8-14.3-24.1-24.6c-1.5-2.9-2.5-6.4-1.3-9.4c1.1-2.8,3.9-4.6,6.8-5.2c2.9-0.6,6-0.1,8.9,0.8
			c12.3,3.7,22.2,13.8,27.3,25.6c5.1,11.8,5.8,25.2,3.7,37.9c0.5-3.9,2.5-7.7,5.5-10.2c0.8-0.7,1.8-1.4,2.9-1.4
			c1.9-0.2,3.5,1.4,4.5,3c2.6,4.2,2.9,9.4,2.5,14.4c-0.4,5.2-1.4,10.4-2.3,15.5c-1.6,8.7-3.3,17.4-4.9,26c-0.6,3.1-1.3,6.4-3.7,8.4
			L378.2,284.6z"/>
		<path class="st17" d="M379.8,272.8c-0.2-0.2-0.4-0.5-0.5-1c-0.3-2.4-0.3-4.9-0.3-7.2c0-1.7,0-3.4-0.2-5.1
			c-0.3-4.8-1.3-9.4-2.3-13.7c-2.6-11-6.3-25.3-13-38.4c-6.7-13.3-15.3-23.7-25.6-30.9c-0.2-0.1-0.3-0.4-0.1-0.6
			c0.1-0.2,0.4-0.3,0.6-0.1c10.4,7.2,19.2,17.7,25.9,31.2c6.7,13.3,10.5,27.6,13,38.6c1,4.4,2,9.1,2.4,13.9c0.1,1.7,0.1,3.5,0.2,5.2
			c0,2.3,0.1,4.7,0.3,7c0.1,0,0.3,0,0.4,0.1c0.3,0.2,0.4,0.6,0.3,0.9s-0.4,0.5-0.7,0.5C380.1,272.9,380,272.9,379.8,272.8z"/>
		<path class="st17" d="M341.1,191.8c-0.1-0.1-0.2-0.2-0.2-0.4c0-0.3,0.2-0.5,0.4-0.5c5.4-0.1,10.9,1.3,15.6,4
			c0.2,0.1,0.3,0.4,0.2,0.6c-0.1,0.2-0.4,0.3-0.6,0.2c-4.5-2.7-9.9-4-15.1-3.9C341.3,191.9,341.2,191.8,341.1,191.8z"/>
		<path class="st17" d="M360.7,201.4c-0.1-0.1-0.2-0.2-0.2-0.4c0.1-0.7,0.3-1.4,0.5-2.1c0.2-0.5,0.3-1,0.4-1.4
			c0.3-1.5,0.1-3-0.2-4.5c-0.4-2.7-0.9-5.7-2.3-8.2c-0.1-0.2-0.1-0.5,0.2-0.6c0.2-0.1,0.5-0.1,0.6,0.2c1.5,2.6,2,5.8,2.4,8.6
			c0.2,1.5,0.5,3.2,0.2,4.9c-0.1,0.5-0.3,1-0.4,1.5c-0.2,0.6-0.4,1.3-0.5,1.9c0,0.3-0.3,0.4-0.5,0.4
			C360.8,201.5,360.7,201.5,360.7,201.4z"/>
		<path class="st17" d="M368.9,219.9c0.7-1.9,1.3-3.9,1.8-5.9c0.5-2.2,1-4.7,0.3-7c-0.1-0.2,0.1-0.5,0.3-0.6
			c0.2-0.1,0.5,0.1,0.6,0.3c0.7,2.5,0.2,5.1-0.3,7.4c-0.4,1.8-1,3.6-1.6,5.3c0,0.1,0,0.2,0,0.4l-0.2,0.4L368.9,219.9z"/>
		<path class="st17" d="M358.8,219.7c-0.2-0.1-0.2-0.3-0.1-0.5s0.4-0.3,0.6-0.2c5.9,2.5,10.3,5.8,13.2,9.7c0.1,0.2,0.1,0.5-0.1,0.6
			s-0.5,0.1-0.6-0.1C368.9,225.3,364.6,222.2,358.8,219.7C358.9,219.7,358.9,219.7,358.8,219.7z"/>
		<path class="st17" d="M378.5,253c-0.2-0.1-0.2-0.4-0.1-0.6c4.1-7.4,6.9-15.7,8-24.1c0-0.3,0.3-0.4,0.5-0.4c0.3,0,0.4,0.3,0.4,0.5
			c-1.1,8.5-3.9,17-8.1,24.4C379.1,253.1,378.8,253.2,378.5,253C378.6,253,378.6,253,378.5,253z"/>
		<path class="st17" d="M349.6,250.3c-0.1-0.1-0.2-0.3-0.2-0.5c0.1-0.2,0.3-0.4,0.5-0.3c5.2,1.1,10.5,3.1,16.8,6.3
			c4.6,2.3,9.4,5,12.7,9.3c0.2,0.2,0.1,0.5-0.1,0.6c-0.2,0.2-0.5,0.1-0.6-0.1c-3.2-4.1-7.9-6.7-12.4-9c-6.2-3.1-11.5-5.1-16.6-6.2
			C349.7,250.4,349.6,250.3,349.6,250.3z"/>
	</g>
	<g>
		<path class="st16" d="M531.7,217.5c1.6-2.6,3.2-5.3,5.9-6.9c2.6-1.5,5.7-1.7,8.6-1.8c4.4-0.1,8.9,0.1,13.3,0.5
			c4.3,0.4,9.4,0.8,12.3-2.4c0.5-0.5,0.9-1.2,1-1.9c0.2-1.4-1-2.7-2.1-3.5c-3.3-2.5-7.6-3.6-11.8-3.1c-1.2,0.1-3,0-3.1-1.2
			c0-0.5,0.3-1,0.7-1.3c2.1-2.1,5.2-2.9,8.2-3.5c4.8-0.9,9.6-1.4,14.5-1.5c4.3-0.1,8.7,0.1,12.5-1.9c1.6-0.9,3.2-2.5,2.8-4.3
			c-0.3-1.4-1.6-2.3-2.8-2.9c-3.4-1.8-7.3-2.7-11.1-2.8c-1.5,0-3.4-0.1-4.2-1.4c-0.6-1-0.2-2.4,0.6-3.3c0.8-0.9,2-1.3,3.2-1.7
			c9.3-2.9,19.7-2.5,27.9-7.7c2.3-1.5,4.5-3.6,4.9-6.3c0.4-2.5-0.9-5-2.8-6.7c-1.9-1.7-4.3-2.6-6.8-3.2c-10.5-2.5-21.9,0.6-30.6,7
			c-8.7,6.4-14.9,15.8-18.7,25.9c1.3-3.1,1.4-6.6,0.3-9.8c-0.3-0.9-0.7-1.7-1.5-2.3c-1.3-0.9-3.1-0.5-4.5,0.2
			c-3.7,1.9-6.1,5.6-7.9,9.4c-1.9,3.9-3.4,8.1-4.9,12.2c-2.5,7-5,14-7.4,21c-0.9,2.5-1.8,5.2-0.8,7.6L531.7,217.5z"/>
		<path class="st17" d="M535.5,208.2c0.2,0,0.5-0.2,0.8-0.5c1.2-1.6,2.3-3.4,3.3-5.1c0.7-1.2,1.5-2.5,2.3-3.7c2.2-3.3,4.9-6.3,7.5-9
			c6.5-6.9,15.3-15.6,25.7-22.4c10.5-6.8,21.2-10.7,31.7-11.5c0.2,0,0.4-0.2,0.4-0.4s-0.2-0.4-0.4-0.4c-10.6,0.8-21.4,4.8-32,11.7
			c-10.4,6.8-19.3,15.6-25.8,22.5c-2.6,2.7-5.3,5.7-7.6,9.1c-0.8,1.2-1.6,2.5-2.3,3.7c-1,1.7-2,3.4-3.2,5c-0.1-0.1-0.2-0.1-0.3-0.1
			c-0.3,0-0.5,0.3-0.6,0.5c-0.1,0.3,0.1,0.5,0.3,0.6C535.2,208.2,535.4,208.3,535.5,208.2z"/>
		<path class="st17" d="M597.8,165.8c0.1,0,0.2-0.1,0.3-0.2c0.1-0.2,0.1-0.4-0.1-0.5c-3.9-2.4-8.5-3.7-13-3.7
			c-0.2,0-0.4,0.2-0.4,0.4s0.2,0.4,0.4,0.4c4.4,0,8.9,1.2,12.6,3.5C597.7,165.8,597.8,165.9,597.8,165.8z"/>
		<path class="st17" d="M579.6,164.6c0.1,0,0.2-0.1,0.3-0.2c0.2-0.6,0.4-1.1,0.5-1.7c0.1-0.4,0.2-0.8,0.3-1.2c0.4-1.2,1.2-2.2,2-3.2
			c1.4-1.8,3.1-3.8,5.2-5c0.2-0.1,0.2-0.3,0.1-0.5c-0.1-0.2-0.3-0.2-0.5-0.1c-2.2,1.3-3.9,3.3-5.4,5.2c-0.8,1-1.7,2.1-2.2,3.5
			c-0.1,0.4-0.2,0.9-0.3,1.3c-0.1,0.6-0.2,1.1-0.5,1.6c-0.1,0.2,0,0.4,0.2,0.5C579.5,164.6,579.5,164.6,579.6,164.6z"/>
		<path class="st17" d="M565.8,174.5c0.3-1.7,0.7-3.4,1.2-5c0.5-1.8,1.3-3.8,2.7-5.2c0.2-0.1,0.2-0.4,0-0.5c-0.1-0.2-0.4-0.2-0.5,0
			c-1.6,1.5-2.4,3.6-2.9,5.5c-0.4,1.5-0.8,3-1.1,4.5c-0.1,0.1-0.1,0.2-0.1,0.3v0.4H565.8z"/>
		<path class="st17" d="M573.2,178.6c0.2,0,0.3-0.2,0.3-0.3c0-0.2-0.1-0.4-0.3-0.4c-5.3-0.7-9.9-0.2-13.6,1.4
			c-0.2,0.1-0.3,0.3-0.2,0.5s0.3,0.3,0.5,0.2C563.5,178.4,567.9,178,573.2,178.6C573.1,178.6,573.2,178.6,573.2,178.6z"/>
		<path class="st17" d="M544.8,194.4c0.2,0,0.3-0.2,0.3-0.4c0.1-7.1,1.7-14.3,4.4-20.9c0.1-0.2,0-0.4-0.2-0.5s-0.4,0-0.5,0.2
			c-2.8,6.6-4.3,13.9-4.5,21.1C544.4,194.3,544.6,194.4,544.8,194.4L544.8,194.4z"/>
		<path class="st17" d="M567,204.7c0.1,0,0.3-0.1,0.3-0.3c0.1-0.2,0-0.4-0.2-0.5c-4.2-1.4-9-2.2-14.9-2.6c-4.3-0.3-8.9-0.3-13.1,1.3
			c-0.2,0.1-0.3,0.3-0.2,0.5s0.3,0.3,0.5,0.2c4.1-1.6,8.6-1.6,12.8-1.3c5.8,0.4,10.5,1.2,14.7,2.5
			C566.8,204.7,566.9,204.7,567,204.7z"/>
	</g>
	<path class="st18" d="M407.8,171.7c2.7,1.7,5.4,3.6,8,5.5c0.1,0.1,0.3,0.2,0.5,0.2s0.5-0.1,0.7-0.3c0.3-0.4,0.2-0.9-0.2-1.1
		c-2.6-2-5.3-3.8-8.1-5.6c-0.4-0.2-0.9-0.1-1.1,0.3C407.3,171,407.4,171.5,407.8,171.7z"/>
	<path class="st18" d="M390.6,162.8c3,1.2,5.9,2.6,8.8,4.1c0.1,0.1,0.2,0.1,0.4,0.1c0.3,0,0.6-0.2,0.7-0.4c0.2-0.4,0.1-0.9-0.3-1.1
		c-2.9-1.5-5.9-2.9-8.9-4.2c-0.4-0.2-0.9,0-1.1,0.4S390.2,162.6,390.6,162.8z"/>
	<path class="st18" d="M353.1,153.9c3.2,0.2,6.5,0.6,9.6,1.1h0.1c0.4,0,0.7-0.3,0.8-0.7c0.1-0.4-0.2-0.9-0.7-0.9
		c-3.2-0.5-6.5-0.8-9.8-1.1c-0.4,0-0.8,0.3-0.9,0.8C352.3,153.4,352.6,153.8,353.1,153.9z"/>
	<path class="st18" d="M372.2,156.8c3.1,0.7,6.3,1.6,9.3,2.6c0.1,0,0.2,0,0.3,0c0.3,0,0.7-0.2,0.8-0.6c0.1-0.4-0.1-0.9-0.5-1
		c-3.1-1-6.3-1.9-9.5-2.7c-0.4-0.1-0.9,0.2-1,0.6C371.5,156.2,371.8,156.6,372.2,156.8z"/>
	<path class="st18" d="M430.2,190.1c0.2,0.2,0.4,0.3,0.6,0.3s0.4-0.1,0.6-0.2c0.3-0.3,0.3-0.8,0-1.1c-2.2-2.4-4.6-4.7-7.1-6.8
		c-0.3-0.3-0.8-0.3-1.1,0.1c-0.3,0.3-0.3,0.8,0.1,1.1C425.7,185.5,428,187.8,430.2,190.1z"/>
	<path class="st18" d="M228.2,292.3h0.1c0.4-0.1,0.7-0.5,0.7-0.9c-0.6-3.2-1-6.4-1.3-9.6c0-0.4-0.4-0.8-0.9-0.7
		c-0.4,0-0.8,0.4-0.7,0.9c0.3,3.3,0.7,6.5,1.3,9.7C227.5,292,227.9,292.3,228.2,292.3z"/>
	<path class="st18" d="M333.6,154.1C333.7,154.1,333.7,154.1,333.6,154.1c3.3-0.3,6.5-0.5,9.8-0.5c0.4,0,0.8-0.4,0.8-0.8
		c0-0.4-0.4-0.8-0.8-0.8c-3.3,0-6.6,0.2-9.8,0.5c-0.4,0-0.8,0.4-0.7,0.9C332.9,153.8,333.2,154.1,333.6,154.1z"/>
	<path class="st18" d="M227.8,253.4h0.1c0.4,0,0.7-0.3,0.8-0.7c0.5-3.2,1.1-6.4,1.9-9.5c0.1-0.4-0.2-0.9-0.6-1
		c-0.4-0.1-0.9,0.2-1,0.6c-0.8,3.2-1.4,6.4-1.9,9.6C227,252.9,227.3,253.3,227.8,253.4z"/>
	<path class="st18" d="M232.2,234.4c0.1,0,0.2,0,0.3,0c0.3,0,0.7-0.2,0.8-0.6c1-3.1,2.2-6.1,3.4-9.1c0.2-0.4,0-0.9-0.4-1.1
		c-0.4-0.2-0.9,0-1.1,0.4c-1.3,3-2.5,6.1-3.5,9.2C231.6,233.8,231.8,234.3,232.2,234.4z"/>
	<path class="st18" d="M226.5,272.8L226.5,272.8c0.5,0,0.8-0.4,0.8-0.8c0-0.3,0-0.7,0-1c0-2.9,0.1-5.8,0.3-8.6
		c0-0.4-0.3-0.8-0.8-0.9c-0.5,0-0.8,0.3-0.9,0.8c-0.2,2.9-0.3,5.8-0.3,8.8c0,0.4,0,0.7,0,1.1C225.7,272.5,226,272.8,226.5,272.8z"/>
	<path class="st18" d="M239.8,216.4c0.1,0.1,0.3,0.1,0.4,0.1c0.3,0,0.6-0.2,0.7-0.4c1.5-2.8,3.2-5.7,4.9-8.4
		c0.2-0.4,0.1-0.9-0.2-1.1c-0.4-0.2-0.9-0.1-1.1,0.2c-1.8,2.7-3.4,5.6-5,8.5C239.3,215.7,239.4,216.2,239.8,216.4z"/>
	<path class="st18" d="M279.1,173.5c0.2,0,0.3,0,0.5-0.1c2.7-1.8,5.5-3.5,8.3-5c0.4-0.2,0.5-0.7,0.3-1.1c-0.2-0.4-0.7-0.5-1.1-0.3
		c-2.8,1.6-5.7,3.3-8.4,5.1c-0.4,0.2-0.5,0.8-0.2,1.1C278.5,173.4,278.8,173.5,279.1,173.5z"/>
	<path class="st18" d="M314.4,157.5c0.1,0,0.1,0,0.2,0c3.1-0.8,6.3-1.5,9.5-2.1c0.4-0.1,0.7-0.5,0.7-0.9c-0.1-0.4-0.5-0.7-0.9-0.7
		c-3.2,0.6-6.4,1.3-9.6,2.1c-0.4,0.1-0.7,0.6-0.6,1C313.8,157.3,314.1,157.5,314.4,157.5z"/>
	<path class="st18" d="M250.7,200.1c0.2,0,0.5-0.1,0.6-0.3c2-2.6,4-5.1,6.2-7.4c0.3-0.3,0.3-0.8-0.1-1.1c-0.3-0.3-0.8-0.3-1.1,0.1
		c-2.2,2.4-4.3,5-6.3,7.6c-0.3,0.4-0.2,0.9,0.2,1.1C250.4,200.1,250.5,200.1,250.7,200.1z"/>
	<path class="st18" d="M296.1,164.1c0.1,0,0.2,0,0.3-0.1c2.9-1.3,6-2.5,9-3.6c0.4-0.2,0.6-0.6,0.5-1c-0.2-0.4-0.6-0.6-1-0.5
		c-3.1,1.1-6.1,2.3-9.1,3.7c-0.4,0.2-0.6,0.7-0.4,1.1C295.5,163.9,295.8,164.1,296.1,164.1z"/>
	<path class="st18" d="M263.8,185.7c0.2,0,0.4-0.1,0.6-0.2c2.3-2.2,4.8-4.3,7.3-6.3c0.4-0.3,0.4-0.8,0.1-1.1
		c-0.3-0.4-0.8-0.4-1.1-0.1c-2.5,2-5.1,4.2-7.4,6.4c-0.3,0.3-0.3,0.8,0,1.1C263.4,185.6,263.6,185.7,263.8,185.7z"/>
	<g>
		<g>
			
				<ellipse transform="matrix(0.665 -0.7469 0.7469 0.665 8.4059 370.5342)" class="st12" cx="417.2" cy="175.9" rx="10.8" ry="22.9"/>
			<polygon class="st12" points="399.5,161.7 402.3,158.3 437,188.1 434.3,191.1 408.4,180.3 			"/>
			
				<ellipse transform="matrix(0.665 -0.7469 0.7469 0.665 10.9676 371.3755)" class="st13" cx="419.4" cy="173.5" rx="10.8" ry="22.9"/>
			
				<ellipse transform="matrix(0.665 -0.7469 0.7469 0.665 11.0551 371.6139)" class="st14" cx="419.7" cy="173.5" rx="8.6" ry="20.4"/>
			<g>
				<g>
					<defs>
						
							<ellipse id="SVGID_3_" transform="matrix(0.9933 -0.1156 0.1156 0.9933 -17.2222 49.5475)" cx="418.5" cy="173.2" rx="20.4" ry="8.6"/>
					</defs>
					<clipPath id="SVGID_4_">
						<use xlink:href="#SVGID_3_"  style="overflow:visible;"/>
					</clipPath>
					
						<ellipse transform="matrix(0.665 -0.7469 0.7469 0.665 9.7659 371.3727)" class="st19" cx="418.8" cy="174.8" rx="8.6" ry="20.4"/>
				</g>
			</g>
		</g>
		<g>
			<g>
				<path class="st12" d="M418.1,166.4c-2.1-1.4-4.2-2.3-5.6-0.9c-1.2,1.3-0.3,3.4,1.2,4.7c1.6,1.5,3,1.8,5.1,1.3
					c3.1-0.8,5.7-0.8,8.5,1.8c3.1,2.9,3.5,6.3,1.8,8.2c-1.1,1.2-2.7,1.7-3.6,2c-0.7-0.5-2.8-2-4.3-3.2l0.3-0.7
					c2.5,1.6,5.2,2.6,6.8,1c1.1-1.2,0.8-3.1-1.2-5c-1.6-1.5-3.4-2.2-5.7-1.7c-3.4,0.7-5.6,0.5-8.2-1.9c-2.5-2.3-3.4-5.4-1.4-7.6
					c1.1-1.1,2-1.4,2.7-1.9c1.1,0.9,2.3,1.8,3.9,3.1L418.1,166.4z M409.7,162.7l0.6-0.6l21.3,22l-0.6,0.6L409.7,162.7z"/>
			</g>
		</g>
	</g>
	<g>
		<g>
			
				<ellipse transform="matrix(0.998 -6.355780e-02 6.355780e-02 0.998 -9.1121 22.5643)" class="st12" cx="350.1" cy="154.5" rx="27.5" ry="13"/>
			<polygon class="st12" points="323,157.6 322.4,152.4 377.3,147.9 377.6,152.8 346.4,165.8 			"/>
			
				<ellipse transform="matrix(0.998 -6.355611e-02 6.355611e-02 0.998 -8.8642 22.5432)" class="st13" cx="349.9" cy="150.6" rx="27.5" ry="13"/>
			
				<ellipse transform="matrix(0.998 -6.355831e-02 6.355831e-02 0.998 -8.8453 22.5561)" class="st14" cx="350.1" cy="150.3" rx="24.6" ry="10.4"/>
			<g>
				<g>
					<defs>
						
							<ellipse id="SVGID_5_" transform="matrix(0.9919 -0.1269 0.1269 0.9919 -16.2441 45.614)" cx="350" cy="150.3" rx="24.6" ry="10.4"/>
					</defs>
					<clipPath id="SVGID_6_">
						<use xlink:href="#SVGID_5_"  style="overflow:visible;"/>
					</clipPath>
					
						<ellipse transform="matrix(0.998 -6.355616e-02 6.355616e-02 0.998 -8.9649 22.5846)" class="st20" cx="350.5" cy="152.2" rx="24.6" ry="10.4"/>
				</g>
			</g>
		</g>
		<g>
			<g>
				<path class="st12" d="M342.8,145.7c-2.9,0.6-5.6,1.6-5.5,4.1c0,2.1,2.7,3.1,5.1,3c2.6-0.1,4-1,5.5-3.2c2-3.3,4.2-5.6,8.8-5.8
					c5.1-0.2,8.4,2.3,8.5,5.4c0.1,2-0.8,3.7-1.4,4.8c-1.1,0.2-4.1,0.7-6.4,1l-0.4-1c3.5-0.8,6.7-2.3,6.6-4.9c-0.1-1.9-2-3.3-5.3-3.2
					c-2.6,0.1-4.7,1-6.2,3.4c-2.2,3.5-4.4,5.2-8.6,5.4c-4.1,0.1-7.6-1.7-7.7-5.2c-0.1-1.9,0.5-2.9,0.7-3.9c1.7-0.2,3.6-0.4,6-0.8
					L342.8,145.7z M332.4,149.8v-1l36.9,0.4v1L332.4,149.8z"/>
			</g>
		</g>
	</g>
	<g>
		<g>
			
				<ellipse transform="matrix(0.5688 -0.8225 0.8225 0.5688 -39.844 303.237)" class="st12" cx="269.3" cy="189.6" rx="27.5" ry="13"/>
			<polygon class="st12" points="254.9,212.9 250.4,210.1 281,164.2 285,167 275.9,199.5 			"/>
			
				<ellipse transform="matrix(0.5688 -0.8225 0.8225 0.5688 -39.3698 299.6493)" class="st13" cx="266.1" cy="187.4" rx="27.5" ry="13"/>
			
				<ellipse transform="matrix(0.5688 -0.8225 0.8225 0.5688 -39.115 299.4271)" class="st14" cx="266" cy="187" rx="24.6" ry="10.4"/>
			<g>
				<g>
					<defs>
						
							<ellipse id="SVGID_7_" transform="matrix(0.9356 -0.353 0.353 0.9356 -49.5182 106.055)" cx="266" cy="188.8" rx="10.4" ry="24.6"/>
					</defs>
					<clipPath id="SVGID_8_">
						<use xlink:href="#SVGID_7_"  style="overflow:visible;"/>
					</clipPath>
					
						<ellipse transform="matrix(0.5688 -0.8225 0.8225 0.5688 -39.1047 301.2399)" class="st21" cx="267.7" cy="187.9" rx="24.6" ry="10.4"/>
				</g>
			</g>
		</g>
		<g>
			<g>
				<path class="st12" d="M257.8,189.9c-1.3,2.7-2.2,5.4-0.2,6.9c1.7,1.3,4.1-0.2,5.5-2.1c1.5-2.1,1.7-3.8,0.9-6.3
					c-1.4-3.6-1.8-6.8,0.9-10.5c3-4.1,7.1-5.2,9.5-3.4c1.6,1.1,2.4,2.9,2.9,4.1c-0.5,0.9-2,3.6-3.2,5.6l-0.9-0.2
					c1.6-3.3,2.4-6.7,0.2-8.2c-1.6-1.1-3.8-0.4-5.8,2.2c-1.6,2.1-2.1,4.3-1.2,7c1.3,3.9,1.4,6.7-1.1,10.1c-2.4,3.3-6,4.9-8.9,2.8
					c-1.5-1.1-2-2.1-2.6-3c0.9-1.5,1.9-3.1,3.1-5.1L257.8,189.9z M254.6,200.6l-0.8-0.6l23.1-28.7l0.8,0.6L254.6,200.6z"/>
			</g>
		</g>
	</g>
	<g>
		<g>
			<path class="st12" d="M240.7,226.7c7.5-0.3,13.4,12,13.1,27.6c-0.3,15.5-6.6,28.4-14.1,28.8c-7.5,0.3-13.4-12-13.1-27.6
				C226.9,239.9,233.2,227,240.7,226.7z"/>
			<polygon class="st12" points="241.2,282.7 235.6,283.2 235.6,226.9 240.7,226.7 251.6,258.8 			"/>
			<path class="st13" d="M236.6,226.9c7.5-0.3,13.4,12,13.1,27.6c-0.3,15.5-6.6,28.4-14.1,28.8c-7.5,0.3-13.4-12-13.1-27.6
				C222.8,240.1,229.1,227.2,236.6,226.9z"/>
			<path class="st14" d="M236.3,229.6c6-0.3,10.6,10.8,10.4,24.7c-0.2,13.9-5.3,25.4-11.3,25.6c-6,0.3-10.6-10.8-10.4-24.7
				C225.2,241.3,230.3,229.8,236.3,229.6z"/>
			<g>
				<g>
					<defs>
						<path id="SVGID_9_" d="M236.3,229.6c6-0.3,10.6,10.8,10.4,24.7c-0.2,13.9-5.3,25.4-11.3,25.6c-6,0.3-10.6-10.8-10.4-24.7
							C225.2,241.3,230.3,229.8,236.3,229.6z"/>
					</defs>
					<clipPath id="SVGID_10_">
						<use xlink:href="#SVGID_9_"  style="overflow:visible;"/>
					</clipPath>
					<path class="st22" d="M238.2,229.2c6-0.3,10.6,10.8,10.4,24.7c-0.2,13.9-5.3,25.4-11.3,25.6c-6,0.3-10.6-10.8-10.4-24.7
						C227.2,241,232.3,229.5,238.2,229.2z"/>
				</g>
			</g>
		</g>
		<g>
			<g>
				<path class="st12" d="M230.3,262.2c0.4,3,1.3,5.7,3.8,5.7c2.2,0,3.4-2.7,3.5-5.1c0.1-2.7-0.7-4.2-2.9-5.6
					c-3.3-2.1-5.5-4.4-5.3-9.1c0.2-5.2,3.1-8.6,6.3-8.6c2.1-0.1,3.8,0.9,4.9,1.5c0.1,1.1,0.3,4.2,0.5,6.5l-0.9,0.4
					c-0.5-3.6-1.8-6.9-4.6-6.9c-2,0.1-3.6,2-3.7,5.4c-0.1,2.7,0.7,4.8,3.1,6.4c3.4,2.4,5.1,4.6,4.9,8.9c-0.2,4.2-2.4,7.7-6.1,7.8
					c-2,0-3-0.5-4-0.8c-0.1-1.8-0.2-3.6-0.3-6.1L230.3,262.2z M233.8,272.9h-1l3.5-37.7h1.1L233.8,272.9z"/>
			</g>
		</g>
	</g>
	<g>
		<g>
			<path class="st12" d="M170.5,197.4c5.7-4.9,17.9,1.1,27.4,13.4c9.5,12.3,12.6,26.3,6.9,31.2c-5.7,4.9-17.9-1.1-27.4-13.4
				S164.8,202.3,170.5,197.4z"/>
			<polygon class="st12" points="205.7,240.9 201.7,244.7 166.7,200.7 170.5,197.4 199.1,215.7 			"/>
			<path class="st13" d="M167.4,200.1c5.7-4.9,17.9,1.1,27.4,13.4c9.5,12.3,12.6,26.3,6.9,31.2c-5.7,4.9-17.9-1.1-27.4-13.4
				C164.8,219,161.7,205,167.4,200.1z"/>
			<path class="st14" d="M168.8,202.4c4.5-3.9,15,1.8,23.5,12.8s11.7,23.1,7.2,27.1c-4.5,3.9-15-1.8-23.5-12.8
				S164.3,206.3,168.8,202.4z"/>
			<g>
				<g>
					<defs>
						<path id="SVGID_11_" d="M168.8,202.4c4.5-3.9,15,1.8,23.5,12.8s11.7,23.1,7.2,27.1c-4.5,3.9-15-1.8-23.5-12.8
							S164.3,206.3,168.8,202.4z"/>
					</defs>
					<clipPath id="SVGID_12_">
						<use xlink:href="#SVGID_11_"  style="overflow:visible;"/>
					</clipPath>
					<path class="st23" d="M170.2,200.9c4.5-3.9,15,1.8,23.5,12.8s11.7,23.1,7.2,27.1c-4.5,3.9-15-1.8-23.5-12.8
						C168.8,216.9,165.6,204.8,170.2,200.9z"/>
				</g>
			</g>
		</g>
		<g>
			<g>
				<path class="st12" d="M184.5,231.6c2.2,2.1,4.5,3.7,6.5,2.1c1.8-1.4,1-4.2-0.4-6.2c-1.6-2.2-3.2-2.8-5.8-2.6
					c-3.9,0.4-7,0-9.8-3.9c-3.1-4.2-2.9-8.7-0.5-10.7c1.6-1.3,3.5-1.7,4.8-1.9c0.8,0.8,2.9,3.1,4.4,4.8l-0.5,0.9
					c-2.7-2.5-5.7-4.3-7.9-2.5c-1.5,1.3-1.5,3.8,0.4,6.5c1.6,2.2,3.6,3.3,6.4,3.1c4.2-0.3,6.8,0.4,9.3,3.9c2.5,3.4,2.9,7.5,0.1,9.9
					c-1.5,1.2-2.6,1.4-3.6,1.9c-1.2-1.3-2.4-2.8-4-4.6L184.5,231.6z M193.9,237.8l-0.8,0.6l-20.8-31.7l0.8-0.7L193.9,237.8z"/>
			</g>
		</g>
	</g>
	<g>
		<g>
			
				<ellipse transform="matrix(0.8351 -0.5501 0.5501 0.8351 -38.2957 173.0713)" class="st12" cx="269.5" cy="150.4" rx="18.8" ry="8.9"/>
			<polygon class="st12" points="254.5,161.4 252.3,158.5 283.4,137.2 285.3,140 271.2,158.3 			"/>
			
				<ellipse transform="matrix(0.8351 -0.5501 0.5501 0.8351 -37.2928 171.8562)" class="st13" cx="268" cy="148.1" rx="18.8" ry="8.9"/>
			
				<ellipse transform="matrix(0.8351 -0.5501 0.5501 0.8351 -37.1095 171.8453)" class="st14" cx="268.1" cy="147.8" rx="16.8" ry="7.1"/>
			<g>
				<g>
					<defs>
						
							<ellipse id="SVGID_13_" transform="matrix(0.3948 -0.9188 0.9188 0.3948 25.5713 335.7971)" cx="267.7" cy="148.5" rx="16.8" ry="7.1"/>
					</defs>
					<clipPath id="SVGID_14_">
						<use xlink:href="#SVGID_13_"  style="overflow:visible;"/>
					</clipPath>
					
						<ellipse transform="matrix(0.8351 -0.5501 0.5501 0.8351 -37.4998 172.5025)" class="st24" cx="269" cy="148.8" rx="16.8" ry="7.1"/>
				</g>
			</g>
		</g>
		<g>
			<g>
				<path class="st12" d="M262.1,147.6c-1.5,1.4-2.7,2.9-1.9,4.3c0.7,1.3,2.6,0.9,4,0.1c1.5-0.9,2.1-2,2.2-3.8
					c0.1-2.6,0.6-4.8,3.3-6.4c3-1.8,5.8-1.5,6.9,0.3c0.7,1.1,0.8,2.5,0.8,3.3c-0.6,0.5-2.2,1.8-3.5,2.7l-0.5-0.4
					c1.8-1.7,3.2-3.6,2.2-5.2c-0.7-1.1-2.3-1.3-4.2-0.1c-1.5,1-2.4,2.2-2.5,4.2c-0.2,2.8-0.8,4.6-3.3,6.1c-2.4,1.5-5.1,1.6-6.4-0.5
					c-0.7-1.1-0.7-1.9-0.9-2.6c0.9-0.7,2-1.5,3.3-2.5L262.1,147.6z M257.4,153.5L257,153l22-12.3l0.4,0.6L257.4,153.5z"/>
			</g>
		</g>
	</g>
	<path class="st25" d="M175.2,131.6c-3.8,5.1-7.4,10.8-7.8,17.2c-0.2,2.8,0.3,5.8,1.8,8.2c3,4.6,9.6,5.9,14.8,4.1
		c5.2-1.9,9.1-6.2,11.8-11c3.7-6.5,5.6-13.9,6.7-21.4c0.6-4,0.9-8.4-1.3-11.9C193.3,104.3,179.2,126.2,175.2,131.6z"/>
	<ellipse class="st25" cx="190.5" cy="87.8" rx="12.8" ry="7.9"/>
	
		<ellipse transform="matrix(0.9187 -0.3949 0.3949 0.9187 -120.4797 147.8391)" class="st0" cx="298.9" cy="366.6" rx="60.2" ry="50"/>
	<g>
		<g>
			<g>
				<g>
					<path class="st25" d="M204.6,129.6c-0.7-1.7-0.7-3.4,0-5s2.1-2.9,4.3-3.8s4.1-1.1,5.8-0.5s2.9,1.8,3.6,3.5l0.6,1.5
						c0.7,1.7,0.7,3.4,0,5s-2.1,2.9-4.3,3.8c-2.2,0.9-4.1,1.1-5.8,0.5s-2.9-1.8-3.6-3.5L204.6,129.6z M209.4,129.4
						c0.3,0.8,0.8,1.3,1.5,1.6s1.5,0.3,2.3-0.1c0.8-0.4,1.4-0.9,1.6-1.6c0.2-0.7,0.2-1.5-0.1-2.2l-0.6-1.5c-0.3-0.8-0.8-1.3-1.5-1.7
						c-0.7-0.3-1.5-0.3-2.3,0c-0.8,0.4-1.4,0.9-1.6,1.6c-0.2,0.7-0.2,1.5,0.1,2.2L209.4,129.4z M221.4,147.4l-3.7-0.2l5.8-29
						l3.7,0.2L221.4,147.4z M226.5,139.4c-0.7-1.7-0.7-3.4,0-5s2.2-2.9,4.3-3.8c2.2-0.9,4.1-1.1,5.8-0.5s2.9,1.8,3.6,3.5l0.6,1.5
						c0.7,1.7,0.7,3.4,0,5s-2.1,2.9-4.3,3.8c-2.2,0.9-4.1,1.1-5.8,0.5s-2.9-1.8-3.6-3.5L226.5,139.4z M231.3,139.2
						c0.3,0.8,0.8,1.3,1.6,1.6c0.7,0.3,1.5,0.3,2.3,0c0.9-0.4,1.5-0.9,1.7-1.6c0.2-0.7,0.1-1.4-0.2-2.2l-0.6-1.5
						c-0.3-0.7-0.8-1.3-1.5-1.6s-1.5-0.3-2.3,0c-0.9,0.4-1.4,0.9-1.6,1.6c-0.2,0.7-0.2,1.5,0.1,2.2L231.3,139.2z"/>
				</g>
			</g>
		</g>
	</g>
	<g>
		<g>
			<path class="st25" d="M402.8,356.4c0.8-1.7,2.1-2.7,3.8-3.2c1.7-0.5,3.6-0.3,5.7,0.8c2.1,1.1,3.5,2.4,4.1,4.1s0.5,3.3-0.3,5
				l-0.7,1.5c-0.8,1.6-2.1,2.7-3.8,3.2c-1.7,0.5-3.6,0.2-5.7-0.8c-2.1-1.1-3.5-2.4-4.1-4.1s-0.5-3.3,0.3-5L402.8,356.4z
				 M406.1,359.9c-0.4,0.7-0.5,1.5-0.3,2.2s0.7,1.3,1.5,1.7c0.8,0.4,1.6,0.5,2.3,0.2c0.7-0.3,1.2-0.8,1.6-1.5l0.7-1.5
				c0.4-0.7,0.5-1.5,0.3-2.2s-0.7-1.3-1.5-1.7c-0.8-0.4-1.6-0.5-2.3-0.2c-0.7,0.3-1.2,0.8-1.6,1.6L406.1,359.9z M400.2,380.7
				l-2.3-2.9l25.9-14.4l2.3,2.9L400.2,380.7z M409.5,379.4c0.8-1.6,2.1-2.7,3.8-3.2c1.7-0.5,3.6-0.2,5.7,0.8
				c2.1,1.1,3.4,2.4,4.1,4.1c0.6,1.7,0.5,3.3-0.3,5l-0.7,1.5c-0.8,1.7-2.1,2.7-3.8,3.3c-1.7,0.5-3.6,0.2-5.7-0.8
				c-2.1-1.1-3.5-2.4-4.1-4.1s-0.5-3.4,0.3-5L409.5,379.4z M412.8,382.9c-0.4,0.7-0.4,1.5-0.2,2.2c0.2,0.8,0.7,1.3,1.5,1.7
				c0.9,0.5,1.7,0.5,2.3,0.3c0.6-0.3,1.2-0.8,1.6-1.6l0.7-1.5c0.4-0.7,0.5-1.5,0.3-2.2s-0.7-1.3-1.5-1.7c-0.8-0.4-1.6-0.5-2.3-0.2
				c-0.7,0.3-1.2,0.8-1.6,1.5L412.8,382.9z"/>
		</g>
	</g>
	<g>
		<ellipse class="st26" cx="569.9" cy="93.7" rx="12.6" ry="12.7"/>
		<ellipse class="st13" cx="568.4" cy="93.3" rx="12.6" ry="12.7"/>
		<circle class="st27" cx="568.7" cy="93.5" r="11"/>
		<g>
			<g>
				<path class="st12" d="M564,96.5c0.6,1.5,1.8,2.8,4.6,2.9c2.4,0,3.5-1.2,3.5-2.4c-0.1-1.3-1.1-2-3.6-2.8
					c-3.7-1.1-6.3-2.2-6.4-4.5c-0.1-2.5,2.8-4.1,6.2-4.1c2.2,0,4.2,0.5,5.4,0.8c0.2,0.5,0.7,2.1,1,3.2l-1,0.2
					c-0.8-1.8-2.5-3.4-5.5-3.4c-2.2,0-3.7,0.9-3.7,2.5c0.1,1.3,1.1,2.4,3.8,3.2c3.9,1.2,5.8,2.3,5.9,4.4c0.1,2-2,3.7-6.1,3.7
					c-2.1,0-3.3-0.3-4.4-0.5c-0.2-0.9-0.4-1.8-0.7-3L564,96.5z M568.5,101.8h-1.1l1.1-18.3h1.2L568.5,101.8z"/>
			</g>
		</g>
	</g>
	<path class="st25" d="M332.1,92.6L256,122.9c-1.1,0.4-2.3-0.1-2.8-1.2l0,0c-0.4-1.1,0.1-2.3,1.2-2.8l76.1-30.3
		c1.1-0.4,2.3,0.1,2.8,1.2l0,0C333.7,90.9,333.1,92.1,332.1,92.6z"/>
	<path class="st25" d="M465.3,394L465.3,394c-0.8,1.3-2.5,1.6-3.8,0.8l-13.8-9.1c-1.3-0.8-1.6-2.5-0.8-3.8l0,0
		c0.8-1.3,2.5-1.6,3.8-0.8l13.8,9.1C465.8,391,466.2,392.7,465.3,394z"/>
	<path class="st25" d="M246.1,99.9h-1.7c-6.3,0-11.4-5.1-11.4-11.4l0,0c0-6.3,5.1-11.4,11.4-11.4h1.7c6.3,0,11.4,5.1,11.4,11.4l0,0
		C257.4,94.8,252.3,99.9,246.1,99.9z"/>
	<g>
		<g>
			<g>
				<path class="st28" d="M348.7,356.5l-135,46.3c-4.1,1.4-8.7-0.8-10.1-4.9l-32.3-94.2c-1.4-4.1,0.8-8.7,4.9-10.1l135-46.3
					c4.1-1.4,8.7,0.8,10.1,4.9l32.3,94.2C355,350.6,352.8,355.1,348.7,356.5z"/>
				<path class="st29" d="M313.8,252.5l-135.3,46.4c-0.9,0.3-1.9-0.2-2.2-1.1l0,0c-0.3-0.9,0.2-1.9,1.1-2.2l135.3-46.4
					c0.9-0.3,1.9,0.2,2.2,1.1l0,0C315.2,251.2,314.7,252.2,313.8,252.5z"/>
				<polygon class="st29" points="312.1,252.5 313.8,252.5 316.3,253.4 318.3,256.8 350.4,348.5 349.5,353.1 345.4,356.8 
					350.4,354.8 353.6,349.5 319.9,252.7 317.3,249.1 312.7,249.2 				"/>
			</g>
			<g>
				<g>
					
						<rect x="176.9" y="303.4" transform="matrix(0.9465 -0.3228 0.3228 0.9465 -88.5141 73.521)" class="st30" width="1" height="0.5"/>
				</g>
				<g>
					<path class="st30" d="M179.7,303.1l-0.2-0.5l1.8-0.6c0.1,0,0.3,0,0.3,0.1s0,0.3-0.1,0.3l-0.5,0.2h-0.1L179.7,303.1z
						 M182.7,302.1c-0.1,0-0.2-0.1-0.2-0.2s0-0.3,0.2-0.3l0.4-0.1l0.1-0.1l1.8-0.6c0.1,0,0.3,0,0.3,0.1s0,0.3-0.1,0.3l-0.4,0.1
						c0,0.1-0.1,0.1-0.1,0.1L182.7,302.1C182.8,302.1,182.7,302.1,182.7,302.1z M186.4,300.9c-0.1,0-0.2-0.1-0.2-0.2s0-0.3,0.2-0.3
						l0.4-0.1c0-0.1,0.1-0.1,0.2-0.2l1.8-0.6c0.1,0,0.3,0,0.3,0.1s0,0.3-0.1,0.3l-0.4,0.1c0,0.1-0.1,0.2-0.2,0.2L186.4,300.9
						L186.4,300.9z M190,299.7c-0.1,0-0.2-0.1-0.2-0.2s0-0.3,0.2-0.3l0.4-0.1c0-0.1,0.1-0.2,0.2-0.2l1.8-0.6c0.1,0,0.3,0,0.3,0.1
						s0,0.3-0.1,0.3l-0.4,0.1c0,0.1-0.1,0.2-0.2,0.2L190,299.7C190.1,299.7,190,299.7,190,299.7z M193.7,298.5
						c-0.1,0-0.2-0.1-0.2-0.2s0-0.3,0.2-0.3l0.3-0.1c0-0.1,0-0.2,0.2-0.3l1.8-0.6c0.1,0,0.3,0,0.3,0.1s0,0.3-0.1,0.3l-0.3,0.1l0,0
						c0,0.1,0,0.3-0.2,0.3L193.7,298.5L193.7,298.5z M197.3,297.3c-0.1,0-0.2-0.1-0.2-0.2s0-0.3,0.2-0.3l0.4-0.1l0,0
						c0-0.1,0-0.3,0.1-0.3l1.8-0.6c0.1,0,0.3,0,0.3,0.1s0,0.3-0.1,0.3l-0.4,0.1c0,0,0,0,0,0.1s0,0.3-0.2,0.3L197.3,297.3
						C197.4,297.3,197.3,297.3,197.3,297.3z M201,296.1c-0.1,0-0.2-0.1-0.2-0.2s0-0.3,0.2-0.3l0.4-0.1c0,0,0,0,0-0.1s0-0.3,0.1-0.3
						l1.8-0.6c0.1,0,0.3,0,0.3,0.1s0,0.3-0.1,0.3l-0.4,0.1c0,0,0,0.1,0.1,0.1c0,0.1,0,0.3-0.2,0.3L201,296.1L201,296.1z M204.6,295
						c-0.1,0-0.2-0.1-0.2-0.2s0-0.3,0.2-0.3l0.4-0.1l-0.1-0.1c0-0.1,0-0.3,0.1-0.3l1.8-0.6c0.1,0,0.3,0,0.3,0.1s0,0.3-0.1,0.3
						l-0.4,0.1c0.1,0,0.1,0.1,0.1,0.1c0,0.1,0,0.3-0.2,0.3L204.6,295C204.7,295,204.7,295,204.6,295z M208.3,293.8
						c-0.1,0-0.2-0.1-0.2-0.2s0-0.3,0.2-0.3l0.5-0.1c-0.1,0-0.1-0.1-0.2-0.2c0-0.1,0-0.3,0.1-0.3l1.8-0.6c0.1,0,0.3,0,0.3,0.1
						s0,0.3-0.1,0.3l-0.5,0.2c0.1,0,0.2,0.1,0.2,0.2s0,0.3-0.2,0.3L208.3,293.8L208.3,293.8z M211.9,292.6c-0.1,0-0.2-0.1-0.2-0.2
						s0-0.3,0.2-0.3l1.8-0.6c0.1,0,0.3,0,0.3,0.2c0,0.1,0,0.3-0.2,0.3L211.9,292.6C212,292.6,212,292.6,211.9,292.6z M212.4,291.9
						c-0.1,0-0.2-0.1-0.2-0.2s0-0.3,0.1-0.3l1.8-0.6c0.1,0,0.3,0,0.3,0.1s0,0.3-0.1,0.3L212.4,291.9L212.4,291.9z M215.6,291.4
						c-0.1,0-0.2-0.1-0.2-0.2s0-0.3,0.2-0.3l1.8-0.6c0.1,0,0.3,0,0.3,0.2c0,0.1,0,0.3-0.2,0.3L215.6,291.4
						C215.7,291.4,215.6,291.4,215.6,291.4z M216,290.7c-0.1,0-0.2-0.1-0.2-0.2s0-0.3,0.1-0.3l1.8-0.6c0.1,0,0.3,0,0.3,0.1
						s0,0.3-0.1,0.3L216,290.7C216.1,290.7,216,290.7,216,290.7z M219.3,290.2c-0.1,0-0.2-0.1-0.2-0.2s0-0.3,0.2-0.3l1.8-0.6
						c0.1,0,0.3,0,0.3,0.2c0,0.1,0,0.3-0.2,0.3L219.3,290.2L219.3,290.2z M219.6,289.4c-0.1,0-0.2-0.1-0.2-0.2s0-0.3,0.1-0.3
						l1.8-0.6c0.1,0,0.3,0,0.3,0.1s0,0.3-0.1,0.3L219.6,289.4C219.7,289.4,219.7,289.4,219.6,289.4z M222.9,289
						c-0.1,0-0.2-0.1-0.2-0.2s0-0.3,0.2-0.3l1.8-0.6c0.1,0,0.3,0,0.3,0.2c0,0.1,0,0.3-0.2,0.3L222.9,289
						C223,289,222.9,289,222.9,289z M223.3,288.2c-0.1,0-0.2-0.1-0.2-0.2s0-0.3,0.1-0.3l1.8-0.6c0.1,0,0.3,0,0.3,0.1s0,0.3-0.1,0.3
						L223.3,288.2L223.3,288.2z M226.6,287.8c-0.1,0-0.2-0.1-0.2-0.2s0-0.3,0.2-0.3l1.8-0.6c0.1,0,0.3,0,0.3,0.2
						c0,0.1,0,0.3-0.2,0.3L226.6,287.8L226.6,287.8z M226.9,287c-0.1,0-0.2-0.1-0.2-0.2s0-0.3,0.1-0.3l1.8-0.6c0.1,0,0.3,0,0.3,0.1
						s0,0.3-0.1,0.3L226.9,287C227,287,226.9,287,226.9,287z M230.2,286.6c-0.1,0-0.2-0.1-0.2-0.2s0-0.3,0.2-0.3l1.8-0.6
						c0.1,0,0.3,0,0.3,0.2c0,0.1,0,0.3-0.2,0.3L230.2,286.6C230.3,286.6,230.3,286.6,230.2,286.6z M230.6,285.7
						c-0.1,0-0.2-0.1-0.2-0.2s0-0.3,0.1-0.3l1.8-0.6c0.1,0,0.3,0,0.3,0.1s0,0.3-0.1,0.3L230.6,285.7L230.6,285.7z M233.9,285.4
						c-0.1,0-0.2-0.1-0.2-0.2s0-0.3,0.2-0.3l1.8-0.6c0.1,0,0.3,0,0.3,0.2c0,0.1,0,0.3-0.2,0.3L233.9,285.4L233.9,285.4z
						 M234.2,284.5c-0.1,0-0.2-0.1-0.2-0.2s0-0.3,0.1-0.3l1.8-0.6c0.1,0,0.3,0,0.3,0.1s0,0.3-0.1,0.3L234.2,284.5L234.2,284.5z
						 M237.5,284.3c-0.1,0-0.2-0.1-0.2-0.2s0-0.3,0.2-0.3l1.8-0.6c0.1,0,0.3,0,0.3,0.2c0,0.1,0,0.3-0.2,0.3L237.5,284.3
						C237.6,284.3,237.6,284.3,237.5,284.3z M237.8,283.2c-0.1,0-0.2-0.1-0.2-0.2s0-0.3,0.1-0.3l1.8-0.6c0.1,0,0.3,0,0.3,0.1
						s0,0.3-0.1,0.3L237.8,283.2C237.9,283.2,237.9,283.2,237.8,283.2z M241.2,283.1c-0.1,0-0.2-0.1-0.2-0.2s0-0.3,0.2-0.3l1.8-0.6
						c0.1,0,0.3,0,0.3,0.2c0,0.1,0,0.3-0.2,0.3L241.2,283.1L241.2,283.1z M241.5,282c-0.1,0-0.2-0.1-0.2-0.2s0-0.3,0.1-0.3l1.8-0.6
						c0.1,0,0.3,0,0.3,0.1s0,0.3-0.1,0.3L241.5,282L241.5,282z M244.8,281.9c-0.1,0-0.2-0.1-0.2-0.2s0-0.3,0.2-0.3l1.8-0.6
						c0.1,0,0.3,0,0.3,0.2c0,0.1,0,0.3-0.2,0.3L244.8,281.9C244.9,281.9,244.9,281.9,244.8,281.9z M245.1,280.8
						c-0.1,0-0.2-0.1-0.2-0.2s0-0.3,0.1-0.3l1.8-0.6c0.1,0,0.3,0,0.3,0.1s0,0.3-0.1,0.3L245.1,280.8
						C245.2,280.7,245.1,280.8,245.1,280.8z M248.5,280.7c-0.1,0-0.2-0.1-0.2-0.2s0-0.3,0.2-0.3l1.8-0.6c0.1,0,0.3,0,0.3,0.2
						c0,0.1,0,0.3-0.2,0.3L248.5,280.7C248.6,280.7,248.5,280.7,248.5,280.7z M248.8,279.5c-0.1,0-0.2-0.1-0.2-0.2s0-0.3,0.1-0.3
						l1.8-0.6c0.1,0,0.3,0,0.3,0.1s0,0.3-0.1,0.3L248.8,279.5L248.8,279.5z M252.2,279.5c-0.1,0-0.2-0.1-0.2-0.2s0-0.3,0.2-0.3
						l1.8-0.6c0.1,0,0.3,0,0.3,0.2c0,0.1,0,0.3-0.2,0.3L252.2,279.5L252.2,279.5z M255.8,278.3c-0.1,0-0.2-0.1-0.2-0.2
						s0-0.3,0.2-0.3l1.8-0.6c0.1,0,0.3,0,0.3,0.2c0,0.1,0,0.3-0.2,0.3L255.8,278.3C255.9,278.3,255.8,278.3,255.8,278.3z
						 M252.4,278.3c-0.1,0-0.2-0.1-0.2-0.2s0-0.3,0.1-0.3l1.8-0.6c0.1,0,0.3,0,0.3,0.1s0,0.3-0.1,0.3L252.4,278.3L252.4,278.3z
						 M259.5,277.1c-0.1,0-0.2-0.1-0.2-0.2s0-0.3,0.2-0.3l1.8-0.6c0.1,0,0.3,0,0.3,0.2c0,0.1,0,0.3-0.2,0.3L259.5,277.1L259.5,277.1
						z M256,277c-0.1,0-0.2-0.1-0.2-0.2s0-0.3,0.1-0.3l1.8-0.6c0.1,0,0.3,0,0.3,0.1s0,0.3-0.1,0.3L256,277
						C256.1,277,256.1,277,256,277z M263.1,275.9c-0.1,0-0.2-0.1-0.2-0.2s0-0.3,0.2-0.3l1.8-0.6c0.1,0,0.3,0,0.3,0.2
						c0,0.1,0,0.3-0.2,0.3L263.1,275.9C263.2,275.9,263.2,275.9,263.1,275.9z M259.7,275.8c-0.1,0-0.2-0.1-0.2-0.2s0-0.3,0.1-0.3
						l1.8-0.6c0.1,0,0.3,0,0.3,0.1s0,0.3-0.1,0.3L259.7,275.8L259.7,275.8z M266.8,274.7c-0.1,0-0.2-0.1-0.2-0.2s0-0.3,0.2-0.3
						l1.8-0.6c0.1,0,0.3,0,0.3,0.2c0,0.1,0,0.3-0.2,0.3L266.8,274.7L266.8,274.7z M263.3,274.5c-0.1,0-0.2-0.1-0.2-0.2
						s0-0.3,0.1-0.3l1.8-0.6c0.1,0,0.3,0,0.3,0.1s0,0.3-0.1,0.3L263.3,274.5C263.4,274.5,263.3,274.5,263.3,274.5z M270.4,273.6
						c-0.1,0-0.2-0.1-0.2-0.2s0-0.3,0.2-0.3l1.8-0.6c0.1,0,0.3,0,0.3,0.2c0,0.1,0,0.3-0.2,0.3L270.4,273.6
						C270.5,273.5,270.5,273.6,270.4,273.6z M266.9,273.3c-0.1,0-0.2-0.1-0.2-0.2s0-0.3,0.1-0.3l1.8-0.6c0.1,0,0.3,0,0.3,0.1
						s0,0.3-0.1,0.3L266.9,273.3C267,273.3,267,273.3,266.9,273.3z M274.1,272.4c-0.1,0-0.2-0.1-0.2-0.2s0-0.3,0.2-0.3l1.8-0.6
						c0.1,0,0.3,0,0.3,0.2c0,0.1,0,0.3-0.2,0.3L274.1,272.4L274.1,272.4z M270.6,272.1c-0.1,0-0.2-0.1-0.2-0.2s0-0.3,0.1-0.3
						l1.8-0.6c0.1,0,0.3,0,0.3,0.1s0,0.3-0.1,0.3L270.6,272.1L270.6,272.1z M277.8,271.2c-0.1,0-0.2-0.1-0.2-0.2s0-0.3,0.2-0.3
						l1.8-0.6c0.1,0,0.3,0,0.3,0.2c0,0.1,0,0.3-0.2,0.3L277.8,271.2L277.8,271.2z M274.2,270.8c-0.1,0-0.2-0.1-0.2-0.2
						s0-0.3,0.1-0.3l1.8-0.6c0.1,0,0.3,0,0.3,0.1s0,0.3-0.1,0.3L274.2,270.8C274.3,270.8,274.2,270.8,274.2,270.8z M281.4,270
						c-0.1,0-0.2-0.1-0.2-0.2s0-0.3,0.2-0.3l1.8-0.6c0.1,0,0.3,0,0.3,0.2c0,0.1,0,0.3-0.2,0.3L281.4,270
						C281.5,270,281.4,270,281.4,270z M277.9,269.6c-0.1,0-0.2-0.1-0.2-0.2s0-0.3,0.1-0.3l1.8-0.6c0.1,0,0.3,0,0.3,0.1
						s0,0.3-0.1,0.3L277.9,269.6L277.9,269.6z M285.1,268.8c-0.1,0-0.2-0.1-0.2-0.2s0-0.3,0.2-0.3l1.8-0.6c0.1,0,0.3,0,0.3,0.2
						c0,0.1,0,0.3-0.2,0.3L285.1,268.8L285.1,268.8z M281.5,268.3c-0.1,0-0.2-0.1-0.2-0.2s0-0.3,0.1-0.3l1.8-0.6
						c0.1,0,0.3,0,0.3,0.1s0,0.3-0.1,0.3L281.5,268.3L281.5,268.3z M288.7,267.6c-0.1,0-0.2-0.1-0.2-0.2s0-0.3,0.2-0.3l1.8-0.6
						c0.1,0,0.3,0,0.3,0.2c0,0.1,0,0.3-0.2,0.3L288.7,267.6C288.8,267.6,288.7,267.6,288.7,267.6z M285.1,267.1
						c-0.1,0-0.2-0.1-0.2-0.2s0-0.3,0.1-0.3l1.8-0.6c0.1,0,0.3,0,0.3,0.1s0,0.3-0.1,0.3L285.1,267.1
						C285.2,267.1,285.2,267.1,285.1,267.1z M292.4,266.4c-0.1,0-0.2-0.1-0.2-0.2s0-0.3,0.2-0.3l1.8-0.6c0.1,0,0.3,0,0.3,0.2
						c0,0.1,0,0.3-0.2,0.3L292.4,266.4L292.4,266.4z M288.8,265.9c-0.1,0-0.2-0.1-0.2-0.2s0-0.3,0.1-0.3l1.8-0.6
						c0.1,0,0.3,0,0.3,0.1s0,0.3-0.1,0.3L288.8,265.9L288.8,265.9z M296,265.2c-0.1,0-0.2-0.1-0.2-0.2s0-0.3,0.2-0.3l1.8-0.6
						c0.1,0,0.3,0,0.3,0.2c0,0.1,0,0.3-0.2,0.3L296,265.2C296.1,265.2,296.1,265.2,296,265.2z M292.4,264.6c-0.1,0-0.2-0.1-0.2-0.2
						s0-0.3,0.1-0.3l1.8-0.6c0.1,0,0.3,0,0.3,0.1s0,0.3-0.1,0.3L292.4,264.6C292.5,264.6,292.4,264.6,292.4,264.6z M299.7,264
						c-0.1,0-0.2-0.1-0.2-0.2s0-0.3,0.2-0.3l1.8-0.6c0.1,0,0.3,0,0.3,0.2c0,0.1,0,0.3-0.2,0.3L299.7,264L299.7,264z M296,263.4
						c-0.1,0-0.2-0.1-0.2-0.2s0-0.3,0.1-0.3l1.8-0.6c0.1,0,0.3,0,0.3,0.1s0,0.3-0.1,0.3L296,263.4
						C296.1,263.4,296.1,263.4,296,263.4z M303.3,262.8c-0.1,0-0.2-0.1-0.2-0.2s0-0.3,0.2-0.3l1.8-0.6c0.1,0,0.3,0,0.3,0.2
						c0,0.1,0,0.3-0.2,0.3L303.3,262.8C303.4,262.8,303.4,262.8,303.3,262.8z M299.7,262.1c-0.1,0-0.2-0.1-0.2-0.2s0-0.3,0.1-0.3
						l1.8-0.6c0.1,0,0.3,0,0.3,0.1s0,0.3-0.1,0.3L299.7,262.1L299.7,262.1z M307,261.7c-0.1,0-0.2-0.1-0.2-0.2s0-0.3,0.2-0.3
						l1.8-0.6c0.1,0,0.3,0,0.3,0.2c0,0.1,0,0.3-0.2,0.3L307,261.7L307,261.7z M303.3,260.9c-0.1,0-0.2-0.1-0.2-0.2s0-0.3,0.1-0.3
						l1.8-0.6c0.1,0,0.3,0,0.3,0.1s0,0.3-0.1,0.3L303.3,260.9C303.4,260.9,303.4,260.9,303.3,260.9z M310.7,260.5
						c-0.1,0-0.2-0.1-0.2-0.2s0-0.3,0.2-0.3l1.8-0.6c0.1,0,0.3,0,0.3,0.2c0,0.1,0,0.3-0.2,0.3L310.7,260.5L310.7,260.5z M307,259.6
						c-0.1,0-0.2-0.1-0.2-0.2s0-0.3,0.1-0.3l1.8-0.6c0.1,0,0.3,0,0.3,0.1s0,0.3-0.1,0.3L307,259.6L307,259.6z M312.5,259.3
						C312.4,259.3,312.4,259.3,312.5,259.3l-1.9-0.5c-0.1,0-0.2-0.2-0.2-0.3c0-0.1,0.2-0.2,0.3-0.2l1.9,0.5c0.1,0,0.2,0.2,0.2,0.3
						C312.7,259.3,312.6,259.3,312.5,259.3z"/>
				</g>
				<g>
					<polygon class="st30" points="316.1,261.6 313.4,259.1 315.4,259.7 					"/>
				</g>
				<g>
					<path class="st30" d="M345.8,350.5c-0.1,0-0.2-0.1-0.2-0.2l-0.6-1.8c0-0.1,0-0.3,0.1-0.3s0.3,0,0.3,0.1l0.6,1.8
						C346.1,350.3,346,350.4,345.8,350.5L345.8,350.5z M346.3,350.5L346.3,350.5c-0.2,0-0.3-0.2-0.2-0.3l0.4-1.9
						c0-0.1,0.1-0.2,0.3-0.2c0.1,0,0.2,0.2,0.2,0.3l-0.4,1.9C346.5,350.4,346.4,350.5,346.3,350.5z M344.6,346.9
						c-0.1,0-0.2-0.1-0.2-0.2l-0.6-1.8c0-0.1,0-0.3,0.1-0.3s0.3,0,0.3,0.1l0.6,1.8C344.8,346.7,344.8,346.8,344.6,346.9L344.6,346.9
						z M346.5,346.8c-0.1,0-0.2-0.1-0.2-0.2l-0.6-1.8c0-0.1,0-0.3,0.1-0.3s0.3,0,0.3,0.1l0.6,1.8
						C346.7,346.6,346.7,346.7,346.5,346.8L346.5,346.8z M343.4,343.3c-0.1,0-0.2-0.1-0.2-0.2l-0.6-1.8c0-0.1,0-0.3,0.1-0.3
						s0.3,0,0.3,0.1l0.6,1.8C343.6,343.1,343.6,343.2,343.4,343.3L343.4,343.3z M345.2,343.2c-0.1,0-0.2-0.1-0.2-0.2l-0.6-1.8
						c0-0.1,0-0.3,0.1-0.3s0.3,0,0.3,0.1l0.6,1.8C345.5,343,345.4,343.2,345.2,343.2L345.2,343.2z M342.1,339.7
						c-0.1,0-0.2-0.1-0.2-0.2l-0.6-1.8c0-0.1,0-0.3,0.1-0.3s0.3,0,0.3,0.1l0.6,1.8C342.4,339.5,342.3,339.6,342.1,339.7
						C342.2,339.7,342.2,339.7,342.1,339.7z M343.9,339.6c-0.1,0-0.2-0.1-0.2-0.2l-0.6-1.8c0-0.1,0-0.3,0.1-0.3s0.3,0,0.3,0.1
						l0.6,1.8C344.2,339.4,344.1,339.6,343.9,339.6C344,339.6,343.9,339.6,343.9,339.6z M340.9,336.1c-0.1,0-0.2-0.1-0.2-0.2
						l-0.6-1.8c0-0.1,0-0.3,0.1-0.3s0.3,0,0.3,0.1l0.6,1.8C341.2,335.9,341.1,336,340.9,336.1C341,336.1,341,336.1,340.9,336.1z
						 M342.6,336.1c-0.1,0-0.2-0.1-0.2-0.2l-0.6-1.8c0-0.1,0-0.3,0.1-0.3s0.3,0,0.3,0.1l0.6,1.8C342.9,335.9,342.8,336,342.6,336.1
						C342.7,336.1,342.6,336.1,342.6,336.1z M339.7,332.5c-0.1,0-0.2-0.1-0.2-0.2l-0.6-1.8c0-0.1,0-0.3,0.1-0.3s0.3,0,0.3,0.1
						l0.6,1.8C340,332.3,339.9,332.4,339.7,332.5C339.8,332.5,339.7,332.5,339.7,332.5z M341.3,332.5c-0.1,0-0.2-0.1-0.2-0.2
						l-0.6-1.8c0-0.1,0-0.3,0.1-0.3s0.3,0,0.3,0.1l0.6,1.8C341.6,332.3,341.5,332.4,341.3,332.5
						C341.4,332.5,341.3,332.5,341.3,332.5z M340,328.9c-0.1,0-0.2-0.1-0.2-0.2l-0.6-1.8c0-0.1,0-0.3,0.1-0.3s0.3,0,0.3,0.1l0.6,1.8
						C340.3,328.7,340.2,328.9,340,328.9C340.1,328.9,340.1,328.9,340,328.9z M338.5,328.9c-0.1,0-0.2-0.1-0.2-0.2l-0.6-1.8
						c0-0.1,0-0.3,0.1-0.3s0.3,0,0.3,0.1l0.6,1.8C338.8,328.7,338.7,328.8,338.5,328.9L338.5,328.9z M338.7,325.3
						c-0.1,0-0.2-0.1-0.2-0.2l-0.6-1.8c0-0.1,0-0.3,0.1-0.3s0.3,0,0.3,0.1l0.6,1.8C339,325.1,338.9,325.3,338.7,325.3
						C338.8,325.3,338.8,325.3,338.7,325.3z M337.3,325.3c-0.1,0-0.2-0.1-0.2-0.2l-0.6-1.8c0-0.1,0-0.3,0.1-0.3s0.3,0,0.3,0.1
						l0.6,1.8C337.6,325.1,337.5,325.2,337.3,325.3L337.3,325.3z M337.5,321.8c-0.1,0-0.2-0.1-0.2-0.2l-0.6-1.8c0-0.1,0-0.3,0.1-0.3
						s0.3,0,0.3,0.1l0.6,1.8C337.7,321.6,337.7,321.7,337.5,321.8L337.5,321.8z M336.1,321.7c-0.1,0-0.2-0.1-0.2-0.2l-0.6-1.8
						c0-0.1,0-0.3,0.1-0.3s0.3,0,0.3,0.1l0.6,1.8C336.3,321.5,336.3,321.6,336.1,321.7L336.1,321.7z M336.2,318.2
						c-0.1,0-0.2-0.1-0.2-0.2l-0.6-1.8c0-0.1,0-0.3,0.1-0.3s0.3,0,0.3,0.1l0.6,1.8C336.4,318,336.4,318.1,336.2,318.2L336.2,318.2z
						 M334.9,318.1c-0.1,0-0.2-0.1-0.2-0.2l-0.6-1.8c0-0.1,0-0.3,0.1-0.3s0.3,0,0.3,0.1l0.6,1.8C335.1,317.9,335.1,318,334.9,318.1
						L334.9,318.1z M334.9,314.6c-0.1,0-0.2-0.1-0.2-0.2l-0.6-1.8c0-0.1,0-0.3,0.1-0.3s0.3,0,0.3,0.1l0.6,1.8
						C335.2,314.4,335.1,314.6,334.9,314.6L334.9,314.6z M333.6,314.5c-0.1,0-0.2-0.1-0.2-0.2l-0.6-1.8c0-0.1,0-0.3,0.1-0.3
						s0.3,0,0.3,0.1l0.6,1.8C333.9,314.3,333.8,314.4,333.6,314.5C333.7,314.5,333.7,314.5,333.6,314.5z M333.6,311
						c-0.1,0-0.2-0.1-0.2-0.2l-0.6-1.8c0-0.1,0-0.3,0.1-0.3s0.3,0,0.3,0.1l0.6,1.8C333.9,310.8,333.8,311,333.6,311L333.6,311z
						 M332.4,310.9c-0.1,0-0.2-0.1-0.2-0.2l-0.6-1.8c0-0.1,0-0.3,0.1-0.3s0.3,0,0.3,0.1l0.6,1.8
						C332.7,310.7,332.6,310.8,332.4,310.9C332.5,310.9,332.5,310.9,332.4,310.9z M332.3,307.5c-0.1,0-0.2-0.1-0.2-0.2l-0.6-1.8
						c0-0.1,0-0.3,0.1-0.3s0.3,0,0.3,0.1l0.6,1.8C332.6,307.3,332.5,307.4,332.3,307.5C332.4,307.5,332.3,307.5,332.3,307.5z
						 M331.2,307.3c-0.1,0-0.2-0.1-0.2-0.2l-0.6-1.8c0-0.1,0-0.3,0.1-0.3s0.3,0,0.3,0.1l0.6,1.8
						C331.5,307.1,331.4,307.2,331.2,307.3C331.3,307.3,331.2,307.3,331.2,307.3z M331,303.9c-0.1,0-0.2-0.1-0.2-0.2l-0.6-1.8
						c0-0.1,0-0.3,0.1-0.3s0.3,0,0.3,0.1l0.6,1.8C331.3,303.7,331.2,303.8,331,303.9C331.1,303.9,331,303.9,331,303.9z M330,303.7
						c-0.1,0-0.2-0.1-0.2-0.2l-0.6-1.8c0-0.1,0-0.3,0.1-0.3s0.3,0,0.3,0.1l0.6,1.8C330.3,303.5,330.2,303.6,330,303.7L330,303.7z
						 M329.7,300.3c-0.1,0-0.2-0.1-0.2-0.2l-0.6-1.8c0-0.1,0-0.3,0.1-0.3s0.3,0,0.3,0.1l0.6,1.8C330,300.1,329.9,300.3,329.7,300.3
						C329.8,300.3,329.8,300.3,329.7,300.3z M328.8,300.1c-0.1,0-0.2-0.1-0.2-0.2l-0.6-1.8c0-0.1,0-0.3,0.1-0.3s0.3,0,0.3,0.1
						l0.6,1.8C329.1,299.9,329,300,328.8,300.1L328.8,300.1z M328.4,296.7c-0.1,0-0.2-0.1-0.2-0.2l-0.6-1.8c0-0.1,0-0.3,0.1-0.3
						s0.3,0,0.3,0.1l0.6,1.8C328.7,296.5,328.6,296.7,328.4,296.7C328.5,296.7,328.5,296.7,328.4,296.7z M327.6,296.5
						c-0.1,0-0.2-0.1-0.2-0.2l-0.6-1.8c0-0.1,0-0.3,0.1-0.3s0.3,0,0.3,0.1l0.6,1.8C327.8,296.3,327.8,296.4,327.6,296.5L327.6,296.5
						z M327.2,293.2c-0.1,0-0.2-0.1-0.2-0.2l-0.6-1.8c0-0.1,0-0.3,0.1-0.3s0.3,0,0.3,0.1l0.6,1.8C327.4,293,327.4,293.1,327.2,293.2
						L327.2,293.2z M326.4,292.9c-0.1,0-0.2-0.1-0.2-0.2l-0.6-1.8c0-0.1,0-0.3,0.1-0.3s0.3,0,0.3,0.1l0.6,1.8
						C326.6,292.7,326.6,292.8,326.4,292.9L326.4,292.9z M325.9,289.6c-0.1,0-0.2-0.1-0.2-0.2l-0.6-1.8c0-0.1,0-0.3,0.1-0.3
						s0.3,0,0.3,0.1l0.6,1.8C326.1,289.4,326.1,289.5,325.9,289.6L325.9,289.6z M325.1,289.3c-0.1,0-0.2-0.1-0.2-0.2l-0.6-1.8
						c0-0.1,0-0.3,0.1-0.3s0.3,0,0.3,0.1l0.6,1.8C325.4,289.1,325.3,289.2,325.1,289.3C325.2,289.3,325.2,289.3,325.1,289.3z
						 M324.6,286c-0.1,0-0.2-0.1-0.2-0.2l-0.5-1.5l0.3,1c0,0.1,0,0.3-0.1,0.3s-0.3,0-0.3-0.1l-0.6-1.8c0-0.1,0-0.3,0.1-0.3
						s0.3,0,0.3,0.1l0.1,0.4c0-0.1,0.1-0.2,0.2-0.2s0.3,0,0.3,0.1l0.6,1.8C324.8,285.8,324.8,286,324.6,286L324.6,286z M323.3,282.4
						c-0.1,0-0.2-0.1-0.2-0.2l-0.1-0.4c0,0.1-0.1,0.1-0.1,0.1c-0.1,0-0.3,0-0.3-0.1L322,280c0-0.1,0-0.3,0.1-0.3s0.3,0,0.3,0.1
						l0.1,0.3l0.1-0.1c0.1,0,0.3,0,0.3,0.1l0.6,1.8C323.6,282.2,323.5,282.4,323.3,282.4L323.3,282.4z M322,278.9
						c-0.1,0-0.2-0.1-0.2-0.2l-0.1-0.3c0,0-0.1,0-0.1,0.1c-0.1,0-0.3,0-0.3-0.1l-0.6-1.8c0-0.1,0-0.3,0.1-0.3s0.3,0,0.3,0.1l0.1,0.3
						c0,0,0,0,0.1,0s0.3,0,0.3,0.1l0.6,1.8C322.3,278.7,322.2,278.8,322,278.9C322.1,278.9,322,278.9,322,278.9z M320.7,275.3
						c-0.1,0-0.2-0.1-0.2-0.2l-0.1-0.3l0,0c-0.1,0-0.3,0-0.3-0.1l-0.6-1.8c0-0.1,0-0.3,0.1-0.3s0.3,0,0.3,0.1l0.1,0.3
						c0.1,0,0.3,0,0.3,0.1l0.6,1.8C321,275.1,320.9,275.2,320.7,275.3C320.8,275.3,320.7,275.3,320.7,275.3z M319.4,271.7
						c-0.1,0-0.2-0.1-0.2-0.2l-0.1-0.3c-0.1,0-0.2-0.1-0.3-0.2l-0.6-1.8c0-0.1,0-0.3,0.1-0.3s0.3,0,0.3,0.1l0.1,0.3
						c0.1,0,0.2,0.1,0.2,0.2l0.6,1.8C319.7,271.5,319.6,271.6,319.4,271.7C319.5,271.7,319.5,271.7,319.4,271.7z M318.1,268.1
						c-0.1,0-0.2-0.1-0.2-0.2l-0.1-0.3c-0.1,0-0.1-0.1-0.2-0.2l-0.6-1.8c0-0.1,0-0.3,0.1-0.3s0.3,0,0.3,0.1l0.1,0.3
						c0.1,0,0.1,0.1,0.1,0.1l0.6,1.8C318.4,267.9,318.3,268.1,318.1,268.1C318.2,268.1,318.2,268.1,318.1,268.1z M316.8,264.6
						c-0.1,0-0.2-0.1-0.2-0.2l-0.1-0.4l-0.1-0.1l-0.4-1.3l0.4-0.2l0.6,1.8C317.1,264.4,317.1,264.5,316.8,264.6
						C316.9,264.6,316.9,264.6,316.8,264.6z"/>
				</g>
				<g>
					<polygon class="st30" points="344,353.8 346.3,351.3 345.9,353.2 					"/>
				</g>
				<g>
					<path class="st30" d="M210.8,399.3c-0.1,0-0.2-0.1-0.2-0.2V399c0-0.1,0.1-0.2,0.2-0.2l1.8-0.6c0.1,0,0.3,0,0.3,0.1v0.1
						c0,0.1-0.1,0.2-0.2,0.2L210.8,399.3C210.9,399.3,210.9,399.3,210.8,399.3z M214.5,398c-0.1,0-0.2-0.1-0.2-0.2v-0.1
						c0-0.1,0.1-0.2,0.2-0.2l1.8-0.6c0.1,0,0.3,0,0.3,0.1v0.1c0,0.1-0.1,0.2-0.2,0.2L214.5,398L214.5,398z M218.1,396.8L218.1,396.8
						c-0.1,0-0.1,0-0.1,0l0,0l0,0l-0.1-0.1c0-0.1,0-0.2,0.1-0.2l0,0l0,0c0,0,0.1,0,0.1-0.1l1.8-0.6h0.1c0.1,0,0.2,0.1,0.2,0.2
						s0,0.3-0.1,0.3L218.1,396.8L218.1,396.8z M221.7,395.6L221.7,395.6L221.7,395.6c-0.1,0-0.2-0.1-0.2-0.2s0-0.3,0.1-0.3l1.8-0.6
						h0.1l0,0l0,0c0.1,0,0.2,0.1,0.2,0.2s0,0.3-0.1,0.3L221.7,395.6C221.8,395.6,221.7,395.6,221.7,395.6z M225.3,394.3L225.3,394.3
						L225.3,394.3c-0.1,0-0.2-0.1-0.2-0.2s0-0.3,0.1-0.3l1.8-0.6h0.1l0,0l0,0c0.1,0,0.2,0.1,0.2,0.2s0,0.3-0.1,0.3L225.3,394.3
						C225.4,394.3,225.4,394.3,225.3,394.3z M228.9,393.1L228.9,393.1L228.9,393.1c-0.1,0-0.2-0.1-0.2-0.2s0-0.3,0.1-0.3l1.8-0.6
						h0.1l0,0l0,0c0.1,0,0.2,0.1,0.2,0.2s0,0.3-0.1,0.3L228.9,393.1C229,393.1,229,393.1,228.9,393.1z M232.6,391.9L232.6,391.9
						L232.6,391.9c-0.1,0-0.2-0.1-0.2-0.2s0-0.3,0.1-0.3l1.8-0.6h0.1l0,0l0,0c0.1,0,0.2,0.1,0.2,0.2s0,0.3-0.1,0.3L232.6,391.9
						L232.6,391.9z M236.2,390.6L236.2,390.6L236.2,390.6c-0.1,0-0.2-0.1-0.2-0.2s0-0.3,0.1-0.3l1.8-0.6h0.1l0,0l0,0
						c0.1,0,0.2,0.1,0.2,0.2s0,0.3-0.1,0.3L236.2,390.6L236.2,390.6z M239.8,389.4L239.8,389.4c-0.1,0-0.2-0.1-0.2-0.2
						s0-0.3,0.1-0.3l1.8-0.6c0.1,0,0.3,0,0.3,0.1s0,0.1,0,0.2s-0.1,0.1-0.1,0.1L239.8,389.4C239.9,389.4,239.8,389.4,239.8,389.4z
						 M243.4,388.2c-0.1,0-0.2-0.1-0.2-0.2s0-0.3,0.1-0.3l1.8-0.6c0.1,0,0.3,0,0.3,0.1s0,0.1,0,0.2s-0.1,0.1-0.1,0.1L243.4,388.2
						C243.5,388.1,243.5,388.2,243.4,388.2L243.4,388.2z M247,386.9c-0.1,0-0.2-0.1-0.2-0.2s0-0.3,0.1-0.3l1.8-0.6
						c0.1,0,0.3,0,0.3,0.1s0,0.1,0,0.2s-0.1,0.1-0.1,0.1L247,386.9C247.1,386.9,247.1,386.9,247,386.9L247,386.9L247,386.9z
						 M250.7,385.7c-0.1,0-0.2-0.1-0.2-0.2s0-0.3,0.1-0.3l1.8-0.6c0.1,0,0.3,0,0.3,0.1s0,0.1,0,0.2s-0.1,0.1-0.1,0.1L250.7,385.7
						L250.7,385.7L250.7,385.7L250.7,385.7z M254.3,384.4c-0.1,0-0.2-0.1-0.2-0.2s0-0.3,0.1-0.3l1.8-0.6c0.1,0,0.3,0,0.3,0.1
						s0,0.1,0,0.2s-0.1,0.1-0.1,0.1L254.3,384.4L254.3,384.4L254.3,384.4L254.3,384.4z M257.9,383.2L257.9,383.2L257.9,383.2
						c-0.1,0-0.2-0.1-0.2-0.2s0-0.3,0.1-0.3l1.8-0.6h0.1l0,0l0,0c0.1,0,0.2,0.1,0.2,0.2s0,0.3-0.1,0.3L257.9,383.2
						C258,383.2,257.9,383.2,257.9,383.2z M261.5,382L261.5,382L261.5,382c-0.1,0-0.2-0.1-0.2-0.2s0-0.3,0.1-0.3l1.8-0.6h0.1l0,0
						l0,0c0.1,0,0.2,0.1,0.2,0.2s0,0.3-0.1,0.3L261.5,382C261.6,382,261.6,382,261.5,382z M265.1,380.7L265.1,380.7L265.1,380.7
						c-0.1,0-0.2-0.1-0.2-0.2s0-0.3,0.1-0.3l1.8-0.6h0.1l0,0l0,0c0.1,0,0.2,0.1,0.2,0.2s0,0.3-0.1,0.3L265.1,380.7
						C265.2,380.7,265.2,380.7,265.1,380.7z M268.8,379.5L268.8,379.5L268.8,379.5c-0.1,0-0.2-0.1-0.2-0.2s0-0.3,0.1-0.3l1.8-0.6
						h0.1l0,0l0,0c0.1,0,0.2,0.1,0.2,0.2s0,0.3-0.1,0.3L268.8,379.5L268.8,379.5z M272.4,378.3L272.4,378.3L272.4,378.3
						c-0.1,0-0.2-0.1-0.2-0.2s0-0.3,0.1-0.3l1.8-0.6h0.1l0,0l0,0c0.1,0,0.2,0.1,0.2,0.2s0,0.3-0.1,0.3L272.4,378.3L272.4,378.3z
						 M276,377c-0.1,0-0.2-0.1-0.2-0.2s0-0.3,0.1-0.3l1.8-0.6h0.1l0,0c0.1,0,0.2,0.1,0.2,0.2v0.1l0,0l0,0l0,0l0,0
						c0,0.1,0,0.1-0.1,0.1l0,0l0,0c0,0-0.1,0-0.1,0.1L276,377C276.1,377,276,377,276,377L276,377L276,377z M279.6,375.8
						c-0.1,0-0.2-0.1-0.2-0.2v-0.1c0-0.1,0.1-0.2,0.2-0.2l1.8-0.6c0.1,0,0.3,0,0.3,0.1v0.1c0,0.1-0.1,0.2-0.2,0.2L279.6,375.8
						C279.7,375.8,279.7,375.8,279.6,375.8z M283.2,374.6c-0.1,0-0.2-0.1-0.2-0.2v-0.1c0-0.1,0.1-0.2,0.2-0.2l1.8-0.6
						c0.1,0,0.3,0,0.3,0.1v0.1c0,0.1-0.1,0.2-0.2,0.2L283.2,374.6C283.3,374.6,283.3,374.6,283.2,374.6z M286.9,373.3
						c-0.1,0-0.2-0.1-0.2-0.2V373c0-0.1,0.1-0.2,0.2-0.2l1.8-0.6c0.1,0,0.3,0,0.3,0.1v0.1c0,0.1-0.1,0.2-0.2,0.2L286.9,373.3
						L286.9,373.3z M290.5,372.1c-0.1,0-0.2-0.1-0.2-0.2v-0.1c0-0.1,0.1-0.2,0.2-0.2l1.8-0.6c0.1,0,0.3,0,0.3,0.1v0.1
						c0,0.1-0.1,0.2-0.2,0.2L290.5,372.1L290.5,372.1z M294.1,370.9c-0.1,0-0.2-0.1-0.2-0.2v-0.1c0-0.1,0.1-0.2,0.2-0.2l1.8-0.6
						c0.1,0,0.3,0,0.3,0.1v0.1c0,0.1-0.1,0.2-0.2,0.2L294.1,370.9C294.2,370.9,294.1,370.9,294.1,370.9z M297.7,369.6
						c-0.1,0-0.2-0.1-0.2-0.2v-0.1c0-0.1,0.1-0.2,0.2-0.2l1.8-0.6c0.1,0,0.3,0,0.3,0.1v0.1c0,0.1-0.1,0.2-0.2,0.2L297.7,369.6
						C297.8,369.6,297.8,369.6,297.7,369.6z M301.3,368.4c-0.1,0-0.2-0.1-0.2-0.2v-0.1c0-0.1,0.1-0.2,0.2-0.2l1.8-0.6
						c0.1,0,0.3,0,0.3,0.1v0.1c0,0.1-0.1,0.2-0.2,0.2L301.3,368.4C301.4,368.4,301.4,368.4,301.3,368.4z M305,367.2
						c-0.1,0-0.2-0.1-0.2-0.2v-0.1c0-0.1,0.1-0.2,0.2-0.2l1.8-0.6c0.1,0,0.3,0,0.3,0.1v0.1c0,0.1-0.1,0.2-0.2,0.2L305,367.2
						C305,367.1,305,367.2,305,367.2z M308.6,365.9c-0.1,0-0.2-0.1-0.2-0.2v-0.1c0-0.1,0.1-0.2,0.2-0.2l1.8-0.6c0.1,0,0.3,0,0.3,0.1
						v0.1c0,0.1-0.1,0.2-0.2,0.2L308.6,365.9L308.6,365.9z M312.2,364.7c-0.1,0-0.2-0.1-0.2-0.2v-0.1c0-0.1,0.1-0.2,0.2-0.2l1.8-0.6
						c0.1,0,0.3,0,0.3,0.1v0.1c0,0.1-0.1,0.2-0.2,0.2L312.2,364.7C312.3,364.7,312.2,364.7,312.2,364.7z M315.8,363.4
						c-0.1,0-0.2-0.1-0.2-0.2v-0.1c0-0.1,0.1-0.2,0.2-0.2l1.8-0.6c0.1,0,0.3,0,0.3,0.1v0.1c0,0.1-0.1,0.2-0.2,0.2L315.8,363.4
						C315.9,363.4,315.9,363.4,315.8,363.4z M319.5,362.2c-0.1,0-0.2-0.1-0.2-0.2v-0.1c0-0.1,0.1-0.2,0.2-0.2l1.8-0.6
						c0.1,0,0.3,0,0.3,0.1v0.1c0,0.1-0.1,0.2-0.2,0.2L319.5,362.2L319.5,362.2z M323.1,361c-0.1,0-0.2-0.1-0.2-0.2v-0.1
						c0-0.1,0.1-0.2,0.2-0.2l1.8-0.6h0.1c0.1,0,0.2,0.1,0.2,0.2c0,0,0,0,0,0.1l0,0l0,0l0,0l0,0l0,0l0,0l0,0l0,0l0,0l0,0
						c0,0.1-0.1,0.2-0.2,0.2L323.1,361L323.1,361z M326.7,359.7c-0.1,0-0.2-0.1-0.2-0.2v-0.1c0-0.1,0.1-0.2,0.2-0.2l1.8-0.6
						c0.1,0,0.3,0,0.3,0.1c0,0,0,0,0,0.1l0,0l0,0l0,0l0,0l0,0l0,0l0,0l0,0l0,0l0,0l0,0l0,0c0,0.1,0,0.1,0,0.1l0,0l0,0l0,0l0,0l0,0
						l0,0l0,0l0,0l0,0l0,0l0,0l0,0l0,0l0,0l0,0l0,0l0,0l0,0l0,0l0,0l0,0l0,0l-0.1,0.1L326.7,359.7L326.7,359.7z M330.3,358.5
						c-0.1,0-0.2-0.1-0.2-0.2v-0.1c0-0.1,0.1-0.2,0.2-0.2l1.8-0.6c0,0,0,0,0.1,0l0,0l0,0l0,0l0,0c0.1,0,0.2,0.1,0.2,0.1l0,0l0,0l0,0
						l0,0l0,0l0,0l0,0l0,0l0,0l0,0l0,0c0,0.1,0,0.3-0.1,0.3L330.3,358.5C330.4,358.5,330.3,358.5,330.3,358.5z M333.9,357.3
						c-0.1,0-0.2-0.1-0.2-0.2V357c0-0.1,0.1-0.2,0.2-0.2l1.8-0.6l0,0l0,0l0,0l0,0l0,0l0,0l0,0l0,0l0,0l0,0l0,0l0,0l0,0l0,0l0,0l0,0
						l0,0c0.1,0,0.1,0,0.2,0l0,0l0,0l0,0l0,0l0,0l0,0c0.1,0,0.1,0.1,0.1,0.1l0,0l0,0l0,0l0,0l0,0l0,0l0,0l0,0l0,0l0,0l0,0l0,0l0,0
						l0,0l0,0l0,0l0,0l0,0l0,0l0,0l0,0l0,0l0,0l0,0l0,0c0,0.1-0.1,0.2-0.1,0.2l0,0l0,0l0,0l0,0l0,0l0,0l0,0l0,0l0,0l0,0L333.9,357.3
						C334,357.3,334,357.3,333.9,357.3z M337.6,356c-0.1,0-0.2-0.1-0.2-0.2v-0.1c0-0.1,0.1-0.2,0.2-0.2l1.8-0.6c0,0,0,0,0.1,0l0,0
						l0,0c0.1,0,0.1,0,0.2,0.1l0,0l0,0l0,0l0,0l0,0l0,0l0,0l0,0l0,0c0,0,0,0,0,0.1c0,0,0,0,0,0.1l0,0l0,0l0,0l0,0l0,0l0,0l0,0l0,0
						l0,0l0,0c0,0.1-0.1,0.2-0.2,0.2l0,0L337.6,356L337.6,356z M341.2,354.8c-0.1,0-0.2-0.1-0.2-0.2v-0.1c0-0.1,0.1-0.2,0.2-0.2
						l1.8-0.6l0.2,0.5L341.2,354.8L341.2,354.8z"/>
				</g>
				<g>
					
						<rect x="208.1" y="399.6" transform="matrix(0.9465 -0.3228 0.3228 0.9465 -117.899 88.7468)" class="st30" width="1" height="0.5"/>
				</g>
			</g>
			<polygon class="st31" points="351.2,305.3 349.7,309.2 342.1,313.1 341,310.3 			"/>
			<path class="st32" d="M349.1,307.6l-35,12c-3.9,1.3-8.1-0.8-9.5-4.6l-2.6-7.5c-1.3-3.9,0.8-8.1,4.6-9.5l35-12
				c1.7-0.6,3.5,0.3,4,2l5.4,15.6C351.7,305.2,350.8,307,349.1,307.6z"/>
			<g>
				<path class="st30" d="M311.3,317.8L311.3,317.8c-0.7,0-1.2-0.2-1.7-0.5c-0.1,0-0.1-0.1-0.2-0.1c-0.1-0.1-0.1-0.2,0-0.3
					c0.1-0.1,0.2-0.1,0.3,0c0.1,0,0.1,0.1,0.2,0.1c0.4,0.3,0.9,0.4,1.5,0.4c0.1,0,0.2,0.1,0.2,0.2
					C311.5,317.7,311.4,317.8,311.3,317.8z M313.2,317.5c-0.1,0-0.2-0.1-0.2-0.2s0-0.3,0.2-0.3c0.5-0.1,0.9-0.3,1.3-0.4l0.5-0.2
					c0.1-0.1,0.3,0,0.3,0.1s0,0.3-0.1,0.3l-0.5,0.2C314.2,317.2,313.7,317.4,313.2,317.5L313.2,317.5z M316.8,316.2
					c-0.1,0-0.2-0.1-0.2-0.2s0-0.3,0.1-0.3l1.8-0.7c0.1,0,0.3,0,0.3,0.1s0,0.3-0.1,0.3L316.8,316.2L316.8,316.2z M308.3,315.7
					c-0.1,0-0.2,0-0.2-0.1c-0.1-0.2-0.2-0.4-0.3-0.6c-0.2-0.4-0.4-0.8-0.6-1.2c-0.1-0.1,0-0.3,0.1-0.3c0.1-0.1,0.3,0,0.3,0.1
					c0.2,0.4,0.4,0.8,0.6,1.1c0.1,0.2,0.2,0.4,0.3,0.5c0.1,0.1,0,0.3-0.1,0.3C308.4,315.7,308.4,315.7,308.3,315.7z M320.3,314.9
					c-0.1,0-0.2-0.1-0.2-0.2s0-0.3,0.1-0.3c0.6-0.2,1.2-0.4,1.8-0.6c0.1,0,0.3,0,0.3,0.1s0,0.3-0.1,0.3
					C321.6,314.5,321,314.7,320.3,314.9C320.4,314.9,320.4,314.9,320.3,314.9z M323.9,313.6c-0.1,0-0.2-0.1-0.2-0.2s0-0.3,0.1-0.3
					c0.6-0.2,1.2-0.4,1.8-0.6c0.1,0,0.3,0,0.3,0.1s0,0.3-0.1,0.3C325.2,313.2,324.6,313.4,323.9,313.6
					C324,313.6,323.9,313.6,323.9,313.6z M327.5,312.4c-0.1,0-0.2-0.1-0.2-0.2s0-0.3,0.1-0.3c0.6-0.2,1.2-0.4,1.8-0.6
					c0.1,0,0.3,0,0.3,0.1s0,0.3-0.1,0.3C328.8,311.9,328.2,312.1,327.5,312.4C327.6,312.4,327.5,312.4,327.5,312.4z M306.7,312.3
					c-0.1,0-0.2-0.1-0.2-0.1c-0.2-0.6-0.5-1.2-0.7-1.8c0-0.1,0-0.3,0.1-0.3s0.3,0,0.3,0.1c0.2,0.6,0.5,1.2,0.7,1.8
					C307,312.1,306.9,312.2,306.7,312.3C306.8,312.3,306.8,312.3,306.7,312.3z M331.1,311.1c-0.1,0-0.2-0.1-0.2-0.2s0-0.3,0.1-0.3
					l1.8-0.6c0.1,0,0.3,0,0.3,0.1s0,0.3-0.1,0.3L331.1,311.1C331.2,311.1,331.1,311.1,331.1,311.1z M334.7,309.9
					c-0.1,0-0.2-0.1-0.2-0.2s0-0.3,0.1-0.3c0.6-0.2,1.2-0.4,1.8-0.6c0.1,0,0.3,0,0.3,0.2c0,0.1,0,0.3-0.2,0.3
					C336,309.5,335.4,309.7,334.7,309.9C334.8,309.9,334.7,309.9,334.7,309.9z M338.3,308.7c-0.1,0-0.2-0.1-0.2-0.2s0-0.3,0.2-0.3
					l1.8-0.6c0.1,0,0.3,0,0.3,0.2c0,0.1,0,0.3-0.2,0.3L338.3,308.7C338.4,308.7,338.3,308.7,338.3,308.7z M305.4,308.7
					c-0.1,0-0.2-0.1-0.2-0.2c-0.2-0.7-0.4-1.3-0.5-1.9c0-0.1,0.1-0.3,0.2-0.3s0.3,0.1,0.3,0.2c0.1,0.6,0.2,1.1,0.5,1.8
					C305.7,308.5,305.6,308.6,305.4,308.7C305.5,308.7,305.4,308.7,305.4,308.7z M341.9,307.5c-0.1,0-0.2-0.1-0.2-0.2s0-0.3,0.2-0.3
					c0.6-0.2,1.2-0.4,1.8-0.6c0.1,0,0.3,0,0.3,0.2c0,0.1,0,0.3-0.2,0.3C343.2,307.1,342.6,307.3,341.9,307.5
					C342,307.5,342,307.5,341.9,307.5z M345.6,306.4c-0.1,0-0.2-0.1-0.2-0.2s0-0.3,0.2-0.3l1.8-0.6c0.1,0,0.3,0,0.3,0.2
					c0,0.1,0,0.3-0.2,0.3L345.6,306.4L345.6,306.4z M304.8,305L304.8,305c-0.1,0-0.2-0.1-0.2-0.2c0-0.7,0.2-1.3,0.4-1.9
					c0-0.1,0.2-0.2,0.3-0.1c0.1,0,0.2,0.2,0.1,0.3c-0.2,0.5-0.3,1.2-0.3,1.8C305,304.9,304.9,305,304.8,305z M306.1,301.5
					c-0.1,0-0.1,0-0.2-0.1s-0.1-0.2,0-0.3c0.4-0.5,0.9-0.8,1.6-1.2c0.1-0.1,0.3,0,0.3,0.1c0.1,0.1,0,0.3-0.1,0.3
					c-0.6,0.3-1.1,0.7-1.4,1.1C306.2,301.4,306.2,301.5,306.1,301.5z M309.4,299.5c-0.1,0-0.2-0.1-0.2-0.2s0-0.3,0.1-0.3
					c0.3-0.1,0.6-0.2,0.9-0.3l0.9-0.3c0.1,0,0.3,0,0.3,0.1s0,0.3-0.1,0.3l-0.9,0.3C310,299.3,309.7,299.4,309.4,299.5L309.4,299.5z
					 M312.9,298.3c-0.1,0-0.2-0.1-0.2-0.2s0-0.3,0.1-0.3l1.8-0.6c0.1,0,0.3,0,0.3,0.1s0,0.3-0.1,0.3L312.9,298.3
					C313,298.3,313,298.3,312.9,298.3z M316.5,297c-0.1,0-0.2-0.1-0.2-0.2s0-0.3,0.1-0.3l1.8-0.6c0.1,0,0.3,0,0.3,0.1s0,0.3-0.1,0.3
					L316.5,297C316.6,297,316.6,297,316.5,297z M320.1,295.8c-0.1,0-0.2-0.1-0.2-0.2s0-0.3,0.1-0.3l1.8-0.6c0.1,0,0.3,0,0.3,0.1
					s0,0.3-0.1,0.3L320.1,295.8C320.2,295.8,320.2,295.8,320.1,295.8z M323.7,294.5c-0.1,0-0.2-0.1-0.2-0.2s0-0.3,0.1-0.3l1.8-0.6
					c0.1,0,0.3,0,0.3,0.1s0,0.3-0.1,0.3L323.7,294.5C323.8,294.5,323.8,294.5,323.7,294.5z M327.3,293.3c-0.1,0-0.2-0.1-0.2-0.2
					s0-0.3,0.1-0.3l1.8-0.6c0.1,0,0.3,0,0.3,0.1s0,0.3-0.1,0.3L327.3,293.3C327.4,293.3,327.4,293.3,327.3,293.3z M330.9,292
					c-0.1,0-0.2-0.1-0.2-0.2s0-0.3,0.1-0.3l1.8-0.6c0.1,0,0.3,0,0.3,0.1s0,0.3-0.1,0.3L330.9,292C331,292,331,292,330.9,292z
					 M334.5,290.8c-0.1,0-0.2-0.1-0.2-0.2s0-0.3,0.1-0.3l1.8-0.6c0.1,0,0.3,0,0.3,0.1s0,0.3-0.1,0.3L334.5,290.8
					C334.6,290.8,334.5,290.8,334.5,290.8z M338.1,289.5c-0.1,0-0.2-0.1-0.2-0.2s0-0.3,0.1-0.3l1.8-0.6c0.1,0,0.3,0,0.3,0.1
					s0,0.3-0.1,0.3L338.1,289.5C338.2,289.5,338.1,289.5,338.1,289.5z M341.7,288.3c-0.1,0-0.2-0.1-0.2-0.2s0-0.3,0.1-0.3l1.8-0.6
					c0.1,0,0.3,0,0.3,0.1s0,0.3-0.1,0.3L341.7,288.3C341.8,288.3,341.7,288.3,341.7,288.3z"/>
			</g>
			
				<ellipse transform="matrix(0.9459 -0.3245 0.3245 0.9459 -82.4356 119.0428)" class="st33" cx="315.7" cy="306.7" rx="8.6" ry="8.2"/>
			
				<ellipse transform="matrix(0.9459 -0.3245 0.3245 0.9459 -82.3859 118.9654)" class="st34" cx="315.5" cy="306.5" rx="7.6" ry="7.5"/>
		</g>
		<circle class="st29" cx="263.3" cy="323.6" r="31.1"/>
		<rect x="249.4" y="302.5" class="st35" width="27.3" height="47.3"/>
		<text transform="matrix(1 0 0 1 249.4083 339.4196)" class="st5 st36 st37">$</text>
	</g>
	<g>
		<g>
			<ellipse class="st26" cx="467.7" cy="142.6" rx="14.2" ry="14.3"/>
			<ellipse class="st13" cx="466.1" cy="142.2" rx="14.2" ry="14.3"/>
			<circle class="st27" cx="466.4" cy="142.4" r="12.3"/>
			<g>
				<g>
					<path class="st12" d="M461.1,145.8c0.7,1.6,2,3.2,5.1,3.2c2.7,0.1,4-1.4,3.9-2.7c-0.1-1.5-1.2-2.3-4-3.2
						c-4.2-1.2-7.1-2.5-7.2-5.1c-0.1-2.9,3.1-4.6,7-4.6c2.5,0,4.7,0.6,6.1,0.9c0.2,0.6,0.8,2.3,1.1,3.6l-1.1,0.2
						c-0.9-2-2.8-3.8-6.2-3.8c-2.5,0-4.2,1-4.1,2.9c0.1,1.5,1.3,2.7,4.3,3.6c4.4,1.4,6.6,2.6,6.7,5c0.1,2.3-2.3,4.2-6.9,4.1
						c-2.4,0-3.7-0.3-5-0.5c-0.3-1-0.5-2-0.8-3.4L461.1,145.8z M466.2,151.7H465l1.2-20.6h1.3L466.2,151.7z"/>
				</g>
			</g>
		</g>
	</g>
</g>
</svg>
