<?xml version="1.0" encoding="utf-8"?>
<!-- Generator: Adobe Illustrator 24.3.0, SVG Export Plug-In . SVG Version: 6.00 Build 0)  -->
<svg version="1.1" id="Layer_1" xmlns="http://www.w3.org/2000/svg" xmlns:xlink="http://www.w3.org/1999/xlink" x="0px" y="0px"
	 viewBox="0 0 283.5 283.5" style="enable-background:new 0 0 283.5 283.5;" xml:space="preserve">
<style type="text/css">
	.st0{fill:#F8B21E;}
</style>
<g>
	<path class="st0" d="M63.7,261.1c0.4-2.5,0.9-5,1.3-7.5c1.4-8.5,2.9-16.9,4.3-25.4c1.3-7.8,2.7-15.6,4-23.4
		c1.4-8.4,2.9-16.9,4.3-25.3c0.2-1.4,0.5-2.8,0.7-4.3c0.1-0.4,0-0.6-0.3-0.9c-1.4-1.2-2.7-2.6-4.1-3.9c-2.4-2.3-4.8-4.6-7.2-7
		c-0.4-0.3-0.7-0.7-1.1-1c-3.3-3.3-6.6-6.6-10-9.8c-3.8-3.7-7.6-7.4-11.4-11.1c-3.7-3.6-7.4-7.2-11-10.8c-3.8-3.7-7.5-7.4-11.3-11
		c-1.9-1.8-3.7-3.7-5.6-5.4c-0.2-0.2-0.5-0.4-0.7-0.6c-0.2-0.1-0.4-0.2-0.4-0.5c0.1-0.2,0.3-0.2,0.5-0.2c1.3-0.2,2.7-0.4,4-0.6
		c3.7-0.5,7.5-1.1,11.2-1.6c5.8-0.8,11.6-1.7,17.4-2.5c5.2-0.8,10.5-1.5,15.7-2.3c5.7-0.8,11.4-1.7,17.1-2.5c5-0.7,10-1.5,15-2.2
		c1.8-0.3,3.5-0.5,5.3-0.7c0.7-0.1,1-0.4,1.3-1c0.1-0.4,0.3-0.8,0.5-1.2c3.3-6.7,6.7-13.4,10-20.1c3.6-7.3,7.2-14.6,10.8-21.8
		c3.7-7.4,7.3-14.9,11-22.3c2-4,4-8.1,5.9-12.1c0.1-0.2,0.2-0.3,0.3-0.5c0.2-0.3,0.3-0.3,0.4,0c0.1,0.3,0.2,0.5,0.3,0.8
		c3.3,6.7,6.6,13.3,9.9,20c3.8,7.7,7.6,15.5,11.5,23.2c3.6,7.3,7.2,14.6,10.8,22c2,4.1,4,8.2,6,12.3c0.2,0.4,0.4,0.6,0.9,0.7
		c5.9,0.9,11.9,1.7,17.8,2.6c4,0.6,8,1.2,12,1.8c5.4,0.8,10.8,1.6,16.2,2.3c5,0.7,10.1,1.5,15.1,2.2c5.7,0.8,11.4,1.7,17.1,2.5
		c2.6,0.4,5.2,0.8,7.8,1.1c0.2,0,0.5,0,0.5,0.3c0.1,0.2-0.1,0.3-0.3,0.4c-0.6,0.5-1.1,1-1.6,1.6c-3.1,3-6.1,6-9.2,9
		c-3.7,3.6-7.4,7.2-11.2,10.9c-3.7,3.6-7.5,7.3-11.2,10.9c-3.8,3.7-7.5,7.4-11.3,11c-3.8,3.6-7.5,7.3-11.3,11
		c-2.1,2-4.1,4.2-6.4,6.1c-0.5,0.4-0.6,0.9-0.5,1.6c1,5.9,2,11.7,3,17.6c1.4,8.2,2.8,16.4,4.2,24.5c1.2,6.9,2.4,13.9,3.6,20.8
		c1.3,7.5,2.6,14.9,3.8,22.4c0,0.2,0.1,0.4,0,0.5c-0.2,0.2-0.4,0-0.6-0.1c-4.5-2.3-8.9-4.7-13.3-7c-3.1-1.6-6.1-3.2-9.2-4.8
		c-7-3.7-13.9-7.3-20.9-11c-3.1-1.6-6.2-3.3-9.3-4.9c-7.1-3.8-14.3-7.5-21.4-11.3c-0.9-0.5-1.8-1-2.8-1.5c-0.4-0.2-0.7-0.2-1.1,0
		c-2.9,1.5-5.8,3.1-8.7,4.6c-2,1.1-4,2.1-6,3.2c-8.1,4.3-16.3,8.5-24.4,12.8c-5.3,2.8-10.6,5.6-16,8.4c-6.5,3.4-13,6.8-19.5,10.3
		c-0.8,0.4-1.6,0.9-2.4,1.3C63.9,261.7,63.7,261.6,63.7,261.1z"/>
</g>
</svg>
