<svg xmlns="http://www.w3.org/2000/svg" xmlns:xlink="http://www.w3.org/1999/xlink" width="204.209" height="203.916" viewBox="0 0 204.209 203.916">
    <defs>
        <linearGradient id="linear-gradient" x1="1.13" x2=".236" y1="1.295" y2=".19" gradientUnits="objectBoundingBox">
            <stop offset="0" stop-color="#dae3fe"/>
            <stop offset="1" stop-color="#e9effd"/>
        </linearGradient>
        <linearGradient id="linear-gradient-2" x2="1" y1=".5" y2=".5" gradientUnits="objectBoundingBox">
            <stop offset="0" stop-color="#4f52ff"/>
            <stop offset="1" stop-color="#4042e2"/>
        </linearGradient>
        <linearGradient id="linear-gradient-3" x1=".5" x2=".5" y1="-1.9" y2=".164" gradientUnits="objectBoundingBox">
            <stop offset="0" stop-color="#ff928e"/>
            <stop offset="1" stop-color="#fe7062"/>
        </linearGradient>
        <linearGradient id="linear-gradient-4" x1=".5" x2=".5" y1="-2.153" y2="-.274" xlink:href="#linear-gradient-3"/>
        <linearGradient id="linear-gradient-5" x1="1.342" x2=".979" y1="-.714" y2="-.25" gradientUnits="objectBoundingBox">
            <stop offset="0" stop-color="#febbba"/>
            <stop offset="1" stop-color="#ff928e"/>
        </linearGradient>
        <linearGradient id="linear-gradient-6" x1=".5" x2=".5" y1="-3.434" y2="-.049" xlink:href="#linear-gradient-5"/>
        <linearGradient id="linear-gradient-7" x1=".5" x2=".5" y1="-16.664" y2="-6.998" xlink:href="#linear-gradient-3"/>
        <linearGradient id="linear-gradient-8" x1=".653" x2=".283" y1="-.225" y2="1.527" xlink:href="#linear-gradient-2"/>
        <linearGradient id="linear-gradient-9" x1=".653" x2=".283" y1="-.62" y2=".969" xlink:href="#linear-gradient-2"/>
        <linearGradient id="linear-gradient-10" x1="-.002" x2="1" y1=".5" y2=".5" xlink:href="#linear-gradient-2"/>
        <linearGradient id="linear-gradient-11" x1="1.095" x2="2.239" y1="-.071" y2="-1.168" xlink:href="#linear-gradient-2"/>
        <linearGradient id="linear-gradient-12" x1="1.242" x2="2.385" y1="-.35" y2="-1.351" xlink:href="#linear-gradient-2"/>
        <linearGradient id="linear-gradient-13" x1="0" x2="1" y1=".5" y2=".5" xlink:href="#linear-gradient"/>
        <linearGradient id="linear-gradient-14" x1="-.001" x2=".999" y1=".501" y2=".501" xlink:href="#linear-gradient-2"/>
        <style>
            .cls-2{fill:#91b3fa}.cls-3{fill:#bdd0fb}.cls-11,.cls-4{fill:#fff}.cls-5{fill:#7d97f4}.cls-11{opacity:.8}
        </style>
    </defs>
    <g id="waiting_page" transform="translate(-321.129 -161.878)">
        <g id="Illustration" transform="translate(321.129 161.878)">
            <g id="Group_111" transform="translate(0 0)">
                <path id="Path_145" fill="url(#linear-gradient)" d="M645.517 630.154a73.413 73.413 0 0 1-11.227 9.454c-36.621 26.28-79.955 18.615-89.167 16.746-13.6-2.763-39.89-8.105-58.893-30.45-28.758-33.822-24.28-87.093-1.979-122.264 4.082-6.435 25.628-42.132 69.431-47.863 26.508-3.466 57.405 3.525 79.787 22.272C680.438 517.4 677.1 596.9 645.517 630.154z" transform="translate(-465.765 -454.921)"/>
                <g id="Group_72" transform="translate(146.732 3.42)">
                    <path id="Path_146" d="M2509.284 564.4a33.789 33.789 0 0 0-2.939-22.308 23.929 23.929 0 0 1-2.06-17.794c.176-.63.33-1.268.455-1.927 1.927-9.923-2.565-19.142-10.026-20.593s-15.075 5.43-17 15.354a23.54 23.54 0 0 0-.4 5.936 24.041 24.041 0 0 1-5.379 16.841 35.391 35.391 0 0 0-7.306 15.823c-1.788 9.227-.022 18.094 4.192 24.382a23.5 23.5 0 0 1 3.386 7.827c1.055 4.639 4.141 8.245 8.333 9.058 4.522.879 9.058-1.744 11.726-6.244a25.052 25.052 0 0 1 5.789-6.632c5.411-4.398 9.617-11.382 11.229-19.723z" class="cls-2" transform="translate(-2463.938 -501.586)"/>
                    <path id="Path_147" d="M2751.2 655.107c-.293 6.75-.806 13.485-1.393 20.212-.146 1.686-.315 3.364-.483 5.042l-.25 2.521-.271 2.521c-.19 1.678-.352 3.357-.557 5.035l-.616 5.027c-.455 3.349-.879 6.7-1.4 10.04-.256 1.671-.476 3.342-.769 5.005l-.843 5c-1.195 6.647-2.558 13.272-4.243 19.817l-.279-.073 1.077-4.939.271-1.231.242-1.239.476-2.484.484-2.484c.161-.828.293-1.664.447-2.492.286-1.664.586-3.32.865-4.983 1.063-6.662 2.037-13.338 2.873-20.029.4-3.349.814-6.7 1.188-10.048l.286-2.514.264-2.514c.176-1.678.352-3.357.513-5.035.344-3.357.674-6.713.967-10.077.315-3.357.594-6.72.872-10.084z" class="cls-3" transform="translate(-2719.861 -643.849)"/>
                </g>
                <g id="Group_73" transform="translate(150.977 28.094)">
                    <path id="Path_148" d="M2573.271 911.231c2.763-9.139 2.272-18.285-.755-25.548a27.139 27.139 0 0 1-.278-20.344c.271-.689.513-1.392.732-2.118 3.327-10.993-.7-21.935-8.985-24.441s-17.7 4.368-21.026 15.361a26.74 26.74 0 0 0-1.143 6.662 27.307 27.307 0 0 1-8.04 18.4 39.959 39.959 0 0 0-10.1 17.024c-3.093 10.216-2.111 20.44 1.927 28.039a26.522 26.522 0 0 1 2.932 9.241c.667 5.365 3.745 9.8 8.391 11.205 5.02 1.517 10.465-.909 14.005-5.68a28.321 28.321 0 0 1 7.321-6.816c6.648-4.349 12.22-11.743 15.019-20.985z" class="cls-3" transform="translate(-2521.858 -838.265)"/>
                    <path id="Path_149" d="M2812.125 1016.058c-1.114 7.592-2.47 15.141-3.906 22.675-.359 1.884-.747 3.76-1.128 5.643l-.572 2.822-.6 2.814c-.4 1.876-.784 3.752-1.209 5.621l-1.282 5.606c-.9 3.73-1.773 7.468-2.741 11.176-.484 1.854-.931 3.723-1.451 5.57l-1.532 5.548c-2.118 7.373-4.427 14.7-7.094 21.891l-.308-.11 1.8-5.46.454-1.363.418-1.378.828-2.748.836-2.748c.278-.916.528-1.839.791-2.763.521-1.847 1.048-3.686 1.554-5.533 1.971-7.4 3.848-14.833 5.563-22.294.828-3.738 1.693-7.468 2.5-11.213l.615-2.807.586-2.814q.593-2.814 1.165-5.628 1.176-5.628 2.257-11.272 1.11-5.639 2.148-11.293z" class="cls-2" transform="translate(-2770.627 -1002.974)"/>
                </g>
                <g id="Group_106" transform="translate(1.021 7.488)">
                    <g id="Group_80" transform="translate(0 34.342)">
                        <g id="Group_74">
                            <path id="Path_150" d="M600.69 1031.27l-62.49-5.57-62.5 6.3v133.821l62.5-3.312 62.491 3.672 62.418-5.606v-132.42z" class="cls-4" transform="translate(-475.7 -1025.7)"/>
                            <path id="Path_151" d="M595.977 1227.975l-59.377 3.144v-126.954l59.377-5.965z" class="cls-5" transform="translate(-532.137 -1092.887)"/>
                            <path id="Path_152" d="M1406.177 1230.123l-59.377-3.481V1098.2l59.377 3.943z" class="cls-5" transform="translate(-1282.96 -1092.887)"/>
                            <path id="Path_153" d="M2216.3 1237.32l-59.3 5.313v-127.98l59.3-2.954z" class="cls-5" transform="translate(-2033.784 -1105.397)"/>
                            <path id="Path_154" fill="#fff" d="M1328.4 1209.812h1.349V1080l-1.349 1.334z" opacity="0.47" transform="translate(-1265.909 -1076.021)"/>
                        </g>
                        <path id="Path_155" fill="url(#linear-gradient-2)" d="M534.472 1176.665c5.086 10.187 16 19.04 25.658 25.071 4.4 2.741 8.992 5.343 14.049 6.479s10.7.63 14.884-2.418c6.083-4.434 8.406-13.514 15.515-15.969 2.924-1.011 6.149-.66 9.146-1.414 3.518-.88 6.464-3.2 9.329-5.431 8.508-6.61 16.848-15.236 27.328-18.1 3.628-.989 7.424-1.708 10.626-3.694 4.954-3.078 7.68-8.692 9.681-14.174a103.976 103.976 0 0 0 5.225-20.7c6.053-.007 10.157.081 15.793-.418-7.878 10.9-13.683 23-16.2 36.211a19.471 19.471 0 0 0-.308 7.746c1.642 7.534 14.584 12.671 20.176 17.23a118.749 118.749 0 0 1 17.142 17.186v9.381c-15.94-16.995-32.18-24.052-49.182-30.582-11.066-7.68-20.8 7.439-22.176 17.325-.623 4.456-.117 9.08-1.341 13.411-2.624 9.3-12.451 14.7-21.891 16.746-6.618 1.436-13.074 2.169-19.054 5.548-5.387 3.034-9.96 4.009-15.713.022-12.459-8.626-24.346-18.329-34.327-29.784-5.13-5.885-14.738-13.235-14.511-21.106.195-5.986-.238-8.302.151-8.566z" transform="translate(-530.009 -1118.556)"/>
                        <g id="Group_75" transform="translate(133.469 78.922)">
                            <path id="Path_156" d="M2337.91 2106.147h-3.21l1.6-3.547z" class="cls-4" transform="translate(-2331.93 -2102.6)"/>
                            <path id="Path_157" d="M2326.73 2139.55h-5.13l2.565-5.65z" class="cls-4" transform="translate(-2319.79 -2131.606)"/>
                            <path id="Path_158" d="M2305.65 2193.344h-8.75l4.375-9.645z" class="cls-4" transform="translate(-2296.9 -2177.756)"/>
                        </g>
                        <g id="Group_76" transform="translate(155.719 83.766)">
                            <path id="Path_159" d="M2641.517 2172.247h-3.217l1.605-3.547z" class="cls-4" transform="translate(-2635.53 -2168.7)"/>
                            <path id="Path_160" d="M2630.337 2205.65h-5.137l2.565-5.65z" class="cls-4" transform="translate(-2623.389 -2197.706)"/>
                            <path id="Path_161" d="M2609.258 2259.445h-8.758l4.375-9.645z" class="cls-4" transform="translate(-2600.5 -2243.856)"/>
                        </g>
                        <g id="Group_77" transform="translate(144.11 92.685)">
                            <path id="Path_162" d="M2474.65 2293.207h-2.55l1.275-2.807z" class="cls-4" transform="translate(-2469.901 -2290.4)"/>
                            <path id="Path_163" d="M2465.774 2319.585h-4.074l2.037-4.485z" class="cls-4" transform="translate(-2460.263 -2313.29)"/>
                            <path id="Path_164" d="M2449.048 2362.351h-6.948l3.474-7.651z" class="cls-4" transform="translate(-2442.1 -2349.988)"/>
                        </g>
                        <g id="Group_78" transform="translate(79.67 39.098)">
                            <path id="Path_165" d="M1595.35 1562.014h-2.55l1.275-2.814z" class="cls-4" transform="translate(-1590.601 -1559.2)"/>
                            <path id="Path_166" d="M1586.468 1588.485h-4.068l2.037-4.485z" class="cls-4" transform="translate(-1580.964 -1582.182)"/>
                            <path id="Path_167" d="M1569.748 1631.151h-6.948l3.474-7.651z" class="cls-4" transform="translate(-1562.8 -1618.788)"/>
                        </g>
                        <g id="Group_79" transform="translate(87.027 44.25)">
                            <path id="Path_168" d="M1695.75 1632.314h-2.55l1.275-2.814z" class="cls-4" transform="translate(-1691.001 -1629.5)"/>
                            <path id="Path_169" d="M1686.967 1658.785h-4.067l2.03-4.485z" class="cls-4" transform="translate(-1681.456 -1652.483)"/>
                            <path id="Path_170" d="M1670.147 1701.544h-6.947l3.474-7.644z" class="cls-4" transform="translate(-1663.2 -1689.18)"/>
                        </g>
                        <path id="Path_171" d="M1778.129 1389.978a.278.278 0 0 0-.279-.279h-6.772a.278.278 0 0 0-.279.279v13.162a.278.278 0 0 0 .279.278h6.772a.278.278 0 0 0 .279-.278zm-5.445 12.415a.081.081 0 0 1-.08.081h-1.019a.081.081 0 0 1-.081-.081v-1.253a.081.081 0 0 1 .081-.081h1.019a.081.081 0 0 1 .08.081zm0-2.125a.081.081 0 0 1-.08.081h-1.019a.081.081 0 0 1-.081-.081v-1.253a.081.081 0 0 1 .081-.081h1.019a.081.081 0 0 1 .08.081zm0-2.133a.081.081 0 0 1-.08.081h-1.019a.081.081 0 0 1-.081-.081v-1.253a.082.082 0 0 1 .081-.081h1.019a.081.081 0 0 1 .08.081zm0-2.133a.081.081 0 0 1-.08.081h-1.019a.081.081 0 0 1-.081-.081v-1.253a.081.081 0 0 1 .081-.081h1.019a.081.081 0 0 1 .08.081zm0-2.125a.081.081 0 0 1-.08.08h-1.019a.081.081 0 0 1-.081-.08v-1.253a.081.081 0 0 1 .081-.081h1.019a.081.081 0 0 1 .08.081zm0-2.133a.081.081 0 0 1-.08.08h-1.019a.081.081 0 0 1-.081-.08v-1.253a.081.081 0 0 1 .081-.081h1.019a.081.081 0 0 1 .08.081zm1.656 10.648a.081.081 0 0 1-.081.081h-1.019a.081.081 0 0 1-.081-.081v-1.253a.081.081 0 0 1 .081-.081h1.019a.081.081 0 0 1 .081.081zm0-2.125a.081.081 0 0 1-.081.081h-1.019a.081.081 0 0 1-.081-.081v-1.253a.081.081 0 0 1 .081-.081h1.019a.081.081 0 0 1 .081.081zm0-2.133a.081.081 0 0 1-.081.081h-1.019a.081.081 0 0 1-.081-.081v-1.253a.081.081 0 0 1 .081-.081h1.019a.081.081 0 0 1 .081.081zm0-2.133a.081.081 0 0 1-.081.081h-1.019a.081.081 0 0 1-.081-.081v-1.253a.081.081 0 0 1 .081-.081h1.019a.081.081 0 0 1 .081.081zm0-2.125a.081.081 0 0 1-.081.08h-1.019a.081.081 0 0 1-.081-.08v-1.253a.081.081 0 0 1 .081-.081h1.019a.081.081 0 0 1 .081.081zm0-2.133a.081.081 0 0 1-.081.08h-1.019a.081.081 0 0 1-.081-.08v-1.253a.081.081 0 0 1 .081-.081h1.019a.081.081 0 0 1 .081.081zm1.422 10.648a.081.081 0 0 1-.081.081h-1.019a.081.081 0 0 1-.081-.081v-1.253a.081.081 0 0 1 .081-.081h1.019a.081.081 0 0 1 .081.081zm0-2.125a.081.081 0 0 1-.081.081h-1.019a.081.081 0 0 1-.081-.081v-1.253a.081.081 0 0 1 .081-.081h1.019a.081.081 0 0 1 .081.081zm0-2.133a.081.081 0 0 1-.081.081h-1.019a.082.082 0 0 1-.081-.081v-1.253a.082.082 0 0 1 .081-.081h1.019a.081.081 0 0 1 .081.081zm0-2.133a.081.081 0 0 1-.081.081h-1.019a.081.081 0 0 1-.081-.081v-1.253a.081.081 0 0 1 .081-.081h1.019a.081.081 0 0 1 .081.081zm0-2.125a.081.081 0 0 1-.081.08h-1.019a.081.081 0 0 1-.081-.08v-1.253a.082.082 0 0 1 .081-.081h1.019a.081.081 0 0 1 .081.081zm0-2.133a.081.081 0 0 1-.081.08h-1.019a.081.081 0 0 1-.081-.08v-1.253a.081.081 0 0 1 .081-.081h1.019a.081.081 0 0 1 .081.081zm1.891 10.648a.081.081 0 0 1-.081.081h-1.019a.081.081 0 0 1-.081-.081v-1.253a.081.081 0 0 1 .081-.081h1.019a.081.081 0 0 1 .081.081zm0-2.125a.081.081 0 0 1-.081.081h-1.019a.081.081 0 0 1-.081-.081v-1.253a.081.081 0 0 1 .081-.081h1.019a.081.081 0 0 1 .081.081zm0-2.133a.081.081 0 0 1-.081.081h-1.019a.081.081 0 0 1-.081-.081v-1.253a.081.081 0 0 1 .081-.081h1.019a.082.082 0 0 1 .081.081zm0-2.133a.081.081 0 0 1-.081.081h-1.019a.081.081 0 0 1-.081-.081v-1.253a.081.081 0 0 1 .081-.081h1.019a.081.081 0 0 1 .081.081zm0-2.125a.081.081 0 0 1-.081.08h-1.019a.081.081 0 0 1-.081-.08v-1.253a.081.081 0 0 1 .081-.081h1.019a.081.081 0 0 1 .081.081zm0-2.133a.081.081 0 0 1-.081.08h-1.019a.081.081 0 0 1-.081-.08v-1.253a.081.081 0 0 1 .081-.081h1.019a.081.081 0 0 1 .081.081z" class="cls-4" transform="translate(-1675.887 -1363.024)"/>
                        <path id="Path_172" d="M2036.328 1402.879a.278.278 0 0 0-.279-.279h-6.771a.278.278 0 0 0-.279.279v13.162a.279.279 0 0 0 .279.279h6.771a.278.278 0 0 0 .279-.279zm-5.438 12.414a.081.081 0 0 1-.081.081h-1.019a.081.081 0 0 1-.081-.081v-1.253a.081.081 0 0 1 .081-.081h1.019a.081.081 0 0 1 .081.081zm0-2.125a.081.081 0 0 1-.081.081h-1.019a.081.081 0 0 1-.081-.081v-1.253a.081.081 0 0 1 .081-.081h1.019a.081.081 0 0 1 .081.081zm0-2.133a.081.081 0 0 1-.081.081h-1.019a.081.081 0 0 1-.081-.081v-1.253a.081.081 0 0 1 .081-.08h1.019a.081.081 0 0 1 .081.08zm0-2.125a.081.081 0 0 1-.081.081h-1.019a.081.081 0 0 1-.081-.081v-1.253a.081.081 0 0 1 .081-.081h1.019a.081.081 0 0 1 .081.081zm0-2.133a.081.081 0 0 1-.081.081h-1.019a.081.081 0 0 1-.081-.081v-1.253a.081.081 0 0 1 .081-.081h1.019a.081.081 0 0 1 .081.081zm0-2.125a.081.081 0 0 1-.081.081h-1.019a.081.081 0 0 1-.081-.081v-1.252a.081.081 0 0 1 .081-.081h1.019a.081.081 0 0 1 .081.081zm1.656 10.641a.081.081 0 0 1-.081.081h-1.019a.081.081 0 0 1-.081-.081v-1.253a.081.081 0 0 1 .081-.081h1.019a.081.081 0 0 1 .081.081zm0-2.125a.081.081 0 0 1-.081.081h-1.019a.081.081 0 0 1-.081-.081v-1.253a.081.081 0 0 1 .081-.081h1.019a.081.081 0 0 1 .081.081zm0-2.133a.081.081 0 0 1-.081.081h-1.019a.081.081 0 0 1-.081-.081v-1.253a.081.081 0 0 1 .081-.08h1.019a.081.081 0 0 1 .081.08zm0-2.125a.081.081 0 0 1-.081.081h-1.019a.081.081 0 0 1-.081-.081v-1.253a.081.081 0 0 1 .081-.081h1.019a.081.081 0 0 1 .081.081zm0-2.133a.081.081 0 0 1-.081.081h-1.019a.081.081 0 0 1-.081-.081v-1.253a.081.081 0 0 1 .081-.081h1.019a.081.081 0 0 1 .081.081zm0-2.125a.081.081 0 0 1-.081.081h-1.019a.081.081 0 0 1-.081-.081v-1.252a.081.081 0 0 1 .081-.081h1.019a.081.081 0 0 1 .081.081zm1.414 10.641a.081.081 0 0 1-.081.081h-1.019a.081.081 0 0 1-.081-.081v-1.253a.081.081 0 0 1 .081-.081h1.019a.081.081 0 0 1 .081.081zm0-2.125a.081.081 0 0 1-.081.081h-1.019a.081.081 0 0 1-.081-.081v-1.253a.081.081 0 0 1 .081-.081h1.019a.081.081 0 0 1 .081.081zm0-2.133a.081.081 0 0 1-.081.081h-1.019a.081.081 0 0 1-.081-.081v-1.253a.081.081 0 0 1 .081-.08h1.019a.081.081 0 0 1 .081.08zm0-2.125a.081.081 0 0 1-.081.081h-1.019a.081.081 0 0 1-.081-.081v-1.253a.081.081 0 0 1 .081-.081h1.019a.081.081 0 0 1 .081.081zm0-2.133a.081.081 0 0 1-.081.081h-1.019a.081.081 0 0 1-.081-.081v-1.253a.081.081 0 0 1 .081-.081h1.019a.081.081 0 0 1 .081.081zm0-2.125a.081.081 0 0 1-.081.081h-1.019a.081.081 0 0 1-.081-.081v-1.252a.081.081 0 0 1 .081-.081h1.019a.081.081 0 0 1 .081.081zm1.9 10.641a.081.081 0 0 1-.081.081h-1.019a.082.082 0 0 1-.081-.081v-1.253a.082.082 0 0 1 .081-.081h1.019a.081.081 0 0 1 .081.081zm0-2.125a.081.081 0 0 1-.081.081h-1.019a.082.082 0 0 1-.081-.081v-1.253a.082.082 0 0 1 .081-.081h1.019a.081.081 0 0 1 .081.081zm0-2.133a.081.081 0 0 1-.081.081h-1.019a.081.081 0 0 1-.081-.081v-1.253a.081.081 0 0 1 .081-.08h1.019a.081.081 0 0 1 .081.08zm0-2.125a.081.081 0 0 1-.081.081h-1.019a.081.081 0 0 1-.081-.081v-1.253a.081.081 0 0 1 .081-.081h1.019a.081.081 0 0 1 .081.081zm0-2.133a.081.081 0 0 1-.081.081h-1.019a.081.081 0 0 1-.081-.081v-1.253a.081.081 0 0 1 .081-.081h1.019a.081.081 0 0 1 .081.081zm0-2.125a.081.081 0 0 1-.081.081h-1.019a.081.081 0 0 1-.081-.081v-1.252a.081.081 0 0 1 .081-.081h1.019a.081.081 0 0 1 .081.081z" class="cls-4" transform="translate(-1915.164 -1374.978)"/>
                        <path id="Path_173" d="M1901.347 1451.308a.31.31 0 0 0-.308-.308h-7.431a.31.31 0 0 0-.308.308v14.292a.309.309 0 0 0 .308.308h7.439a.309.309 0 0 0 .308-.308v-14.291zm-6.149 13.565a.085.085 0 0 1-.088.088h-1a.085.085 0 0 1-.088-.088v-1.48a.085.085 0 0 1 .088-.088h1a.085.085 0 0 1 .088.088zm0-2.367a.085.085 0 0 1-.088.088h-1a.085.085 0 0 1-.088-.088v-1.48a.085.085 0 0 1 .088-.088h1a.085.085 0 0 1 .088.088zm0-2.133a.085.085 0 0 1-.088.088h-1a.085.085 0 0 1-.088-.088v-1.48a.085.085 0 0 1 .088-.088h1a.085.085 0 0 1 .088.088zm0-2.36a.085.085 0 0 1-.088.088h-1a.085.085 0 0 1-.088-.088v-1.48a.085.085 0 0 1 .088-.088h1a.085.085 0 0 1 .088.088zm0-2.367a.085.085 0 0 1-.088.088h-1a.085.085 0 0 1-.088-.088v-1.48a.085.085 0 0 1 .088-.088h1a.085.085 0 0 1 .088.088zm0-2.367a.085.085 0 0 1-.088.088h-1a.085.085 0 0 1-.088-.088v-1.48a.085.085 0 0 1 .088-.088h1a.085.085 0 0 1 .088.088zm1.891 11.594a.085.085 0 0 1-.088.088h-1a.085.085 0 0 1-.088-.088v-1.48a.085.085 0 0 1 .088-.088h1a.085.085 0 0 1 .088.088zm0-2.367a.085.085 0 0 1-.088.088h-1a.085.085 0 0 1-.088-.088v-1.48a.085.085 0 0 1 .088-.088h1a.085.085 0 0 1 .088.088zm0-2.133a.085.085 0 0 1-.088.088h-1a.085.085 0 0 1-.088-.088v-1.48a.085.085 0 0 1 .088-.088h1a.085.085 0 0 1 .088.088zm0-2.36a.085.085 0 0 1-.088.088h-1a.085.085 0 0 1-.088-.088v-1.48a.085.085 0 0 1 .088-.088h1a.085.085 0 0 1 .088.088zm0-2.367a.085.085 0 0 1-.088.088h-1a.085.085 0 0 1-.088-.088v-1.48a.085.085 0 0 1 .088-.088h1a.085.085 0 0 1 .088.088zm0-2.367a.085.085 0 0 1-.088.088h-1a.085.085 0 0 1-.088-.088v-1.48a.085.085 0 0 1 .088-.088h1a.085.085 0 0 1 .088.088zm1.656 11.594a.085.085 0 0 1-.088.088h-1a.085.085 0 0 1-.088-.088v-1.48a.085.085 0 0 1 .088-.088h1a.085.085 0 0 1 .088.088zm0-2.367a.085.085 0 0 1-.088.088h-1a.085.085 0 0 1-.088-.088v-1.48a.085.085 0 0 1 .088-.088h1a.085.085 0 0 1 .088.088zm0-2.133a.085.085 0 0 1-.088.088h-1a.085.085 0 0 1-.088-.088v-1.48a.085.085 0 0 1 .088-.088h1a.085.085 0 0 1 .088.088zm0-2.36a.085.085 0 0 1-.088.088h-1a.085.085 0 0 1-.088-.088v-1.48a.085.085 0 0 1 .088-.088h1a.085.085 0 0 1 .088.088zm0-2.367a.085.085 0 0 1-.088.088h-1a.085.085 0 0 1-.088-.088v-1.48a.085.085 0 0 1 .088-.088h1a.085.085 0 0 1 .088.088zm0-2.367a.085.085 0 0 1-.088.088h-1a.085.085 0 0 1-.088-.088v-1.48a.085.085 0 0 1 .088-.088h1a.085.085 0 0 1 .088.088zm1.891 11.594a.085.085 0 0 1-.088.088h-1a.085.085 0 0 1-.088-.088v-1.48a.085.085 0 0 1 .088-.088h1a.085.085 0 0 1 .088.088zm0-2.367a.085.085 0 0 1-.088.088h-1a.085.085 0 0 1-.088-.088v-1.48a.085.085 0 0 1 .088-.088h1a.085.085 0 0 1 .088.088zm0-2.133a.085.085 0 0 1-.088.088h-1a.085.085 0 0 1-.088-.088v-1.48a.085.085 0 0 1 .088-.088h1a.085.085 0 0 1 .088.088zm0-2.36a.085.085 0 0 1-.088.088h-1a.085.085 0 0 1-.088-.088v-1.48a.085.085 0 0 1 .088-.088h1a.085.085 0 0 1 .088.088zm0-2.367a.085.085 0 0 1-.088.088h-1a.085.085 0 0 1-.088-.088v-1.48a.085.085 0 0 1 .088-.088h1a.085.085 0 0 1 .088.088zm0-2.367a.085.085 0 0 1-.088.088h-1a.085.085 0 0 1-.088-.088v-1.48a.085.085 0 0 1 .088-.088h1a.085.085 0 0 1 .088.088z" class="cls-4" transform="translate(-1789.409 -1419.831)"/>
                    </g>
                    <g id="Group_81" transform="translate(2.493 41.065)">
                        <path id="Path_174" d="M510.327 1350.725a.612.612 0 0 1-.476-1l1.883-2.257a.614.614 0 0 1 .945.784l-1.883 2.257a.62.62 0 0 1-.469.216zm3.767-4.522a.612.612 0 0 1-.476-1l1.883-2.257a.614.614 0 1 1 .945.784l-1.883 2.257a.6.6 0 0 1-.469.213zm3.767-4.522a.612.612 0 0 1-.476-1l1.883-2.257a.614.614 0 1 1 .945.784l-1.883 2.257a.6.6 0 0 1-.469.216zm3.767-4.514a.612.612 0 0 1-.476-1l1.883-2.257a.614.614 0 1 1 .945.784l-1.883 2.257a.621.621 0 0 1-.469.216zm3.767-4.522a.612.612 0 0 1-.476-1l1.883-2.257a.614.614 0 1 1 .945.784l-1.883 2.257a.6.6 0 0 1-.469.216zm3.767-4.522a.612.612 0 0 1-.476-1l1.883-2.257a.614.614 0 1 1 .945.784l-1.884 2.257a.6.6 0 0 1-.468.216zm3.767-4.522a.612.612 0 0 1-.476-1l1.883-2.257a.614.614 0 1 1 .945.784l-1.883 2.257a.6.6 0 0 1-.469.215zm3.767-4.514a.612.612 0 0 1-.476-1l1.883-2.257a.614.614 0 0 1 .945.784l-1.883 2.257a.621.621 0 0 1-.465.216zm3.767-4.522a.612.612 0 0 1-.476-1l1.883-2.257a.614.614 0 1 1 .945.784l-1.883 2.257a.6.6 0 0 1-.469.217zm3.767-4.522a.612.612 0 0 1-.476-1l1.883-2.257a.614.614 0 0 1 .945.784l-1.884 2.257a.6.6 0 0 1-.469.217zm3.767-4.514a.612.612 0 0 1-.476-1l1.883-2.257a.614.614 0 1 1 .945.784l-1.883 2.257a.621.621 0 0 1-.466.216zm4.353-3.694a.614.614 0 0 1-.212-1.187l2.756-1.019a.61.61 0 0 1 .425 1.143l-2.756 1.019a.578.578 0 0 1-.214.045zm5.518-2.045a.613.613 0 0 1-.212-1.187l2.755-1.019a.61.61 0 1 1 .425 1.143l-2.756 1.019a.578.578 0 0 1-.212.045zm5.511-2.045a.614.614 0 0 1-.213-1.187l2.756-1.019a.61.61 0 1 1 .425 1.143l-2.756 1.019a.526.526 0 0 1-.212.045zm5.519-2.045a.614.614 0 0 1-.213-1.187l1.07-.4c.542-.235 1.077-.469 1.612-.7a.612.612 0 1 1 .491 1.121c-.542.242-1.085.476-1.634.718l-.029.015-1.085.4a.681.681 0 0 1-.21.033zm5.408-2.316a.607.607 0 0 1-.557-.359.618.618 0 0 1 .308-.814c.931-.425 1.832-.835 2.66-1.231a.611.611 0 0 1 .52 1.107c-.843.4-1.744.813-2.682 1.238a.5.5 0 0 1-.249.061zm5.321-2.514a.615.615 0 0 1-.271-1.165c.909-.447 1.788-.9 2.609-1.334a.613.613 0 1 1 .572 1.084c-.828.44-1.715.894-2.631 1.349a.555.555 0 0 1-.279.068zm5.2-2.748a.62.62 0 0 1-.535-.308.612.612 0 0 1 .227-.835c.887-.506 1.722-1.011 2.5-1.5a.611.611 0 0 1 .652 1.033c-.791.5-1.642 1.019-2.543 1.532a.636.636 0 0 1-.298.08zm4.954-3.173a.628.628 0 0 1-.5-.249.617.617 0 0 1 .132-.857c.828-.6 1.583-1.209 2.25-1.8a.613.613 0 1 1 .813.916c-.7.616-1.488 1.246-2.345 1.869a.531.531 0 0 1-.347.123zm40.615-.374l-.227-.11c-.836-.4-1.715-.784-2.609-1.143a.615.615 0 0 1 .454-1.143c.872.344 1.722.718 2.536 1.106a.613.613 0 0 1 .132 1.187zm2.851-1.048a.615.615 0 0 1-.205-1.195l2.77-.99a.614.614 0 0 1 .41 1.158l-2.77.989a.673.673 0 0 1-.202.04zm-8.23-1.158a.571.571 0 0 1-.19-.029c-.894-.293-1.832-.572-2.785-.828a.611.611 0 1 1 .315-1.18c.975.264 1.935.542 2.851.843a.6.6 0 0 1 .388.77.611.611 0 0 1-.576.426zm13.771-.821a.615.615 0 0 1-.205-1.195l2.77-.989a.614.614 0 0 1 .41 1.158l-2.77.989a.487.487 0 0 1-.202.039zm-44.646-.52a.63.63 0 0 1-.4-.147.622.622 0 0 1-.073-.865 12.961 12.961 0 0 0 1.473-2.1l.176-.315h.608a.615.615 0 0 1 .616.615.607.607 0 0 1-.5.6 14.787 14.787 0 0 1-1.436 2 .613.613 0 0 1-.461.214zm25.2-.183a.8.8 0 0 1-.132-.015c-.923-.2-1.891-.388-2.866-.557a.614.614 0 0 1 .213-1.209c.989.169 1.971.359 2.909.564a.616.616 0 0 1-.125 1.217zm-5.8-1.011a.27.27 0 0 1-.081-.007c-.938-.125-1.913-.242-2.9-.344a.621.621 0 0 1-.55-.674.612.612 0 0 1 .674-.55c1 .1 1.993.22 2.939.352a.615.615 0 0 1-.081 1.224zm30.795-.256a.615.615 0 0 1-.205-1.195l.726-.256a.614.614 0 1 1 .41 1.158l-.726.256a.711.711 0 0 1-.204.038zm-36.643-.352h-.044c-.945-.073-1.927-.132-2.924-.191a.613.613 0 1 1 .066-1.224c1 .051 1.993.117 2.953.19a.613.613 0 0 1-.051 1.224zm-5.878-.315h-.016c-.953-.029-1.935-.051-2.931-.066a.613.613 0 0 1-.6-.623.6.6 0 0 1 .623-.6c1 .015 1.993.036 2.953.066a.612.612 0 0 1-.022 1.224z" class="cls-4" transform="translate(-509.713 -1265.862)"/>
                        <path id="Path_175" d="M747.363 1353.478a.711.711 0 0 1-.205-.037.6.6 0 0 1-.374-.777c.322-.923.667-1.861 1.019-2.777a.612.612 0 1 1 1.143.44c-.344.909-.682 1.832-1 2.741a.622.622 0 0 1-.583.41zm-111.058-.022a.612.612 0 0 1-.227-1.18c.916-.374 1.825-.74 2.741-1.1a.615.615 0 1 1 .454 1.143q-1.363.539-2.726 1.1a.922.922 0 0 1-.247.037zm108.83-.718a.621.621 0 0 1-.315-.088c-.828-.5-1.686-.989-2.528-1.473a.612.612 0 1 1 .608-1.063c.857.484 1.715.982 2.558 1.488a.612.612 0 0 1 .213.843.659.659 0 0 1-.536.293zm-103.348-1.451a.606.606 0 0 1-.572-.4.612.612 0 0 1 .352-.792c.923-.359 1.839-.7 2.756-1.055a.615.615 0 1 1 .432 1.151c-.916.344-1.832.7-2.748 1.048a.591.591 0 0 1-.221.047zm98.226-1.458a.621.621 0 0 1-.293-.073c-.857-.462-1.73-.923-2.594-1.363a.615.615 0 1 1 .564-1.092c.872.447 1.752.909 2.616 1.378a.609.609 0 0 1 .249.828.6.6 0 0 1-.543.321zm-92.715-.623a.622.622 0 0 1-.579-.4.608.608 0 0 1 .366-.784c.923-.337 1.854-.674 2.778-1a.614.614 0 1 1 .41 1.158c-.923.33-1.839.66-2.763 1a.542.542 0 0 1-.21.025zm102.168-1.224a.521.521 0 0 1-.234-.051.608.608 0 0 1-.33-.8c.374-.9.777-1.818 1.18-2.712a.615.615 0 1 1 1.121.506c-.4.887-.792 1.788-1.165 2.682a.622.622 0 0 1-.572.374zm-96.613-.74a.61.61 0 0 1-.2-1.187c.931-.322 1.869-.637 2.8-.945a.614.614 0 0 1 .388 1.165c-.931.308-1.854.623-2.785.938a1.064 1.064 0 0 1-.203.028zm81.927-.1a.72.72 0 0 1-.271-.059c-.872-.425-1.759-.843-2.646-1.253a.613.613 0 0 1 .513-1.114c.894.411 1.8.835 2.668 1.268a.608.608 0 0 1-.264 1.158zm-76.335-1.766a.628.628 0 0 1-.586-.425.611.611 0 0 1 .4-.77c.938-.3 1.876-.594 2.814-.887a.614.614 0 0 1 .366 1.173c-.931.286-1.869.579-2.807.879a.533.533 0 0 1-.188.034zm70.992-.7a.606.606 0 0 1-.249-.051c-.887-.388-1.8-.777-2.7-1.151a.611.611 0 1 1 .469-1.129c.909.374 1.825.769 2.719 1.158a.612.612 0 0 1 .315.806.6.6 0 0 1-.554.374zm-65.364-1.041a.614.614 0 0 1-.176-1.2c.938-.278 1.891-.557 2.836-.821a.613.613 0 1 1 .33 1.18c-.945.271-1.891.542-2.821.821a.625.625 0 0 1-.169.028zm87.819-1.019a.721.721 0 0 1-.271-.059.613.613 0 0 1-.286-.821c.425-.879.872-1.766 1.334-2.638a.613.613 0 1 1 1.085.572c-.454.865-.894 1.744-1.319 2.609a.6.6 0 0 1-.543.345zm-27.885-.2a.656.656 0 0 1-.227-.044c-.894-.352-1.818-.7-2.741-1.041a.61.61 0 1 1 .425-1.143c.931.344 1.854.7 2.763 1.055a.607.607 0 0 1-.22 1.173zm-54.268-.388a.615.615 0 0 1-.161-1.209c.953-.256 1.913-.513 2.858-.755a.613.613 0 0 1 .308 1.187c-.938.242-1.891.491-2.844.755a.567.567 0 0 1-.162.032zm5.709-1.473a.614.614 0 0 1-.147-1.209c.953-.234 1.92-.462 2.873-.682a.613.613 0 0 1 .271 1.195c-.945.22-1.913.447-2.858.681a.9.9 0 0 1-.14.025zm43.041-.176a.716.716 0 0 1-.205-.037c-.916-.322-1.847-.638-2.778-.938a.614.614 0 0 1 .388-1.165c.938.308 1.876.623 2.8.945a.606.606 0 0 1 .374.784.614.614 0 0 1-.58.421zm-37.3-1.151a.618.618 0 0 1-.6-.484.607.607 0 0 1 .469-.725c.967-.213 1.935-.418 2.887-.608a.614.614 0 0 1 .249 1.2c-.945.19-1.913.4-2.873.6a.809.809 0 0 1-.136.027zm31.711-.689a.562.562 0 0 1-.183-.029c-.931-.286-1.876-.572-2.807-.843a.615.615 0 1 1 .344-1.18c.938.271 1.891.557 2.829.85a.615.615 0 0 1-.183 1.2zm-25.943-.484a.613.613 0 0 1-.11-1.217c.967-.183 1.95-.359 2.909-.528a.614.614 0 1 1 .213 1.209c-.953.169-1.927.344-2.887.52a.71.71 0 0 1-.129.027zm67.658-.652a.562.562 0 0 1-.3-.081.62.62 0 0 1-.242-.835c.469-.85.967-1.715 1.466-2.565a.611.611 0 1 1 1.055.616c-.5.843-.982 1.7-1.451 2.543a.592.592 0 0 1-.532.332zm-61.854-.359a.606.606 0 0 1-.6-.52.618.618 0 0 1 .513-.7c.975-.154 1.957-.3 2.924-.44a.615.615 0 0 1 .176 1.217c-.953.139-1.935.286-2.9.44a.584.584 0 0 1-.117.013zm14.489-.147a.605.605 0 0 1-.161-.022c-.931-.249-1.883-.505-2.836-.748a.613.613 0 0 1 .308-1.187c.96.242 1.92.5 2.858.748a.613.613 0 0 1 .432.755.633.633 0 0 1-.605.465zm-8.655-.682a.611.611 0 0 1-.081-1.217c.967-.125 1.949-.242 2.931-.352a.612.612 0 0 1 .132 1.217c-.975.11-1.957.227-2.917.345a.185.185 0 0 1-.069.018zm59-3.884a.588.588 0 0 1-.322-.1.615.615 0 0 1-.2-.843c.506-.821 1.041-1.656 1.583-2.5a.615.615 0 0 1 1.033.667c-.535.828-1.063 1.664-1.568 2.477a.629.629 0 0 1-.535.31zm3.2-4.94a.671.671 0 0 1-.344-.1.621.621 0 0 1-.169-.85c.542-.8 1.107-1.62 1.671-2.433a.61.61 0 1 1 1 .7c-.564.806-1.129 1.62-1.664 2.411a.562.562 0 0 1-.508.281zm3.379-4.815a.6.6 0 0 1-.359-.117.618.618 0 0 1-.139-.858c.557-.769 1.143-1.568 1.752-2.374a.613.613 0 1 1 .982.733c-.6.806-1.187 1.6-1.737 2.36a.615.615 0 0 1-.513.268zm3.525-4.712a.636.636 0 0 1-.374-.125.609.609 0 0 1-.11-.858c.586-.762 1.195-1.546 1.81-2.323a.615.615 0 0 1 .857-.1.609.609 0 0 1 .1.858c-.616.777-1.217 1.554-1.8 2.316a.608.608 0 0 1-.497.243zm3.642-4.617a.583.583 0 0 1-.381-.139.616.616 0 0 1-.1-.865c.608-.755 1.231-1.517 1.861-2.287a.614.614 0 1 1 .945.784c-.63.762-1.246 1.524-1.854 2.279a.631.631 0 0 1-.485.239zm4.023-4.031a.613.613 0 0 1-.1-1.217c.9-.161 1.847-.381 2.8-.652a.61.61 0 0 1 .337 1.173 28.992 28.992 0 0 1-2.931.682.233.233 0 0 1-.119.026zm5.658-1.6a.606.606 0 0 1-.572-.4.618.618 0 0 1 .352-.791c.88-.337 1.781-.718 2.668-1.136a.611.611 0 0 1 .52 1.107c-.916.432-1.839.828-2.748 1.173a.588.588 0 0 1-.234.061zm5.328-2.5a.6.6 0 0 1-.535-.315.621.621 0 0 1 .235-.835c.835-.469 1.678-.967 2.492-1.5a.615.615 0 0 1 .667 1.033c-.836.542-1.7 1.055-2.558 1.532a.562.562 0 0 1-.315.1zm4.939-3.188a.6.6 0 0 1-.491-.249.611.611 0 0 1 .132-.858c.777-.572 1.546-1.18 2.279-1.8a.614.614 0 1 1 .792.938c-.755.638-1.539 1.26-2.338 1.847a.644.644 0 0 1-.387.137zm4.5-3.789a.605.605 0 0 1-.44-.191.613.613 0 0 1 .015-.865c.7-.674 1.378-1.37 2.023-2.081a.612.612 0 0 1 .909.821c-.66.726-1.356 1.444-2.081 2.14a.6.6 0 0 1-.44.191zm3.943-4.361a.6.6 0 0 1-.374-.132.608.608 0 0 1-.1-.858c.6-.769 1.165-1.561 1.693-2.345a.614.614 0 1 1 1.026.674c-.542.813-1.129 1.634-1.744 2.426a.657.657 0 0 1-.515.25zm3.239-4.91a.621.621 0 0 1-.293-.073.609.609 0 0 1-.249-.828c.462-.85.887-1.73 1.26-2.594a.614.614 0 0 1 1.129.484c-.388.9-.828 1.81-1.312 2.7a.6.6 0 0 1-.548.326zm2.309-5.394a.53.53 0 0 1-.183-.029.615.615 0 0 1-.4-.77 26.768 26.768 0 0 0 .711-2.785.612.612 0 0 1 1.2.235 27.78 27.78 0 0 1-.747 2.909.607.607 0 0 1-.595.456zm1.143-5.76h-.051a.609.609 0 0 1-.557-.66c.044-.52.073-1.055.081-1.576a.612.612 0 0 1 1.224.022c-.015.55-.037 1.107-.088 1.649a.619.619 0 0 1-.623.58z" class="cls-4" transform="translate(-626.463 -1263.354)"/>
                        <path id="Path_176" d="M2180.646 2371.879a27.177 27.177 0 0 1-3-.169.616.616 0 0 1 .139-1.224 24.617 24.617 0 0 0 2.844.161.621.621 0 0 1 .623.616.6.6 0 0 1-.606.616zm2.931-.169a.614.614 0 0 1-.073-1.224 24.442 24.442 0 0 0 2.822-.5.614.614 0 0 1 .286 1.195 25.387 25.387 0 0 1-2.968.527.2.2 0 0 0-.067.002zm-8.765-.491a1.036 1.036 0 0 1-.139-.014 27.035 27.035 0 0 1-2.888-.828.612.612 0 0 1 .4-1.158 26.9 26.9 0 0 0 2.763.792.612.612 0 0 1 .461.732.6.6 0 0 1-.596.476zm14.474-.872a.622.622 0 0 1-.579-.4.608.608 0 0 1 .366-.784 25.935 25.935 0 0 0 2.631-1.136.611.611 0 1 1 .55 1.092 26.2 26.2 0 0 1-2.763 1.195.636.636 0 0 1-.205.033zm-20.029-1.033a.623.623 0 0 1-.257-.059c-.894-.418-1.788-.887-2.653-1.4a.615.615 0 1 1 .63-1.056 28.071 28.071 0 0 0 2.543 1.341.614.614 0 0 1 .3.813.625.625 0 0 1-.563.361zm25.276-1.6a.607.607 0 0 1-.513-.279.615.615 0 0 1 .183-.85c.63-.41 1.253-.85 1.854-1.319a.611.611 0 0 1 .748.967c-.63.484-1.283.946-1.935 1.378a.623.623 0 0 1-.336.106zm-30.326-1.4a.6.6 0 0 1-.359-.117c-.8-.586-1.583-1.217-2.338-1.876a.613.613 0 1 1 .813-.916c.726.637 1.48 1.246 2.25 1.81a.618.618 0 0 1 .132.857.632.632 0 0 1-.497.245zm-4.412-3.884a.634.634 0 0 1-.447-.19c-.682-.711-1.341-1.473-1.964-2.257a.615.615 0 1 1 .96-.77c.608.755 1.246 1.488 1.9 2.177a.613.613 0 0 1-.022.865.571.571 0 0 1-.422.177zm-3.672-4.58a.6.6 0 0 1-.506-.271c-.55-.813-1.077-1.671-1.576-2.543a.612.612 0 0 1 1.063-.608c.476.843.989 1.671 1.524 2.462a.608.608 0 0 1-.169.85.547.547 0 0 1-.335.112zm-2.9-5.115a.628.628 0 0 1-.557-.352c-.418-.887-.813-1.81-1.18-2.741a.613.613 0 0 1 1.144-.44c.352.9.74 1.8 1.143 2.661a.6.6 0 0 1-.293.813.506.506 0 0 1-.258.061zm-2.133-5.474a.612.612 0 0 1-.586-.432c-.293-.938-.564-1.906-.8-2.873a.611.611 0 1 1 1.187-.293c.235.945.491 1.883.777 2.792a.616.616 0 0 1-.4.77.362.362 0 0 1-.178.037zm-1.407-5.7a.606.606 0 0 1-.6-.505c-.176-.968-.33-1.957-.447-2.939a.613.613 0 0 1 1.217-.146c.117.96.264 1.927.44 2.873a.614.614 0 0 1-.491.711c-.046-.002-.083.005-.12.005z" class="cls-4" transform="translate(-2028.519 -2248.021)"/>
                        <path id="Path_177" d="M2638.852 1160.861a.632.632 0 0 1-.234-.044.608.608 0 0 1-.33-.8c.374-.9.74-1.817 1.077-2.712a.615.615 0 1 1 1.151.432c-.344.909-.711 1.839-1.092 2.755a.627.627 0 0 1-.572.369zm2.067-5.5a.547.547 0 0 1-.191-.029.612.612 0 0 1-.388-.777c.308-.931.6-1.862.865-2.785a.615.615 0 0 1 1.18.344c-.271.938-.564 1.891-.879 2.829a.638.638 0 0 1-.587.414zm1.627-5.658a.98.98 0 0 1-.147-.015.609.609 0 0 1-.447-.74c.235-.953.44-1.906.623-2.844a.612.612 0 0 1 1.2.234c-.191.953-.4 1.935-.638 2.9a.6.6 0 0 1-.591.462zm1.136-5.768a.358.358 0 0 1-.088-.007.618.618 0 0 1-.52-.7c.139-.967.264-1.935.352-2.887a.611.611 0 1 1 1.217.117c-.1.975-.212 1.964-.359 2.953a.613.613 0 0 1-.602.521zm.557-5.856h-.029a.614.614 0 0 1-.586-.638c.037-.791.051-1.59.051-2.382v-.528a.613.613 0 0 1 .608-.616h.007a.618.618 0 0 1 .615.609v.542c0 .8-.015 1.62-.051 2.433a.612.612 0 0 1-.615.577zm-.059-5.877a.61.61 0 0 1-.608-.572c-.066-.967-.154-1.942-.271-2.895a.613.613 0 0 1 1.217-.146c.117.975.212 1.971.278 2.961a.614.614 0 0 1-.572.652zm-.718-5.841a.606.606 0 0 1-.6-.506c-.168-.945-.373-1.905-.6-2.844a.614.614 0 0 1 1.195-.286c.227.96.44 1.942.615 2.909a.614.614 0 0 1-.491.711.341.341 0 0 1-.119.013zm-1.37-5.716a.609.609 0 0 1-.586-.44c-.19-.645-.4-1.3-.623-1.949a.612.612 0 0 1 1.158-.4c.227.66.44 1.334.638 1.994a.614.614 0 0 1-.41.762.493.493 0 0 1-.178.029z" class="cls-4" transform="translate(-2482.247 -1117.442)"/>
                        <path id="Path_178" d="M1020.131 1172.725a.6.6 0 0 1-.579-.418c-.308-.945-.594-1.905-.843-2.858a.613.613 0 1 1 1.187-.308c.242.923.52 1.861.821 2.785a.618.618 0 0 1-.388.777.917.917 0 0 1-.198.022zm-1.488-5.687a.618.618 0 0 1-.6-.5c-.191-.975-.352-1.964-.476-2.946a.614.614 0 1 1 1.216-.161c.125.953.279 1.92.462 2.865a.615.615 0 0 1-.484.718.212.212 0 0 1-.117.024zm-.748-5.833a.6.6 0 0 1-.608-.572c-.059-.967-.088-1.942-.088-2.917v-.066a.616.616 0 0 1 1.231 0v.066c0 .945.029 1.9.088 2.836a.614.614 0 0 1-.572.652zm.007-5.878h-.037a.615.615 0 0 1-.572-.652c.066-.975.154-1.979.279-2.968a.613.613 0 1 1 1.217.146c-.117.968-.213 1.942-.271 2.895a.617.617 0 0 1-.618.579zm.718-5.841a.547.547 0 0 1-.11-.007.609.609 0 0 1-.491-.711c.176-.96.381-1.942.608-2.91a.614.614 0 0 1 1.195.286c-.227.953-.425 1.906-.6 2.844a.606.606 0 0 1-.6.498zm1.356-5.716a.607.607 0 0 1-.586-.784c.271-.931.572-1.884.894-2.829a.612.612 0 1 1 1.158.4c-.315.931-.616 1.862-.879 2.778a.6.6 0 0 1-.586.435z" class="cls-4" transform="translate(-980.008 -1138.108)"/>
                    </g>
                    <g id="Group_89" transform="translate(122.519)">
                        <g id="Group_88">
                            <g id="Group_85">
                                <g id="Group_82" transform="translate(0.45 0.271)">
                                    <circle id="Ellipse_50" cx="15.09" cy="15.09" r="15.09" fill="url(#linear-gradient-3)" transform="translate(0.02)"/>
                                    <path id="Path_179" fill="url(#linear-gradient-4)" d="M2183.8 751.9h-30.15s-1.2 8.509 12.268 31.454a3.208 3.208 0 0 0 5.643-.022c13.464-22.946 12.239-31.432 12.239-31.432z" transform="translate(-2153.624 -737.895)"/>
                                </g>
                                <g id="Group_83">
                                    <path id="Path_180" fill="url(#linear-gradient-5)" d="M2163.409 605.051v.154h-.366a3.784 3.784 0 0 1-3.2-1.883c-7.871-13.411-10.759-21.905-11.792-26.647a15.757 15.757 0 0 1-.52-3.269 8.049 8.049 0 0 1-.015-1.649l.037-.242a15.523 15.523 0 0 1 30.978.154 5.471 5.471 0 0 1 .022.828v.059a15.592 15.592 0 0 1-.623 4.361c-1.07 4.742-3.789 13.133-11.528 26.317a3.754 3.754 0 0 1-2.993 1.817zm-15.039-32.935s0 .66.044 1.143v.051a14.6 14.6 0 0 0 .491 3.1l.007.029c1.019 4.683 3.87 13.06 11.689 26.376a3.153 3.153 0 0 0 2.624 1.392l.183.44v-.44a4.173 4.173 0 0 0 2.4-1.4c7.688-13.1 10.6-21.422 11.579-26.1v-.029a23.234 23.234 0 0 0 .418-4.133l-.176-.059v-.007c0-.44.022-.674.015-.733l.014-.022a14.647 14.647 0 0 0-29.241.051l-.022.337z" transform="translate(-2147.482 -557.1)"/>
                                </g>
                                <circle id="Ellipse_51" cx="8.714" cy="8.714" r="8.714" class="cls-11" transform="translate(6.898 6.596)"/>
                                <g id="Group_84" transform="translate(6.414 6.112)">
                                    <path id="Path_181" fill="url(#linear-gradient-6)" d="M2244.2 658.895a9.2 9.2 0 1 1 9.2-9.2 9.208 9.208 0 0 1-9.2 9.2zm0-17.42a8.223 8.223 0 1 0 8.222 8.223 8.234 8.234 0 0 0-8.222-8.223z" transform="translate(-2235 -640.5)"/>
                                </g>
                            </g>
                            <g id="Group_86" transform="translate(7.2 2.719)">
                                <path id="Path_182" d="M2245.876 597.718a.132.132 0 0 1-.11-.051.149.149 0 0 1 .014-.205 13.519 13.519 0 0 1 8.8-3.261.147.147 0 1 1 0 .293 13.268 13.268 0 0 0-8.618 3.188.1.1 0 0 1-.086.036z" class="cls-11" transform="translate(-2245.732 -594.2)"/>
                            </g>
                            <g id="Group_87" transform="translate(2.537 9.065)">
                                <path id="Path_183" d="M2182.247 688.117a.147.147 0 0 1-.147-.147 13.461 13.461 0 0 1 2.022-7.116.143.143 0 0 1 .242.154 13.171 13.171 0 0 0-1.979 6.962.137.137 0 0 1-.138.147z" class="cls-11" transform="translate(-2182.1 -680.788)"/>
                            </g>
                        </g>
                        <path id="Path_184" fill="url(#linear-gradient-7)" d="M2322.763 1249.742h-4.683a.882.882 0 0 1-.88-.879v-4.683a.882.882 0 0 1 .88-.879h4.683a.882.882 0 0 1 .879.879v4.683a.882.882 0 0 1-.879.879z" transform="translate(-2304.762 -1193.011)"/>
                    </g>
                    <g id="Group_97" transform="translate(163.934 133.007)">
                        <g id="Group_96">
                            <g id="Group_93">
                                <g id="Group_90" transform="translate(0.214 0.117)">
                                    <circle id="Ellipse_52" cx="7.277" cy="7.277" r="7.277" fill="url(#linear-gradient-8)" transform="translate(0.013)"/>
                                    <path id="Path_185" fill="url(#linear-gradient-9)" d="M2730.072 2464.6h-14.54s-.579 4.148 5.914 15.214a1.624 1.624 0 0 0 1.363.828 1.657 1.657 0 0 0 1.363-.85c6.487-11.066 5.9-15.192 5.9-15.192z" transform="translate(-2715.519 -2457.931)"/>
                                </g>
                                <g id="Group_91">
                                    <path id="Path_186" d="M2720.2 2395.114v.1h-.1a1.823 1.823 0 0 1-1.539-.916c-3.8-6.464-5.188-10.568-5.687-12.854a7.365 7.365 0 0 1-.249-1.575 4.154 4.154 0 0 1-.007-.8l.022-.117a7.489 7.489 0 0 1 14.943.073 3.65 3.65 0 0 1 .015.4v.029a7.517 7.517 0 0 1-.3 2.1c-.513 2.287-1.861 6.332-5.592 12.693a1.621 1.621 0 0 1-1.506.867zm-7.175-15.837s0 .293.022.528v.014a7 7 0 0 0 .235 1.488v.015c.491 2.257 1.869 6.3 5.635 12.715a1.469 1.469 0 0 0 1.231.674l.052.212v-.212a1.815 1.815 0 0 0 1.217-.674c3.708-6.317 5.152-10.326 5.643-12.583v-.015a5.564 5.564 0 0 0 .263-1.993l-.022-.03a.921.921 0 0 0-.081-.352l-.037-.015a7.081 7.081 0 0 0-14.137.044l-.022.183z" class="cls-2" transform="translate(-2712.605 -2372)"/>
                                </g>
                                <circle id="Ellipse_53" cx="4.199" cy="4.199" r="4.199" class="cls-11" transform="translate(3.327 3.173)"/>
                                <g id="Group_92" transform="translate(3.092 2.939)">
                                    <path id="Path_187" d="M2759.234 2420.968a4.434 4.434 0 1 1 4.434-4.434 4.44 4.44 0 0 1-4.434 4.434zm0-8.4a3.965 3.965 0 1 0 3.965 3.965 3.972 3.972 0 0 0-3.965-3.964z" class="cls-2" transform="translate(-2754.8 -2412.1)"/>
                                </g>
                            </g>
                            <g id="Group_94" transform="translate(3.472 1.304)">
                                <path id="Path_188" d="M2760.053 2391.493a.068.068 0 0 1-.052-.022.079.079 0 0 1 .008-.1 6.529 6.529 0 0 1 4.243-1.568.073.073 0 1 1 0 .146 6.4 6.4 0 0 0-4.156 1.539c-.006.005-.028.005-.043.005z" class="cls-3" transform="translate(-2759.986 -2389.8)"/>
                            </g>
                            <g id="Group_95" transform="translate(1.216 4.355)">
                                <path id="Path_189" d="M2729.273 2434.969a.074.074 0 0 1-.073-.073 6.494 6.494 0 0 1 .975-3.43.069.069 0 1 1 .117.073 6.375 6.375 0 0 0-.953 3.357.064.064 0 0 1-.066.073z" class="cls-3" transform="translate(-2729.2 -2431.431)"/>
                            </g>
                        </g>
                        <path id="Path_190" fill="url(#linear-gradient-10)" d="M2797.138 2705.9h-2.177a.464.464 0 0 1-.461-.462v-2.177a.464.464 0 0 1 .461-.462h2.177a.465.465 0 0 1 .462.462v2.177a.46.46 0 0 1-.462.462z" transform="translate(-2788.498 -2678.557)"/>
                    </g>
                    <g id="Group_105" transform="translate(17.942 9.593)">
                        <g id="Group_104">
                            <g id="Group_101">
                                <g id="Group_98" transform="translate(0.392 0.242)">
                                    <circle id="Ellipse_54" cx="13.184" cy="13.184" r="13.184" fill="url(#linear-gradient-11)" transform="translate(0.024)"/>
                                    <path id="Path_191" fill="url(#linear-gradient-12)" d="M752.236 859H725.9s-1.048 7.409 10.714 27.453a2.821 2.821 0 0 0 4.932-.015c11.767-20.043 10.69-27.438 10.69-27.438z" transform="translate(-725.873 -846.71)"/>
                                </g>
                                <g id="Group_99">
                                    <path id="Path_192" d="M734.389 729.905v.044h-.271a3.24 3.24 0 0 1-2.792-1.6c-6.882-11.719-9.4-19.12-10.3-23.268a13.6 13.6 0 0 1-.454-2.844 6.694 6.694 0 0 1-.015-1.436l.037-.213a13.566 13.566 0 0 1 27.072.139 6.694 6.694 0 0 1 .022.726v.051a13.606 13.606 0 0 1-.542 3.811c-.931 4.141-3.335 11.477-10.091 23a3.226 3.226 0 0 1-2.666 1.59zM721.3 701.023s0 .623.037 1.048v.073a12.568 12.568 0 0 0 .432 2.726l.007.037c.887 4.089 3.386 11.411 10.216 23.049a2.717 2.717 0 0 0 2.272 1.217l.132.388v-.381a3.036 3.036 0 0 0 2.118-1.224c6.72-11.447 9.161-18.717 10.136-22.807v-.022a17.811 17.811 0 0 0 .381-3.606l-.139-.051v-.007c0-.381.007-.586 0-.645l.007-.022a12.8 12.8 0 0 0-25.555-.015l-.022.242z" class="cls-3" transform="translate(-720.526 -688)"/>
                                </g>
                                <circle id="Ellipse_55" cx="7.614" cy="7.614" r="7.614" fill="url(#linear-gradient-13)" transform="translate(6.022 5.768)"/>
                                <g id="Group_100" transform="translate(5.597 5.343)">
                                    <path id="Path_193" d="M804.939 776.979a8.04 8.04 0 1 1 8.04-8.04 8.048 8.048 0 0 1-8.04 8.04zm0-15.229a7.189 7.189 0 1 0 7.189 7.189 7.2 7.2 0 0 0-7.189-7.189z" class="cls-5" transform="translate(-796.9 -760.9)"/>
                                </g>
                            </g>
                            <g id="Group_102" transform="translate(6.294 2.374)">
                                <path id="Path_194" d="M806.53 723.478a.118.118 0 0 1-.1-.044.136.136 0 0 1 .015-.183 11.811 11.811 0 0 1 7.7-2.851.125.125 0 1 1 0 .249 11.553 11.553 0 0 0-7.526 2.785.1.1 0 0 1-.089.044z" class="cls-3" transform="translate(-806.406 -720.4)"/>
                            </g>
                            <g id="Group_103" transform="translate(2.219 7.919)">
                                <path id="Path_195" d="M750.925 802.464a.123.123 0 0 1-.125-.125 11.789 11.789 0 0 1 1.766-6.222.128.128 0 1 1 .22.132 11.557 11.557 0 0 0-1.73 6.083.142.142 0 0 1-.131.132z" class="cls-3" transform="translate(-750.8 -796.055)"/>
                            </g>
                        </g>
                        <path id="Path_196" fill="url(#linear-gradient-14)" d="M873.686 1293.228h-3.943a.848.848 0 0 1-.843-.843v-3.943a.848.848 0 0 1 .843-.843h3.943a.848.848 0 0 1 .843.843v3.943a.847.847 0 0 1-.843.843z" transform="translate(-858.026 -1243.657)"/>
                    </g>
                </g>
                <g id="Group_110" transform="translate(0 90.185)">
                    <g id="Group_108" transform="translate(17.851)">
                        <g id="Group_107">
                            <path id="Path_197" d="M717.757 1724.708a20.922 20.922 0 0 0 .857-7.907c-.682-6.882-5.694-12.466-9.593-17.823-3.584-4.925-6.926-12.605 2.2-13.419 7.27-.652 16.914 5.064 19.142 12.349 2.638 8.626.234 20.484 6.691 27.629 9.029 10 13.726 6.559 16.944 25.474 1.371 8.083-2.345 13.3-7.057 16.629a21.758 21.758 0 0 1-24.859.183c-6.632-4.544-11.367-11.894-11.579-20.044-.214-8.238 5.055-15.398 7.254-23.071z" class="cls-3" transform="translate(-705.345 -1685.507)"/>
                            <path id="Path_198" d="M802.339 1827.068h-.029a.364.364 0 0 1-.337-.4c3.232-41.847-3.137-65.364-9.044-77.728-6.391-13.36-13.631-16.9-13.7-16.929a.369.369 0 0 1 .315-.667c.3.139 7.5 3.635 14.005 17.186 3.8 7.922 6.566 17.669 8.215 28.956 2.059 14.093 2.374 30.656.938 49.234a.357.357 0 0 1-.363.348z" class="cls-5" transform="translate(-773.614 -1727.956)"/>
                        </g>
                        <path id="Path_199" d="M711.2 1961.407a3.01 3.01 0 0 1 1.121-.271c2.286-.125 3.613 2.089 4.588 3.826.835 1.488 1.825 3.3 1.781 5.071-.044 1.92-1.759 3.767-3.51 2.125-1.986-1.862-4.983-4.742-5.482-7.571a2.826 2.826 0 0 1 1.502-3.18z" class="cls-3" transform="translate(-709.33 -1940.932)"/>
                    </g>
                    <g id="Group_109" transform="translate(0 22.665)">
                        <path id="Path_200" d="M466.744 2039.945c-1.942-5.892-.931-13.206-.916-19.78a31.165 31.165 0 0 0-1.422-10.194c-1.114-3.291-3.327-6.684-2.433-10.311 1.8-7.3 9.351-5.4 14.247-.967 5.68 5.145 8.6 14.628 11.653 21.8 1.832 4.324 4.229 8.67 5.577 13.162 2.228 7.446 1.407 13.016-1.627 17.193a11.168 11.168 0 0 1-12.766 3.972c-4.223-1.493-9.169-5.37-12.313-14.875z" class="cls-2" transform="translate(-461.765 -1994.769)"/>
                        <path id="Path_201" d="M592.8 2124.213a.363.363 0 0 1-.366-.366 153.481 153.481 0 0 0-2.155-22.22c-1.949-11.7-6.12-28.618-14.885-42.828a.367.367 0 0 1 .623-.388c8.831 14.313 13.023 31.344 14.987 43.107a153.016 153.016 0 0 1 2.162 22.323.364.364 0 0 1-.366.374z" class="cls-5" transform="translate(-567.013 -2053.585)"/>
                    </g>
                </g>
            </g>
        </g>
    </g>
</svg>
