<?xml version="1.0" encoding="utf-8"?>
<!-- Generator: Adobe Illustrator 21.0.0, SVG Export Plug-In . SVG Version: 6.00 Build 0)  -->
<svg version="1.1" id="Layer_1" xmlns="http://www.w3.org/2000/svg" xmlns:xlink="http://www.w3.org/1999/xlink" x="0px" y="0px"
	 viewBox="0 0 283.5 230" style="enable-background:new 0 0 283.5 230;" xml:space="preserve">
<style type="text/css">
	.st0{fill:#FFFFFF;}
	.st1{fill:#606060;stroke:#FFFFFF;stroke-width:19;stroke-linecap:round;stroke-miterlimit:10;}
	.st2{fill:none;stroke:#FFFFFF;stroke-width:19;stroke-linecap:round;stroke-miterlimit:10;}
</style>
<g>
	<path class="st0" d="M141.4,13.5v13c1.8,0,6.4,0.5,9.2,5.3l92.2,159.5c2.8,4.8,0.9,9,0,10.6s-3.7,5.3-9.2,5.3l-184.3,0.1
		c-5.5,0-8.3-3.7-9.2-5.3s-2.8-5.8,0-10.6l92-159.6c2.8-4.8,7.4-5.3,9.2-5.3L141.4,13.5 M141.4,13.5c-8,0-15.9,3.9-20.5,11.8
		l-92,159.6c-9.1,15.7,2.3,35.4,20.5,35.4l0,0l184.3-0.1c18.2,0,29.5-19.7,20.4-35.4L161.9,25.3C157.3,17.4,149.4,13.5,141.4,13.5
		L141.4,13.5z"/>
</g>
<g>
	<line class="st1" x1="141.5" y1="73.5" x2="141.5" y2="151.5"/>
</g>
<g>
	<line class="st2" x1="141.5" y1="178.5" x2="141.5" y2="179.5"/>
</g>
</svg>
