<svg width="58" height="36" xmlns="http://www.w3.org/2000/svg" xmlns:xlink="http://www.w3.org/1999/xlink" xmlns:svgjs="http://svgjs.com/svgjs" viewBox="267 623 58 36"><svg width="57" height="36" xmlns="http://www.w3.org/2000/svg" xmlns:xlink="http://www.w3.org/1999/xlink" xmlns:svgjs="http://svgjs.com/svgjs" viewBox="0 0.187 57 35.625" fill="#2557d6" x="268" y="623"><svg xmlns="http://www.w3.org/2000/svg" xmlns:xlink="http://www.w3.org/1999/xlink" width="57" height="36" viewBox="0 0 56 35"><path paint-order="stroke fill markers" fill-rule="evenodd" d="M5 0h46c2.765 0 5 2.235 5 5v25c0 2.765-2.235 5-5 5H5c-2.765 0-5-2.235-5-5V5c0-2.765 2.235-5 5-5z"/></svg></svg><svg width="57" height="22" xmlns="http://www.w3.org/2000/svg" xmlns:xlink="http://www.w3.org/1999/xlink" xmlns:svgjs="http://svgjs.com/svgjs" viewBox="0 0.602 57 20.797" fill="#fff" x="267" y="629"><svg xmlns="http://www.w3.org/2000/svg" width="57" height="22" viewBox="0.826 0.997 55.752 20.341"><path paint-order="stroke fill markers" fill-rule="evenodd" d="M.826 10.104h2.678l.604-1.45h1.351l.602 1.45h5.27v-1.11l.47 1.115h2.735l.47-1.13v1.125H28.1l-.005-2.38h.253c.177.005.229.022.229.313v2.067h6.773V9.55c.546.29 1.395.554 2.514.554h2.849l.61-1.45h1.351l.596 1.45h5.49V8.726l.832 1.378h4.4V.997h-4.354v1.075l-.61-1.075H44.56v1.075L44 .997h-6.035c-1.01 0-1.898.14-2.615.532V.997h-4.165v.532c-.457-.404-1.079-.532-1.77-.532H14.199l-1.02 2.352-1.05-2.352H7.338v1.075L6.811.997H2.724L.826 5.327v4.777zM17.73 8.79h-1.607l-.006-5.114-2.273 5.114h-1.376L10.19 3.672V8.79H7.002L6.4 7.334H3.136L2.528 8.79H.826l2.806-6.53h2.329l2.665 6.183V2.26h2.559l2.05 4.43 1.885-4.43h2.61V8.79zM5.864 5.98L4.79 3.375 3.725 5.98h2.139zm18.26 2.81h-5.236V2.26h5.236v1.36h-3.668v1.177h3.58v1.338h-3.58V7.44h3.668v1.35zm7.378-4.77c0 1.041-.698 1.579-1.104 1.74.343.13.636.36.775.55.221.325.26.615.26 1.198V8.79h-1.581l-.007-.823c0-.393.038-.958-.247-1.272-.229-.23-.578-.28-1.142-.28h-1.683V8.79h-1.567V2.26h3.605c.801 0 1.391.022 1.898.313.496.292.793.718.793 1.446zm-1.981.97c-.216.13-.47.134-.775.134h-1.904v-1.45h1.93c.272 0 .558.012.743.117.203.096.329.298.329.578 0 .285-.12.515-.323.62zm4.495 3.8h-1.6V2.26h1.6v6.53zm18.564 0h-2.22l-2.971-4.9v4.9h-3.192l-.61-1.455H40.33l-.592 1.456h-1.834c-.762 0-1.727-.168-2.272-.722-.552-.555-.838-1.305-.838-2.493 0-.968.171-1.854.845-2.553.506-.521 1.3-.762 2.38-.762h1.517v1.4h-1.485c-.572 0-.895.084-1.206.386-.267.275-.45.795-.45 1.48 0 .699.14 1.203.43 1.533.241.258.68.337 1.093.337h.704l2.209-5.135h2.348l2.653 6.176V2.26h2.387l2.755 4.547V2.261h1.605V8.79zm-9.527-2.81L41.97 3.376l-1.08 2.603h2.164zm13.52 13.237c-.38.554-1.122.835-2.126.835h-3.026v-1.4h3.014c.299 0 .508-.04.634-.162a.573.573 0 0 0 .186-.426.536.536 0 0 0-.192-.432c-.114-.1-.279-.145-.552-.145-1.472-.05-3.308.046-3.308-2.021 0-.947.604-1.945 2.249-1.945h3.122v-1.299h-2.9c-.876 0-1.512.209-1.962.533v-.533h-4.29c-.687 0-1.492.17-1.873.533v-.533h-7.661v.533c-.61-.438-1.64-.533-2.114-.533h-5.053v.533c-.483-.465-1.556-.533-2.21-.533h-5.655l-1.294 1.395-1.213-1.395h-8.448v9.113h8.29l1.333-1.417 1.256 1.417 5.11.005v-2.144h.502c.678.01 1.478-.017 2.184-.32v2.459h4.214v-2.375h.203c.26 0 .286.01.286.268v2.106H48.08c.813 0 1.663-.207 2.134-.583v.583h4.06c.846 0 1.67-.118 2.299-.42v-1.697zM31.189 15.71c0 1.815-1.36 2.19-2.729 2.19h-1.955v2.19h-3.047l-1.93-2.162-2.005 2.162h-6.209V13.56h6.304l1.928 2.14 1.994-2.14h5.008c1.244 0 2.641.343 2.641 2.151zm-12.46 3.006h-3.854v-1.3h3.441v-1.332h-3.44v-1.187h3.929l1.714 1.903-1.79 1.916zm6.209.748l-2.406-2.66 2.406-2.576v5.236zm3.558-2.904H26.47v-1.663h2.044c.565 0 .958.23.958.8 0 .566-.374.863-.977.863zm10.611-3.001h5.231v1.35h-3.67v1.188h3.58v1.332h-3.58v1.3l3.67.006v1.355h-5.23V13.56zm-2.01 3.496c.348.128.633.358.767.548.222.319.254.617.26 1.192v1.295h-1.574v-.817c0-.393.038-.975-.253-1.279-.229-.233-.578-.29-1.15-.29h-1.675v2.386h-1.575V13.56h3.619c.793 0 1.37.035 1.885.308.495.298.806.705.806 1.45 0 1.043-.698 1.575-1.11 1.738zm-.887-.826c-.21.124-.469.135-.774.135h-1.904v-1.467h1.93c.28 0 .559.006.748.118.204.106.325.308.325.587 0 .28-.121.505-.325.627zm14.15.416c.304.315.468.712.468 1.384 0 1.405-.882 2.06-2.462 2.06h-3.053v-1.4h3.04c.298 0 .509-.039.64-.162a.578.578 0 0 0 .186-.425.559.559 0 0 0-.192-.432c-.12-.1-.285-.145-.558-.145-1.465-.05-3.301.045-3.301-2.021 0-.948.598-1.945 2.241-1.945h3.142v1.39h-2.875c-.285 0-.47.01-.628.118-.172.106-.235.263-.235.47a.5.5 0 0 0 .343.486c.165.058.342.074.61.074l.843.023c.851.02 1.435.167 1.79.525zm6.218-1.748h-2.856c-.286 0-.475.01-.634.118-.166.106-.23.263-.23.47 0 .246.14.414.343.486.166.057.343.074.604.074l.85.023c.857.021 1.43.168 1.778.526.063.05.102.105.145.161v-1.858z"/></svg></svg></svg>