<svg width="48" height="38" xmlns="http://www.w3.org/2000/svg" xmlns:xlink="http://www.w3.org/1999/xlink" xmlns:svgjs="http://svgjs.com/svgjs" viewBox="46 625 48 38"><svg width="44" height="7" xmlns="http://www.w3.org/2000/svg" xmlns:xlink="http://www.w3.org/1999/xlink" xmlns:svgjs="http://svgjs.com/svgjs" viewBox="0 0.646 44 5.708" x="48" y="656"><svg xmlns="http://www.w3.org/2000/svg" xmlns:xlink="http://www.w3.org/1999/xlink" width="44" height="7" viewBox="0.794 0.753 42.44 5.506"><path paint-order="stroke fill markers" fill-rule="evenodd" d="M6.902 6.174V3.747c0-.931-.567-1.538-1.497-1.538-.488 0-1.011.162-1.376.684-.283-.446-.683-.684-1.294-.684-.46-.02-.902.193-1.172.566v-.488H.794v3.884h.769V3.95c0-.684.404-1.011.971-1.011.566 0 .89.364.89 1.01v2.226h.768V3.95c0-.684.405-1.011.971-1.011.567 0 .89.364.89 1.01v2.226h.849zM19.524 2.33h-1.416V1.158h-.767V2.33h-.809v.684h.81v1.825c0 .89.322 1.416 1.294 1.416a2.261 2.261 0 0 0 1.05-.283l-.244-.684a1.333 1.333 0 0 1-.729.202c-.404 0-.606-.243-.606-.647v-1.86h1.416v-.648l.001-.005zm7.202-.12a1.211 1.211 0 0 0-1.053.565v-.488h-.768v3.884h.768V3.99c0-.648.324-1.052.85-1.052.178.007.354.034.526.08l.243-.728a2.722 2.722 0 0 0-.566-.08zm-10.883.403c-.405-.283-.972-.404-1.578-.404-.971 0-1.578.446-1.578 1.214 0 .648.445 1.011 1.294 1.133l.405.04c.445.082.729.244.729.446 0 .283-.324.488-.931.488a2.131 2.131 0 0 1-1.295-.404l-.404.607c.566.404 1.254.488 1.66.488 1.134 0 1.74-.526 1.74-1.254 0-.684-.488-1.011-1.335-1.134l-.405-.04c-.363-.04-.683-.162-.683-.404 0-.283.323-.488.769-.488.488 0 .97.202 1.214.323l.398-.61zm11.733 1.62c0 1.171.768 2.022 2.022 2.022.567 0 .971-.12 1.376-.445l-.405-.607c-.286.232-.642.36-1.01.365-.684 0-1.215-.526-1.215-1.295 0-.769.524-1.29 1.214-1.29.369.004.725.132 1.011.364l.405-.607c-.405-.323-.81-.445-1.376-.445-1.213-.081-2.022.769-2.022 1.942v-.005zm-5.422-2.024c-1.133 0-1.902.809-1.902 2.023s.809 2.023 1.982 2.023a2.472 2.472 0 0 0 1.577-.525l-.404-.567a1.935 1.935 0 0 1-1.133.405c-.525 0-1.092-.324-1.172-1.012h2.873v-.323c0-1.214-.729-2.023-1.82-2.023zm-.04.729c.567 0 .971.364 1.011.97h-2.103c.12-.566.488-.97 1.092-.97zM11.635 4.232V2.29h-.769v.489c-.283-.365-.684-.567-1.254-.567-1.092 0-1.902.85-1.902 2.023s.809 2.023 1.902 2.023c.567 0 .971-.202 1.254-.566v.488h.77V4.232zm-3.115 0c0-.729.445-1.294 1.214-1.294.729 0 1.173.566 1.173 1.294 0 .769-.489 1.294-1.173 1.294-.769.04-1.214-.566-1.214-1.294zm29.9-2.023a1.211 1.211 0 0 0-1.053.566v-.488H36.6v3.884h.767V3.99c0-.648.324-1.052.85-1.052.178.007.354.034.526.08l.243-.728a2.722 2.722 0 0 0-.566-.08zm-2.995 2.023V2.29h-.768v.489c-.283-.365-.684-.567-1.255-.567-1.092 0-1.902.85-1.902 2.023s.81 2.023 1.902 2.023c.567 0 .972-.202 1.255-.566v.488h.768V4.232zm-3.115 0c0-.729.446-1.294 1.215-1.294.728 0 1.171.566 1.171 1.294 0 .769-.488 1.294-1.171 1.294-.77.04-1.215-.566-1.215-1.294zm10.924 0V.752h-.768v2.023c-.284-.364-.684-.566-1.255-.566-1.092 0-1.901.85-1.901 2.023s.808 2.023 1.901 2.023c.567 0 .971-.202 1.255-.566v.488h.768V4.232zm-3.115 0c0-.729.446-1.294 1.214-1.294.73 0 1.173.566 1.173 1.294 0 .769-.489 1.294-1.173 1.294-.77.042-1.214-.565-1.214-1.294z"/></svg></svg><svg width="15" height="24" xmlns="http://www.w3.org/2000/svg" xmlns:xlink="http://www.w3.org/1999/xlink" xmlns:svgjs="http://svgjs.com/svgjs" viewBox="0.143 0 14.714 24" fill="#ff5f00" x="62" y="628"><svg xmlns="http://www.w3.org/2000/svg" xmlns:xlink="http://www.w3.org/1999/xlink" width="15" height="24" viewBox="0.953 0.836 14.039 22.899"><path paint-order="stroke fill markers" fill-rule="evenodd" d="M.953.836h14.039v22.9H.952V.835z"/></svg></svg><svg width="24" height="30" xmlns="http://www.w3.org/2000/svg" xmlns:xlink="http://www.w3.org/1999/xlink" xmlns:svgjs="http://svgjs.com/svgjs" viewBox="0 0.169 24 29.662" fill="#eb001b" x="46" y="625"><svg xmlns="http://www.w3.org/2000/svg" xmlns:xlink="http://www.w3.org/1999/xlink" width="24" height="30" viewBox="0.342 0.723 23.57 29.13"><path paint-order="stroke fill markers" fill-rule="evenodd" d="M18.37 15.286c0-4.46 2.04-8.678 5.539-11.448C17.937-.857 9.36-.174 4.206 5.407c-5.153 5.58-5.152 14.185.003 19.764 5.155 5.58 13.732 6.26 19.703 1.564a14.601 14.601 0 0 1-5.543-11.45z"/></svg></svg><svg width="25" height="30" xmlns="http://www.w3.org/2000/svg" xmlns:xlink="http://www.w3.org/1999/xlink" xmlns:svgjs="http://svgjs.com/svgjs" viewBox="0.374 0 24.252 30" fill="#f79e1b" x="69" y="625"><svg xmlns="http://www.w3.org/2000/svg" width="25" height="30" viewBox="0.957 0.725 23.542 29.122"><path paint-order="stroke fill markers" fill-rule="evenodd" d="M24.5 15.286A14.55 14.55 0 0 1 .957 26.736a14.596 14.596 0 0 0 0-22.9A14.55 14.55 0 0 1 24.5 15.286z"/></svg></svg></svg>