<svg width="70" height="22" xmlns="http://www.w3.org/2000/svg" xmlns:xlink="http://www.w3.org/1999/xlink" xmlns:svgjs="http://svgjs.com/svgjs" viewBox="144 630 70 22"><svg width="26" height="21" xmlns="http://www.w3.org/2000/svg" xmlns:xlink="http://www.w3.org/1999/xlink" xmlns:svgjs="http://svgjs.com/svgjs" viewBox="0 0.097 26 20.806" fill="#0e4595" x="144" y="631"><svg xmlns="http://www.w3.org/2000/svg" xmlns:xlink="http://www.w3.org/1999/xlink" width="26" height="21" viewBox="0.452 0.325 25.381 20.311"><path paint-order="stroke fill markers" fill-rule="evenodd" d="M.523.325l-.07.423c2.191.53 4.15 1.298 5.863 2.254l4.92 17.634 5.868-.006L25.834.325h-5.875L14.53 14.198l-.578-2.82a9.419 9.419 0 0 0-.087-.262l-1.887-9.074C11.643.754 10.67.37 9.465.325H.523z"/></svg></svg><svg width="46" height="22" xmlns="http://www.w3.org/2000/svg" xmlns:xlink="http://www.w3.org/1999/xlink" xmlns:svgjs="http://svgjs.com/svgjs" viewBox="0 0.106 46 21.789" fill="#0e4595" x="168" y="630"><svg xmlns="http://www.w3.org/2000/svg" width="46" height="22" viewBox="0.666 0.909 44.334 21"><path paint-order="stroke fill markers" fill-rule="evenodd" d="M.666 21.669L4.133 1.325h5.545l-3.47 20.344H.667zM26.242 1.763c-1.098-.412-2.82-.854-4.97-.854-5.479 0-9.338 2.76-9.37 6.714-.032 2.923 2.754 4.554 4.858 5.527 2.158.997 2.884 1.633 2.873 2.523-.013 1.364-1.723 1.987-3.317 1.987-2.22 0-3.399-.308-5.22-1.068l-.714-.323-.779 4.554c1.296.568 3.69 1.06 6.178 1.085 5.828 0 9.612-2.727 9.656-6.95.02-2.314-1.457-4.075-4.656-5.528-1.938-.94-3.125-1.569-3.113-2.522 0-.845 1.005-1.75 3.176-1.75a10.235 10.235 0 0 1 4.15.78l.497.235.751-4.41m14.27-.438h-4.285c-1.327 0-2.32.362-2.904 1.687l-8.235 18.643h5.823s.952-2.506 1.167-3.057c.637 0 6.293.009 7.102.009.166.712.675 3.049.675 3.049H45L40.512 1.325zM33.713 14.46c.46-1.172 2.21-5.687 2.21-5.687-.033.054.455-1.178.735-1.941l.375 1.754 1.284 5.874h-4.604z"/></svg></svg></svg>